<svg width="24" height="24" viewBox="0 0 24 24" fill="none" xmlns="http://www.w3.org/2000/svg">
<path d="M15.3161 3.45446C14.4741 2.51651 13.298 2 12 2C10.695 2 9.51512 2.51339 8.67701 3.44553C7.82983 4.38793 7.41705 5.66873 7.51397 7.05176C7.70608 9.78031 9.71848 11.9999 12 11.9999C14.2815 11.9999 16.2905 9.78076 16.4856 7.05265C16.5838 5.68212 16.1684 4.404 15.3161 3.45446ZM19.6152 21.9999H4.38482C4.18547 22.0026 3.98805 21.9594 3.80692 21.8734C3.62579 21.7874 3.46551 21.6609 3.33774 21.503C3.0565 21.1561 2.94313 20.6825 3.02707 20.2035C3.39226 18.1133 4.53194 16.3575 6.32323 15.1249C7.91463 14.0307 9.93049 13.4285 12 13.4285C14.0695 13.4285 16.0854 14.0312 17.6768 15.1249C19.4681 16.3571 20.6077 18.1129 20.9729 20.203C21.0569 20.682 20.9435 21.1557 20.6623 21.5026C20.5345 21.6606 20.3743 21.7872 20.1931 21.8732C20.012 21.9592 19.8146 22.0025 19.6152 21.9999Z" fill="#9FA4A9"/>
</svg>
