<svg width="44" height="16" viewBox="0 0 44 16" fill="none" xmlns="http://www.w3.org/2000/svg">
<path d="M39.8621 3.19824V2.07649C38.7172 2.09458 31.9454 2.09458 30.8005 2.07649C30.6787 1.67845 30.6787 0.864272 30.8005 0.448138C31.8723 0.375767 41.6403 0.375767 42.6877 0.448138C42.7852 1.13566 42.7852 3.95813 42.6877 4.60947H33.8454V5.73122C35.9403 5.73122 42.1031 5.71313 43.1749 5.73122C43.2724 6.09308 43.2967 7.01581 43.1749 7.34148C41.7865 7.39576 32.6031 7.39576 30.9466 7.34148C30.8005 6.65395 30.8005 3.92195 30.9466 3.19824C32.0672 3.18015 38.8634 3.18015 39.8621 3.19824ZM43.9301 8.19184C44.0275 8.75272 44.0031 9.31359 43.9301 9.92875C43.3211 9.92875 41.007 9.94684 38.4249 9.94684C38.4493 10.3449 38.4493 10.7791 38.4249 11.141C40.7147 11.1591 42.7121 11.1771 43.1993 11.2133C43.3698 12.0637 43.3698 14.9043 43.1993 15.7546C42.0544 15.8632 31.8479 15.8632 30.7031 15.7546C30.5325 14.9043 30.5325 12.0637 30.7031 11.2133C31.1902 11.1771 33.1877 11.1591 35.4531 11.141C35.4287 10.7791 35.4287 10.3449 35.4531 9.94684C32.7979 9.94684 30.4595 9.92875 29.9479 9.92875C29.8505 9.33169 29.8505 8.77081 29.9479 8.19184C31.1415 8.17375 42.4685 8.17375 43.9301 8.19184ZM40.4467 14.1805V12.7693C39.2531 12.715 34.6492 12.715 33.4556 12.7693V14.1805C34.6492 14.2348 39.2287 14.2348 40.4467 14.1805Z" fill="#1B1D1F"/>
<path d="M25.9555 11.8634C25.8962 10.9479 25.8962 1.10191 25.9555 0.167753C26.4299 0.0556546 27.7741 0.0556546 28.2485 0.167753C28.3473 1.10191 28.3473 10.9292 28.2485 11.8634C27.8531 11.9381 26.509 11.9381 25.9555 11.8634ZM15.4986 9.77088C15.38 8.8554 15.38 5.47376 15.4986 4.24067C16.4079 4.20331 19.6695 4.20331 20.816 4.24067V2.40973C19.6893 2.42841 16.3486 2.42841 15.4195 2.40973C15.3207 1.90528 15.3207 1.02718 15.4195 0.560098C16.2893 0.485367 22.2195 0.485367 23.0695 0.560098C23.1683 1.43821 23.1683 4.93195 23.0695 6.01557C22.2195 6.05294 18.5032 6.05294 17.8311 6.01557V7.90257C18.523 7.88388 23.4648 7.88388 24.3346 7.90257C24.4334 8.27623 24.4334 9.37853 24.3346 9.77088C22.9904 9.88298 16.8625 9.88298 15.4986 9.77088Z" fill="#1B1D1F"/>
<path d="M10.137 11.081C10.092 10.0801 10.1145 4.31546 10.137 2.81407C9.16771 2.85114 2.11185 2.85114 1.05234 2.81407C0.939626 2.22093 0.939626 1.4239 1.05234 0.830754C2.35982 0.756611 11.6249 0.756611 12.8196 0.830754C12.9098 1.68339 12.8647 10.2839 12.8196 11.081C12.2561 11.1922 10.8133 11.1922 10.137 11.081Z" fill="#1B1D1F"/>
<path fill-rule="evenodd" clip-rule="evenodd" d="M18.945 15.2049C16.8362 14.3899 15.7329 12.946 15.397 11.3782L17.3269 10.9646C17.5134 11.8349 18.1226 12.7711 19.6565 13.3638C21.2407 13.976 23.8229 14.2189 27.859 13.5084L28.2013 15.4522C23.9942 16.1929 21.0035 16.0004 18.945 15.2049Z" fill="#1B1D1F"/>
<path fill-rule="evenodd" clip-rule="evenodd" d="M0.00530753 14.1271C0.00482627 14.1267 0.00435212 14.1264 0.572214 13.3193C1.14008 12.5122 1.13962 12.5119 1.13916 12.5115L1.13829 12.5109L1.13666 12.5098L1.1339 12.5079L1.13031 12.5054C1.12965 12.505 1.12932 12.5048 1.12932 12.5048C1.12932 12.5048 1.12988 12.5051 1.13102 12.5059C1.13502 12.5085 1.14613 12.5156 1.16458 12.5266C1.20147 12.5486 1.26781 12.5862 1.36547 12.6346C1.56062 12.7313 1.88196 12.8716 2.34458 13.0156C3.26874 13.3035 4.76572 13.6096 6.9578 13.6096C9.14989 13.6096 10.6469 13.3035 11.571 13.0156C12.0337 12.8716 12.355 12.7313 12.5501 12.6346C12.6478 12.5862 12.7141 12.5486 12.751 12.5266C12.7695 12.5156 12.7806 12.5085 12.7846 12.5059C12.7856 12.5052 12.7862 12.5048 12.7863 12.5048C12.7863 12.5047 12.786 12.5049 12.7853 12.5054L12.7817 12.5079L12.7789 12.5098L12.7773 12.5109L12.7764 12.5115C12.776 12.5119 12.7755 12.5122 13.3434 13.3193C13.9113 14.1264 13.9108 14.1267 13.9103 14.1271L13.9093 14.1278L13.9072 14.1293L13.9024 14.1326C13.9006 14.1338 13.8986 14.1352 13.8965 14.1366C13.8947 14.1379 13.8928 14.1391 13.8908 14.1405C13.8821 14.1464 13.8716 14.1534 13.8592 14.1614C13.8344 14.1775 13.802 14.1979 13.7619 14.2218C13.6817 14.2696 13.5705 14.3318 13.4266 14.4031C13.1386 14.5458 12.7204 14.7249 12.158 14.9001C11.0319 15.2508 9.33612 15.5833 6.9578 15.5833C4.57949 15.5833 2.88367 15.2508 1.75764 14.9001C1.19517 14.7249 0.777051 14.5458 0.489029 14.4031C0.345101 14.3318 0.233927 14.2696 0.153693 14.2218C0.113584 14.1979 0.0812341 14.1775 0.0564137 14.1614C0.0440044 14.1534 0.03348 14.1464 0.0248119 14.1405C0.020478 14.1376 0.0166084 14.1349 0.0131995 14.1326L0.00843147 14.1293L0.00630587 14.1278L0.00530753 14.1271Z" fill="#1B1D1F"/>
</svg>
