<svg width="24" height="24" viewBox="0 0 24 24" fill="none" xmlns="http://www.w3.org/2000/svg">
<g clip-path="url(#clip0_57031_5393)">
<path fill-rule="evenodd" clip-rule="evenodd" d="M6.17647 3C5.61484 3 5.0762 3.20018 4.67907 3.5565C4.28193 3.91282 4.05882 4.39609 4.05882 4.9V5.85C3.77801 5.85 3.50869 5.95009 3.31012 6.12825C3.11155 6.30641 3 6.54804 3 6.8C3 7.05196 3.11155 7.29359 3.31012 7.47175C3.50869 7.64991 3.77801 7.75 4.05882 7.75V9.65C3.77801 9.65 3.50869 9.75009 3.31012 9.92825C3.11155 10.1064 3 10.348 3 10.6C3 10.852 3.11155 11.0936 3.31012 11.2718C3.50869 11.4499 3.77801 11.55 4.05882 11.55V13.45C3.77801 13.45 3.50869 13.5501 3.31012 13.7282C3.11155 13.9064 3 14.148 3 14.4C3 14.652 3.11155 14.8936 3.31012 15.0718C3.50869 15.2499 3.77801 15.35 4.05882 15.35V17.25C3.77801 17.25 3.50869 17.3501 3.31012 17.5282C3.11155 17.7064 3 17.948 3 18.2C3 18.452 3.11155 18.6936 3.31012 18.8718C3.50869 19.0499 3.77801 19.15 4.05882 19.15V20.1C4.05882 20.6039 4.28193 21.0872 4.67907 21.4435C5.0762 21.7998 5.61484 22 6.17647 22H18.8824C19.444 22 19.9826 21.7998 20.3798 21.4435C20.7769 21.0872 21 20.6039 21 20.1V4.9C21 4.39609 20.7769 3.91282 20.3798 3.5565C19.9826 3.20018 19.444 3 18.8824 3H6.17647ZM9 7C8.44772 7 8 7.44772 8 8V9C8 9.55228 8.44772 10 9 10H16C16.5523 10 17 9.55228 17 9V8C17 7.44772 16.5523 7 16 7H9Z" fill="#CACDD2"/>
</g>
<defs>
<clipPath id="clip0_57031_5393">
<rect width="24" height="24" fill="white"/>
</clipPath>
</defs>
</svg>
