<svg width="24" height="24" viewBox="0 0 24 24" fill="none" xmlns="http://www.w3.org/2000/svg">
<path fill-rule="evenodd" clip-rule="evenodd" d="M2.31114 9.45775C2 10.1199 2 10.8771 2 12.3916V15.4454C2 18.5354 2 20.0804 2.95994 21.0403C3.91988 22.0003 5.46488 22.0003 8.55488 22.0003H15.4451C18.5351 22.0003 20.0801 22.0003 21.0401 21.0403C22 20.0804 22 18.5354 22 15.4454V12.3915C22 10.8771 22 10.1199 21.6889 9.45775C21.3777 8.79558 20.7948 8.31226 19.629 7.34562L16.1839 4.48905C14.1827 2.82968 13.182 2 12 2C10.818 2 9.81735 2.82968 7.8161 4.48904L4.37097 7.34562C3.20518 8.31226 2.62228 8.79558 2.31114 9.45775ZM14.3972 13.3637L12.1639 15.3722C12.2034 14.5668 12.4803 13.6532 13.0689 12.8764C13.8246 11.8792 15.1235 11.0694 17.2039 11.0517C17.3143 12.0669 17.0999 13.5874 16.3207 14.9126C15.4679 16.363 13.9436 17.5768 11.3776 17.6214C9.10396 17.4505 6.76923 15.7019 6.76923 12.7095C6.76923 12.4025 6.51564 12.1536 6.20281 12.1536C5.88998 12.1536 5.63638 12.4025 5.63638 12.7095C5.63638 16.3968 8.5554 18.5378 11.3208 18.7321L11.3452 18.7338L11.3696 18.7335C14.385 18.69 16.2655 17.231 17.3019 15.4683C18.3162 13.7432 18.5268 11.7238 18.2553 10.4628C18.1866 10.1436 17.9044 9.95619 17.6261 9.94609C14.9801 9.85007 13.2008 10.8392 12.1599 12.2129C11.1405 13.5582 10.8614 15.2315 11.1131 16.4805C11.22 17.0105 11.8561 17.1571 12.2166 16.8329L15.1626 14.1833C15.3932 13.9759 15.4089 13.6243 15.1975 13.3979C14.9862 13.1716 14.6279 13.1562 14.3972 13.3637Z" fill="#29BA6C"/>
</svg>
