<svg width="136" height="50" viewBox="0 0 136 50" fill="none" xmlns="http://www.w3.org/2000/svg">
<path d="M123.225 9.83582V6.29329C119.685 6.35043 98.7486 6.35043 95.209 6.29329C94.8324 5.03626 94.8324 2.46507 95.209 1.15091C98.5226 0.922354 128.722 0.922354 131.961 1.15091C132.262 3.32213 132.262 12.2356 131.961 14.2926H104.623V17.8351C111.1 17.8351 130.153 17.778 133.467 17.8351C133.768 18.9778 133.843 21.8919 133.467 22.9203C129.174 23.0917 100.782 23.0917 95.6608 22.9203C95.209 20.7491 95.209 12.1213 95.6608 9.83582C99.1251 9.77869 120.137 9.77869 123.225 9.83582ZM135.801 25.6058C136.103 27.3771 136.027 29.1483 135.801 31.091C133.919 31.091 126.764 31.1482 118.781 31.1482C118.857 32.4052 118.857 33.7765 118.781 34.9192C125.86 34.9764 132.036 35.0335 133.542 35.1478C134.069 37.8333 134.069 46.8039 133.542 49.4893C130.002 49.8322 98.4473 49.8322 94.9077 49.4893C94.3806 46.8039 94.3806 37.8333 94.9077 35.1478C96.4139 35.0335 102.589 34.9764 109.593 34.9192C109.518 33.7765 109.518 32.4052 109.593 31.1482C101.384 31.1482 94.1546 31.091 92.5731 31.091C92.2719 29.2055 92.2719 27.4342 92.5731 25.6058C96.2633 25.5487 131.283 25.5487 135.801 25.6058ZM125.032 44.5184V40.0616C121.342 39.8902 107.108 39.8902 103.418 40.0616V44.5184C107.108 44.6898 121.266 44.6898 125.032 44.5184Z" fill="#29BA6C"/>
<path d="M80.2297 37.2008C80.0464 34.3097 80.0464 3.21561 80.2297 0.265508C81.6965 -0.0885027 85.8522 -0.0885027 87.319 0.265508C87.6246 3.21561 87.6246 34.2507 87.319 37.2008C86.0967 37.4368 81.9409 37.4368 80.2297 37.2008ZM47.9004 30.5925C47.5337 27.7014 47.5337 17.0221 47.9004 13.1279C50.7116 13.0099 60.7955 13.0099 64.3401 13.1279V7.34575C60.8566 7.40475 50.5283 7.40475 47.6559 7.34575C47.3504 5.7527 47.3504 2.9796 47.6559 1.50455C50.345 1.26854 68.6792 1.26854 71.3071 1.50455C71.6127 4.27765 71.6127 15.311 71.3071 18.7331C68.6792 18.8511 57.1897 18.8511 55.1119 18.7331V24.6923C57.2508 24.6333 72.5294 24.6333 75.2184 24.6923C75.524 25.8724 75.524 29.3535 75.2184 30.5925C71.0626 30.9465 52.1173 30.9465 47.9004 30.5925Z" fill="#29BA6C"/>
<path d="M31.3241 34.7298C31.1847 31.5688 31.2544 13.364 31.3241 8.62259C28.3272 8.73966 6.51272 8.73966 3.23706 8.62259C2.88859 6.74943 2.88859 4.23237 3.23706 2.3592C7.27937 2.12506 35.924 2.12506 39.6178 2.3592C39.8966 5.05187 39.7572 32.2127 39.6178 34.7298C37.8754 35.081 33.4149 35.081 31.3241 34.7298Z" fill="#29BA6C"/>
<path fill-rule="evenodd" clip-rule="evenodd" d="M58.5558 47.7532C52.036 45.1795 48.6251 40.6196 47.5864 35.6683L53.5531 34.3623C54.1297 37.1108 56.0133 40.0672 60.7555 41.9392C65.6533 43.8726 73.6367 44.6397 86.1152 42.3956L87.1732 48.5343C74.1663 50.8734 64.9201 50.2655 58.5558 47.7532Z" fill="#29BA6C"/>
<path fill-rule="evenodd" clip-rule="evenodd" d="M8.65392e-05 44.3494C-0.00140136 44.3484 -0.00286728 44.3473 1.75278 41.7984C3.50843 39.2495 3.50701 39.2485 3.50561 39.2475L3.50291 39.2456L3.49788 39.242L3.48932 39.2359L3.47824 39.2282C3.4762 39.2268 3.47518 39.2261 3.47518 39.2261C3.47518 39.2261 3.47692 39.2273 3.48042 39.2296C3.49279 39.2378 3.52715 39.2602 3.5842 39.295C3.69824 39.3644 3.90335 39.4833 4.20529 39.6362C4.80863 39.9416 5.80209 40.3844 7.23236 40.8395C10.0896 41.7485 14.7178 42.7151 21.495 42.7151C28.2722 42.7151 32.9004 41.7485 35.7576 40.8395C37.1879 40.3844 38.1814 39.9416 38.7847 39.6362C39.0866 39.4833 39.2918 39.3644 39.4058 39.295C39.4628 39.2602 39.4972 39.2378 39.5096 39.2296C39.5128 39.2274 39.5146 39.2262 39.5148 39.2261C39.515 39.226 39.514 39.2266 39.5118 39.2282L39.5007 39.2359L39.4921 39.242L39.4871 39.2456L39.4844 39.2475C39.483 39.2485 39.4816 39.2495 41.2372 41.7984C42.9929 44.3473 42.9914 44.3484 42.9899 44.3494L42.9868 44.3516L42.9803 44.3563L42.9655 44.3668C42.9598 44.3708 42.9538 44.375 42.9473 44.3796C42.9417 44.3834 42.9358 44.3875 42.9296 44.3918C42.9028 44.4103 42.8703 44.4324 42.8319 44.4579C42.7552 44.5087 42.6552 44.5729 42.5311 44.6485C42.2831 44.7996 41.9394 44.9958 41.4944 45.221C40.6039 45.6718 39.3112 46.2373 37.5722 46.7906C34.0909 47.8982 28.848 48.9482 21.495 48.9482C14.142 48.9482 8.89908 47.8982 5.41776 46.7906C3.67875 46.2373 2.38607 45.6718 1.4956 45.221C1.05062 44.9958 0.706906 44.7996 0.458847 44.6485C0.334844 44.5729 0.234827 44.5087 0.158091 44.4579C0.119725 44.4324 0.087187 44.4103 0.0603879 44.3918C0.0469888 44.3826 0.0350252 44.3742 0.024486 44.3668L0.00974478 44.3563L0.00317307 44.3516L8.65392e-05 44.3494Z" fill="#29BA6C"/>
</svg>
