<svg width="304" height="227" viewBox="0 0 304 227" fill="none" xmlns="http://www.w3.org/2000/svg">
<g clip-path="url(#clip0_3302_167317)">
<rect width="304" height="227" rx="30" fill="#D5EADF"/>
<rect x="-84.1472" y="137.048" width="472.294" height="109.952" fill="#B8DCCD"/>
<path d="M151.75 157C166.524 157 178.5 155.097 178.5 152.75C178.5 150.403 166.524 148.5 151.75 148.5C136.976 148.5 125 150.403 125 152.75C125 155.097 136.976 157 151.75 157Z" fill="url(#paint0_linear_3302_167317)"/>
<g opacity="0.6">
<path d="M168.463 178.558C169.136 173.686 157.762 168.116 143.059 166.118C128.356 164.12 115.891 166.45 115.218 171.322C114.545 176.195 125.919 181.765 140.623 183.763C155.326 185.761 167.791 183.431 168.463 178.558Z" fill="url(#paint1_linear_3302_167317)" style="mix-blend-mode:multiply"/>
</g>
<path d="M143.583 146.218C143.583 146.218 151.393 150.373 150.148 159.888" stroke="url(#paint2_linear_3302_167317)" stroke-width="3.5" stroke-miterlimit="10"/>
<path d="M156.405 140.998C156.405 140.998 161.09 159.778 138.515 163.568" stroke="url(#paint3_linear_3302_167317)" stroke-width="3.5" stroke-miterlimit="10"/>
<path d="M178.5 153L171.285 172.453C170.706 174.022 169.573 177.554 169.413 177.934C167.476 182.471 161.579 184.5 151.913 184.5C142.246 184.5 136.644 182.576 134.412 177.934C134.223 177.539 133.084 174.097 132.54 172.633L125.5 153.665C129.644 155.204 139.64 156.283 151.313 156.283C164.6 156.283 175.714 154.884 178.5 153Z" fill="#EDF7F1"/>
<path d="M188.861 108.91C188.861 108.91 175.151 95.6398 158.328 105.879C141.504 116.119 144.878 138.836 154.532 141.462C160.25 143.014 172.218 138.898 175.464 130.563C178.01 124.031 183.671 108.958 188.861 108.914V108.91Z" fill="url(#paint4_linear_3302_167317)"/>
<path d="M180.172 110.211C180.172 110.211 163.287 107.682 158.655 135.361" stroke="#3B8E14" stroke-width="0.5" stroke-miterlimit="10" stroke-linecap="round"/>
<path d="M150.016 150.308C150.016 150.308 150.221 138.133 133.636 138.928C117.051 139.723 124.816 159.913 124.816 159.913C124.816 159.913 134.331 159.043 139.021 156.493C143.711 153.948 146.901 148.528 150.016 150.303V150.308Z" fill="url(#paint5_linear_3302_167317)"/>
<path d="M139.361 143.503C139.361 143.503 130.511 143.608 128.206 153.878" stroke="#C8EF89" stroke-width="0.4" stroke-miterlimit="10" stroke-linecap="round"/>
<mask id="mask0_3302_167317" style="mask-type:luminance" maskUnits="userSpaceOnUse" x="123" y="138" width="28" height="22">
<path d="M150.016 150.309C150.016 150.309 150.221 138.134 133.636 138.929C117.051 139.724 124.816 159.914 124.816 159.914C124.816 159.914 134.331 159.044 139.021 156.494C143.711 153.949 146.901 148.529 150.016 150.304V150.309Z" fill="white"/>
</mask>
<g mask="url(#mask0_3302_167317)">
<path d="M130.96 138.159C130.96 138.159 149.35 153.279 151.89 152.554C154.43 151.829 151.525 136.254 139.175 133.894C126.825 131.534 130.955 138.164 130.955 138.164L130.96 138.159Z" fill="url(#paint6_linear_3302_167317)"/>
</g>
<path d="M179.705 157.118C179.705 157.118 186.45 137.428 163.425 142.163C163.425 142.163 154.91 143.958 156.985 151.583C159.06 159.208 179.71 157.118 179.71 157.118H179.705Z" fill="url(#paint7_linear_3302_167317)"/>
<mask id="mask1_3302_167317" style="mask-type:luminance" maskUnits="userSpaceOnUse" x="156" y="141" width="25" height="17">
<path d="M179.705 157.118C179.705 157.118 186.45 137.428 163.425 142.163C163.425 142.163 154.91 143.958 156.985 151.583C159.06 159.208 179.71 157.118 179.71 157.118H179.705Z" fill="white"/>
</mask>
<g mask="url(#mask1_3302_167317)">
<path d="M174.735 140.838C174.735 140.838 159.205 147.468 156.575 152.823C153.945 158.178 150.125 143.423 158.48 140.178C166.835 136.933 174.735 140.838 174.735 140.838Z" fill="url(#paint8_linear_3302_167317)"/>
</g>
<path d="M170.64 100.823C169.485 99.0033 168.225 97.4033 166.88 95.9933C165.435 98.6583 163.135 99.8933 163.135 99.8933C164.6 97.1683 162.59 93.6383 160.36 90.9083C144.335 81.7633 123 89.6833 123 89.6833C123 89.6833 125.165 92.0033 124.23 105.228C127.655 105.398 131.88 106.153 135 108.508C135 108.508 129.765 107.068 124.055 107.583C123.515 115.518 124.7 123.653 129.435 130.268C132.43 134.453 136.66 137.598 141.42 139.498C144.44 140.703 147.6 141.668 150.84 142.048C153.915 142.408 156.58 142.048 159.5 141.043C160.13 140.828 160.75 140.593 161.365 140.333C165.945 138.423 170.115 135.358 172.68 131.048C178.105 121.933 176.085 109.428 170.635 100.828L170.64 100.823Z" fill="url(#paint9_linear_3302_167317)"/>
<path d="M163.425 144.554C163.425 144.554 173.415 143.539 176.31 152.734" stroke="#C8EF89" stroke-width="0.4" stroke-miterlimit="10" stroke-linecap="round"/>
<path d="M156.247 122.228C156.247 122.228 160.814 127.432 160.347 135.149" stroke="#C8EF89" stroke-width="0.45" stroke-miterlimit="10" stroke-linecap="round"/>
<path d="M130.684 92.6436C130.684 92.6436 141.324 92.5786 146.679 101.824" stroke="#C8EF89" stroke-width="0.45" stroke-miterlimit="10" stroke-linecap="round"/>
<path d="M144.335 121.51L144.25 120.515C144.31 120.51 150.46 119.925 152.89 115.685L153.755 116.185C151.06 120.885 144.605 121.49 144.33 121.515L144.335 121.51Z" fill="black"/>
<path d="M158.915 120.755C155.71 120.755 151.925 118.185 151.74 118.06L152.305 117.235C152.35 117.27 157.065 120.465 159.985 119.615L160.265 120.575C159.835 120.7 159.38 120.755 158.915 120.755Z" fill="black"/>
<path d="M141.188 111L141 110.172C141.066 110.163 147.812 109.07 150.061 104.5L151 104.82C148.538 109.819 141.482 110.954 141.183 111H141.188Z" fill="black"/>
<path d="M162.836 111C162.566 110.954 156.216 109.819 154 104.82L154.845 104.5C156.869 109.07 162.941 110.163 163 110.172L162.831 111H162.836Z" fill="black"/>
<path d="M148.24 111.27C148.31 111.655 148.615 111.945 149 111.99H149.005C149.765 112.085 150.055 113.04 149.47 113.54H149.465C149.17 113.795 149.075 114.205 149.225 114.56C149.525 115.275 148.84 116 148.115 115.74H148.11C147.745 115.61 147.345 115.73 147.11 116.035C146.645 116.655 145.675 116.425 145.535 115.67C145.465 115.285 145.16 114.995 144.775 114.95H144.77C144.01 114.855 143.72 113.9 144.305 113.4H144.31C144.605 113.145 144.7 112.735 144.55 112.38C144.25 111.665 144.935 110.94 145.66 111.2H145.665C146.03 111.33 146.43 111.21 146.665 110.905C147.13 110.285 148.1 110.515 148.24 111.27Z" fill="black"/>
<path d="M159.135 111.27C159.205 111.655 159.51 111.945 159.895 111.99H159.9C160.66 112.085 160.95 113.04 160.365 113.54H160.36C160.065 113.795 159.97 114.205 160.12 114.56C160.42 115.275 159.735 116 159.01 115.74H159.005C158.64 115.61 158.24 115.73 158.005 116.035C157.54 116.655 156.57 116.425 156.43 115.67C156.36 115.285 156.055 114.995 155.67 114.95H155.665C154.905 114.855 154.615 113.9 155.2 113.4H155.205C155.5 113.145 155.595 112.735 155.445 112.38C155.145 111.665 155.83 110.94 156.555 111.2H156.56C156.925 111.33 157.325 111.21 157.56 110.905C158.025 110.285 158.995 110.515 159.135 111.27Z" fill="black"/>
<path d="M146.14 113.635C146.676 113.635 147.11 113.201 147.11 112.665C147.11 112.129 146.676 111.695 146.14 111.695C145.604 111.695 145.17 112.129 145.17 112.665C145.17 113.201 145.604 113.635 146.14 113.635Z" fill="white"/>
<path d="M147.535 115.08C147.875 115.08 148.15 114.805 148.15 114.465C148.15 114.125 147.875 113.85 147.535 113.85C147.195 113.85 146.92 114.125 146.92 114.465C146.92 114.805 147.195 115.08 147.535 115.08Z" fill="white"/>
<path d="M158.64 115.08C158.98 115.08 159.255 114.805 159.255 114.465C159.255 114.125 158.98 113.85 158.64 113.85C158.3 113.85 158.025 114.125 158.025 114.465C158.025 114.805 158.3 115.08 158.64 115.08Z" fill="white"/>
<path d="M157.055 113.635C157.591 113.635 158.025 113.201 158.025 112.665C158.025 112.129 157.591 111.695 157.055 111.695C156.519 111.695 156.085 112.129 156.085 112.665C156.085 113.201 156.519 113.635 157.055 113.635Z" fill="white"/>
<g filter="url(#filter0_d_3302_167317)">
<rect x="127" y="25" width="91.3306" height="26.2407" rx="13.1203" fill="white" shape-rendering="crispEdges"/>
<path d="M138.291 34.7089H138.882C140.718 34.7089 141.636 34.9056 141.636 35.2991C141.695 35.3909 141.724 35.5286 141.724 35.7121C141.737 36.9449 141.124 38.2563 139.885 39.6464C139.727 39.6726 139.587 39.6726 139.462 39.6464C139.147 39.548 139.016 39.3021 139.069 38.9087C140.059 37.6104 140.554 36.6006 140.554 35.8794C138.823 35.8794 137.957 35.6859 137.957 35.2991V35.1318C137.996 34.8827 138.108 34.7417 138.291 34.7089ZM143.927 33.7352H144.085C144.445 33.7352 144.626 33.9647 144.626 34.4237L144.685 36.1646L145.452 36.1941C145.963 36.1941 146.219 36.4006 146.219 36.8137C146.147 37.0695 145.97 37.1973 145.688 37.1973L144.685 37.1678C144.698 38.5776 144.704 39.4661 144.704 39.8333V40.0595C144.704 40.525 144.524 40.7578 144.163 40.7578H144.006C143.901 40.7316 143.799 40.6037 143.701 40.3742C143.649 38.1252 143.622 36.5023 143.622 35.5056V34.2663C143.622 33.9909 143.724 33.8139 143.927 33.7352ZM147.665 34.7581H149.622C150.035 34.7581 150.255 35.004 150.281 35.4958C150.281 35.6728 150.088 36.1875 149.701 37.04C150.789 37.7153 151.416 38.1809 151.58 38.4366V38.7612C151.58 38.8464 151.471 38.9546 151.255 39.0858H151.098C150.966 39.0858 150.34 38.7055 149.219 37.9448H149.13C148.731 38.7579 148.35 39.1644 147.99 39.1644C147.74 39.0595 147.603 38.9513 147.576 38.8399V38.6825C147.576 38.5448 148.042 37.7252 148.973 36.2236L149.13 35.8203H147.822C147.403 35.8203 147.131 35.6826 147.006 35.4072V35.1614C147.15 34.8925 147.37 34.7581 147.665 34.7581ZM153.006 33.7057C153.189 33.6598 153.35 33.6696 153.488 33.7352C153.901 33.7352 154.019 35.8531 153.842 40.089C153.842 40.2988 153.714 40.4562 153.458 40.5611H153.301C152.94 40.5611 152.76 40.3513 152.76 39.9316C152.825 36.8039 152.812 34.8958 152.72 34.2073C152.72 33.8926 152.816 33.7254 153.006 33.7057ZM157.404 33.8729C157.6 33.9647 157.699 34.1057 157.699 34.2958L157.6 34.6106C157.568 34.7548 157.4 34.8433 157.099 34.8761L155.476 34.3548C155.201 34.2696 155.053 34.1122 155.033 33.8827L155.122 33.5778C155.161 33.4401 155.296 33.368 155.525 33.3614L155.909 33.4795C156.427 33.6303 156.925 33.7614 157.404 33.8729ZM155.368 35.1909H157.522C157.935 35.1909 158.155 35.4368 158.181 35.9285C158.181 36.1056 157.925 36.5678 157.414 37.3154C158.364 37.9645 158.922 38.4169 159.086 38.6727L159.115 38.9186C159.095 39.0563 158.977 39.1907 158.761 39.3218H158.604C158.473 39.3218 157.915 38.9087 156.932 38.0825L156.823 37.9842C156.01 38.8891 155.469 39.3284 155.201 39.3021C154.958 39.2825 154.801 39.1087 154.728 38.7809V38.6235C154.728 38.4858 155.381 37.7907 156.686 36.5383L156.833 36.2531H155.525C155.106 36.2531 154.833 36.1154 154.709 35.84V35.5941C154.853 35.3253 155.073 35.1909 155.368 35.1909ZM160.65 33.7057C160.833 33.6598 160.994 33.6696 161.131 33.7352C161.545 33.7352 161.663 35.8531 161.486 40.089C161.486 40.2988 161.358 40.4562 161.102 40.5611H160.945C160.584 40.5611 160.404 40.3513 160.404 39.9316C160.469 36.8039 160.456 34.8958 160.364 34.2073C160.364 33.8926 160.459 33.7254 160.65 33.7057ZM162.693 34.7089H163.283C165.119 34.7089 166.037 34.9056 166.037 35.2991C166.096 35.3909 166.125 35.5286 166.125 35.7121C166.138 36.9449 165.525 38.2563 164.286 39.6464C164.129 39.6726 163.988 39.6726 163.863 39.6464C163.548 39.548 163.417 39.3021 163.47 38.9087C164.46 37.6104 164.955 36.6006 164.955 35.8794C163.224 35.8794 162.358 35.6859 162.358 35.2991V35.1318C162.398 34.8827 162.509 34.7417 162.693 34.7089ZM168.545 33.7057C168.728 33.6598 168.889 33.6696 169.027 33.7352C169.44 33.7352 169.558 35.8531 169.381 40.089C169.381 40.2988 169.253 40.4562 168.997 40.5611H168.84C168.479 40.5611 168.299 40.3513 168.299 39.9316C168.365 36.8039 168.351 34.8958 168.26 34.2073C168.26 33.8926 168.355 33.7254 168.545 33.7057Z" fill="#29BA6C"/>
<path d="M170.987 34.7089H171.577C173.413 34.7089 174.331 34.9056 174.331 35.2991C174.39 35.3909 174.42 35.5286 174.42 35.7121C174.433 36.9449 173.82 38.2563 172.581 39.6464C172.423 39.6726 172.282 39.6726 172.158 39.6464C171.843 39.548 171.712 39.3021 171.764 38.9087C172.754 37.6104 173.249 36.6006 173.249 35.8794C171.518 35.8794 170.653 35.6859 170.653 35.2991V35.1318C170.692 34.8827 170.804 34.7417 170.987 34.7089ZM176.623 33.7352H176.78C177.141 33.7352 177.321 33.9647 177.321 34.4237L177.38 36.1646L178.148 36.1941C178.659 36.1941 178.915 36.4006 178.915 36.8137C178.843 37.0695 178.666 37.1973 178.384 37.1973L177.38 37.1678C177.393 38.5776 177.4 39.4661 177.4 39.8333V40.0595C177.4 40.525 177.22 40.7578 176.859 40.7578H176.702C176.597 40.7316 176.495 40.6037 176.397 40.3742C176.344 38.1252 176.318 36.5023 176.318 35.5056V34.2663C176.318 33.9909 176.42 33.8139 176.623 33.7352ZM182.7 33.686C183.618 33.745 184.33 33.7745 184.835 33.7745C185.274 33.7745 185.795 33.745 186.399 33.686C186.667 33.7647 186.802 33.9581 186.802 34.2663V34.4237C186.802 34.6138 186.5 34.7515 185.897 34.8368V36.676C185.917 36.7875 185.972 36.8432 186.064 36.8432H186.89C187.087 36.9416 187.222 37.0695 187.294 37.2268C187.294 37.5547 187.077 37.7448 186.644 37.7973H182.868C182.317 37.7973 182.041 37.6071 182.041 37.2268C182.041 36.9842 182.399 36.8269 183.114 36.7547V34.7581H182.868C182.428 34.7188 182.209 34.5253 182.209 34.1778C182.209 34.0139 182.373 33.8499 182.7 33.686ZM184.176 34.8368V36.8432H184.668C184.779 36.8432 184.835 36.7875 184.835 36.676V35.004C184.835 34.8925 184.779 34.8368 184.668 34.8368H184.176ZM188.189 33.2139C188.385 33.168 188.556 33.1811 188.7 33.2532C189.133 33.2532 189.29 34.7647 189.172 37.7875C189.172 38.0038 189.038 38.1678 188.769 38.2792H188.602C188.221 38.2792 188.031 38.0596 188.031 37.6203C188.031 35.6335 187.985 34.3417 187.894 33.745C187.894 33.4172 187.992 33.2401 188.189 33.2139ZM187.54 38.6137C188.005 38.6137 188.238 38.9776 188.238 39.7054V40.2759C188.277 40.7218 187.707 40.9775 186.526 41.043C185.858 41.0955 185.34 41.125 184.972 41.1316V41.4463L185.405 41.525H185.759C186.546 41.525 187.258 41.4988 187.894 41.4463C188.176 41.4463 188.372 41.6037 188.484 41.9184C188.451 42.2594 188.294 42.4528 188.012 42.4987L185.248 42.5086C184.317 42.5282 183.851 42.2659 183.851 41.7217V41.0922C183.851 40.4562 184.123 40.1382 184.668 40.1382C185.808 40.1316 186.654 40.0824 187.205 39.9906V39.5775C186.071 39.6169 185.156 39.63 184.461 39.6169C184.133 39.63 183.959 39.5153 183.94 39.2726V39.0464C183.959 38.7448 184.241 38.6005 184.786 38.6137C185.815 38.594 186.733 38.594 187.54 38.6137ZM194.546 33.1942C195.903 33.4696 196.601 34.2729 196.641 35.604V35.7023C196.496 37.0727 195.706 37.8006 194.27 37.8858C192.926 37.8399 192.146 37.3186 191.929 36.322C191.91 36.2105 191.9 36.1252 191.9 36.0662C191.841 34.9384 192.1 34.1647 192.677 33.745C193.254 33.3254 193.877 33.1418 194.546 33.1942ZM192.942 35.4859C192.955 36.3056 193.306 36.7482 193.995 36.8137H194.27C195.116 36.7482 195.546 36.3777 195.559 35.7023V35.6138C195.552 34.8663 195.123 34.4401 194.27 34.3352C193.457 34.3548 193.014 34.7384 192.942 35.4859ZM195.224 38.1907C195.336 38.1711 195.427 38.1809 195.5 38.2202C195.749 38.2333 195.87 38.4989 195.864 39.0169L195.814 40.1382C195.834 40.2037 195.886 40.2365 195.972 40.2365H197.398C197.844 40.2496 198.05 40.4234 198.018 40.7578C198.05 40.9808 197.952 41.148 197.722 41.2594C197.132 41.2594 196.706 41.2594 196.444 41.2594H196.296C195.155 41.2594 193.287 41.2594 190.69 41.2594C190.395 41.2201 190.274 41.0299 190.326 40.689V40.6103C190.405 40.3611 190.674 40.2365 191.133 40.2365H192.392H192.588C192.595 39.371 192.598 38.8432 192.598 38.653C192.637 38.3317 192.847 38.1743 193.228 38.1809C193.582 38.2399 193.729 38.8432 193.67 39.9906L193.68 40.2365H194.644L194.791 40.2562L194.821 38.6235C194.841 38.4005 194.975 38.2563 195.224 38.1907ZM201.589 35.5154C201.471 35.7646 201.314 35.8794 201.117 35.8597C200.71 35.8335 200.54 35.3679 200.605 34.463L200.615 34.3155C200.655 33.8106 200.848 33.5713 201.196 33.5975C201.55 33.6237 201.681 34.263 201.589 35.5154ZM199.337 34.9155H202.809C203.176 34.9155 203.359 35.1023 203.359 35.4761V35.4564C203.228 35.7253 203.015 35.8597 202.72 35.8597H199.415C199.127 35.8597 198.914 35.7253 198.776 35.4564V35.2302C198.868 35.0204 199.055 34.9155 199.337 34.9155ZM201.137 36.1056H201.225C201.933 36.0334 202.494 36.5219 202.907 37.5711V37.9547C202.782 38.8792 202.251 39.3415 201.314 39.3415C199.963 39.3415 199.287 38.853 199.287 37.876V37.6399C199.287 36.7547 199.904 36.2433 201.137 36.1056ZM200.379 37.4137C200.274 37.5973 200.274 37.8039 200.379 38.0334C200.491 38.2694 200.727 38.3874 201.087 38.3874L201.422 38.4169C201.645 38.3317 201.802 38.1842 201.894 37.9743V37.6793C201.894 37.358 201.691 37.1219 201.284 36.9711H201.087C200.733 37.0301 200.497 37.1777 200.379 37.4137ZM206.3 33.4991C206.654 33.4991 206.831 34.5942 206.831 36.7842V39.971C206.831 40.4431 206.654 40.6791 206.3 40.6791C205.999 40.6791 205.848 40.5152 205.848 40.1874V37.2072H205.622C205.49 37.2072 205.271 37.2301 204.963 37.276V39.7644C204.963 40.0201 204.838 40.207 204.589 40.325H204.284C204.179 40.325 204.084 40.171 203.999 39.8628C203.992 39.4235 203.989 39.1546 203.989 39.0563L203.91 34.2073C204.009 33.9909 204.11 33.8729 204.215 33.8532C204.327 33.8139 204.451 33.8139 204.589 33.8532C204.792 33.9122 204.894 34.1221 204.894 34.4827V36.322C204.907 36.3482 204.956 36.3613 205.041 36.3613C205.363 36.3154 205.608 36.2925 205.779 36.2925L205.848 36.2826C205.848 36.1121 205.825 35.3253 205.779 33.9221C205.799 33.6401 205.972 33.4991 206.3 33.4991Z" fill="#1B1D1F"/>
</g>
<g filter="url(#filter1_d_3302_167317)">
<rect x="190.736" y="73" width="76.0763" height="26.2407" rx="13.1203" fill="white" shape-rendering="crispEdges"/>
<path d="M204.786 81.1155C204.655 81.3713 204.485 81.4893 204.275 81.4696C203.849 81.4303 203.678 81.1319 203.763 80.5746L203.783 80.4172C203.829 79.8927 204.035 79.6468 204.403 79.6796C204.776 79.7123 204.904 80.191 204.786 81.1155ZM203.065 80.6828H205.524C205.898 80.6828 206.085 80.8664 206.085 81.2336V81.3123C205.947 81.5811 205.734 81.7155 205.445 81.7155H203.144C202.855 81.7155 202.642 81.5811 202.504 81.3123V80.9975C202.59 80.7877 202.777 80.6828 203.065 80.6828ZM204.491 81.8729H204.58C205.301 81.8729 205.868 82.368 206.281 83.3581V83.7417C206.15 84.6793 205.612 85.1481 204.668 85.1481C203.304 85.1481 202.622 84.6531 202.622 83.663V83.4269C202.622 82.5286 203.245 82.0106 204.491 81.8729ZM203.783 83.2794V83.8203C203.881 84.0302 204.088 84.1351 204.403 84.1351H204.855C204.94 84.1351 205.029 84.0564 205.121 83.899V83.5056C205.121 83.2236 204.94 83.0171 204.58 82.886H204.403C203.99 83.0827 203.783 83.2138 203.783 83.2794ZM207.747 81.6762H207.894C208.242 81.6762 208.416 81.8958 208.416 82.3352V83.7515H209.301C209.793 83.7515 210.038 83.9482 210.038 84.3416C209.973 84.5842 209.802 84.7055 209.527 84.7055H208.416C208.461 85.5252 208.484 85.8498 208.484 85.6793V85.8957C208.484 86.3415 208.314 86.5645 207.973 86.5645H207.825C207.721 86.5448 207.622 86.4202 207.53 86.1907C207.478 85.076 207.452 84.04 207.452 83.0827V82.1876C207.452 81.9253 207.55 81.7549 207.747 81.6762ZM204.393 84.2039C204.773 84.2629 204.953 84.476 204.934 84.8432V85.0793V85.5809C205.583 85.5875 206.091 85.5908 206.458 85.5908C206.871 85.5842 207.124 85.6596 207.216 85.817C207.307 85.9678 207.334 86.1284 207.294 86.2989C207.242 86.4497 207.029 86.5514 206.655 86.6038C205.258 86.5973 204.216 86.594 203.527 86.594C203.626 86.594 203.399 86.594 202.849 86.594H202.219C201.957 86.5219 201.845 86.3546 201.885 86.0924C201.878 85.8235 202.059 85.6662 202.426 85.6203L203.881 85.6104C203.881 85.2498 203.881 84.9482 203.881 84.7055C203.934 84.3646 204.104 84.1974 204.393 84.2039ZM202.957 86.8989C203.147 86.8727 203.275 86.8727 203.34 86.8989C203.511 86.9054 203.635 87.0333 203.714 87.2825V87.9513C203.668 88.6201 203.763 88.948 203.999 88.9349C204.104 88.9939 204.265 89.0234 204.481 89.0234H207.658C208.032 89.0234 208.219 89.2135 208.219 89.5938C208.219 89.9086 207.97 90.066 207.471 90.066C206.324 90.1053 205.206 90.1184 204.117 90.1053C203.18 90.0594 202.698 89.8266 202.672 89.407C202.606 89.066 202.573 88.7808 202.573 88.5513V87.5677C202.573 87.2267 202.701 87.0038 202.957 86.8989ZM211.011 82.7089H211.602C213.438 82.7089 214.356 82.9056 214.356 83.2991C214.415 83.3909 214.444 83.5286 214.444 83.7121C214.457 84.9449 213.844 86.2563 212.605 87.6464C212.447 87.6726 212.306 87.6726 212.182 87.6464C211.867 87.548 211.736 87.3021 211.788 86.9087C212.779 85.6104 213.274 84.6006 213.274 83.8794C211.543 83.8794 210.677 83.6859 210.677 83.2991V83.1318C210.716 82.8827 210.828 82.7417 211.011 82.7089ZM216.864 81.7057C217.047 81.6598 217.208 81.6696 217.346 81.7352C217.759 81.7352 217.877 83.8531 217.7 88.089C217.7 88.2988 217.572 88.4562 217.316 88.5611H217.159C216.798 88.5611 216.618 88.3513 216.618 87.9316C216.683 84.8039 216.67 82.8958 216.578 82.2073C216.578 81.8926 216.673 81.7254 216.864 81.7057Z" fill="#7594B3"/>
<path d="M219.306 82.7089H219.896C221.732 82.7089 222.65 82.9056 222.65 83.2991C222.709 83.3909 222.739 83.5286 222.739 83.7121C222.752 84.9449 222.139 86.2563 220.899 87.6464C220.742 87.6726 220.601 87.6726 220.476 87.6464C220.162 87.548 220.03 87.3021 220.083 86.9087C221.073 85.6104 221.568 84.6006 221.568 83.8794C219.837 83.8794 218.972 83.6859 218.972 83.2991V83.1318C219.011 82.8827 219.122 82.7417 219.306 82.7089ZM224.942 81.7352H225.099C225.46 81.7352 225.64 81.9647 225.64 82.4237L225.699 84.1646L226.466 84.1941C226.978 84.1941 227.233 84.4006 227.233 84.8137C227.161 85.0695 226.984 85.1973 226.702 85.1973L225.699 85.1678C225.712 86.5776 225.719 87.4661 225.719 87.8333V88.0595C225.719 88.525 225.538 88.7578 225.178 88.7578H225.02C224.915 88.7316 224.814 88.6037 224.715 88.3742C224.663 86.1252 224.637 84.5023 224.637 83.5056V82.2663C224.637 81.9909 224.738 81.8139 224.942 81.7352ZM231.019 81.686C231.937 81.745 232.649 81.7745 233.153 81.7745C233.593 81.7745 234.114 81.745 234.717 81.686C234.986 81.7647 235.121 81.9581 235.121 82.2663V82.4237C235.121 82.6138 234.819 82.7515 234.216 82.8368V84.676C234.235 84.7875 234.291 84.8432 234.383 84.8432H235.209C235.406 84.9416 235.54 85.0695 235.612 85.2268C235.612 85.5547 235.396 85.7448 234.963 85.7973H231.186C230.636 85.7973 230.36 85.6071 230.36 85.2268C230.36 84.9842 230.717 84.8269 231.432 84.7547V82.7581H231.186C230.747 82.7188 230.527 82.5253 230.527 82.1778C230.527 82.0139 230.691 81.8499 231.019 81.686ZM232.494 82.8368V84.8432H232.986C233.098 84.8432 233.153 84.7875 233.153 84.676V83.004C233.153 82.8925 233.098 82.8368 232.986 82.8368H232.494ZM236.507 81.2139C236.704 81.168 236.875 81.1811 237.019 81.2532C237.452 81.2532 237.609 82.7647 237.491 85.7875C237.491 86.0038 237.357 86.1678 237.088 86.2792H236.92C236.54 86.2792 236.35 86.0596 236.35 85.6203C236.35 83.6335 236.304 82.3417 236.212 81.745C236.212 81.4172 236.311 81.2401 236.507 81.2139ZM235.858 86.6137C236.324 86.6137 236.557 86.9776 236.557 87.7054V88.2759C236.596 88.7218 236.025 88.9775 234.845 89.043C234.176 89.0955 233.658 89.125 233.291 89.1316V89.4463L233.724 89.525H234.078C234.865 89.525 235.576 89.4988 236.212 89.4463C236.494 89.4463 236.691 89.6037 236.802 89.9184C236.77 90.2594 236.612 90.4528 236.33 90.4987L233.567 90.5086C232.635 90.5282 232.17 90.2659 232.17 89.7217V89.0922C232.17 88.4562 232.442 88.1382 232.986 88.1382C234.127 88.1316 234.973 88.0824 235.524 87.9906V87.5775C234.389 87.6169 233.475 87.63 232.78 87.6169C232.452 87.63 232.278 87.5153 232.258 87.2726V87.0464C232.278 86.7448 232.56 86.6005 233.104 86.6137C234.134 86.594 235.052 86.594 235.858 86.6137ZM242.864 81.1942C244.222 81.4696 244.92 82.2729 244.959 83.604V83.7023C244.815 85.0727 244.025 85.8006 242.589 85.8858C241.245 85.8399 240.464 85.3186 240.248 84.322C240.228 84.2105 240.218 84.1252 240.218 84.0662C240.159 82.9384 240.418 82.1647 240.996 81.745C241.573 81.3254 242.195 81.1418 242.864 81.1942ZM241.261 83.4859C241.274 84.3056 241.625 84.7482 242.313 84.8137H242.589C243.435 84.7482 243.864 84.3777 243.877 83.7023V83.6138C243.871 82.8663 243.441 82.4401 242.589 82.3352C241.776 82.3548 241.333 82.7384 241.261 83.4859ZM243.543 86.1907C243.654 86.1711 243.746 86.1809 243.818 86.2202C244.067 86.2333 244.189 86.4989 244.182 87.0169L244.133 88.1382C244.153 88.2037 244.205 88.2365 244.29 88.2365H245.717C246.162 88.2496 246.369 88.4234 246.336 88.7578C246.369 88.9808 246.271 89.148 246.041 89.2594C245.451 89.2594 245.025 89.2594 244.763 89.2594H244.615C243.474 89.2594 241.605 89.2594 239.009 89.2594C238.714 89.2201 238.592 89.0299 238.645 88.689V88.6103C238.723 88.3611 238.992 88.2365 239.451 88.2365H240.71H240.907C240.914 87.371 240.917 86.8432 240.917 86.653C240.956 86.3317 241.166 86.1743 241.546 86.1809C241.9 86.2399 242.048 86.8432 241.989 87.9906L241.999 88.2365H242.963L243.11 88.2562L243.14 86.6235C243.159 86.4005 243.294 86.2563 243.543 86.1907ZM249.908 83.5154C249.79 83.7646 249.632 83.8794 249.436 83.8597C249.029 83.8335 248.859 83.3679 248.924 82.463L248.934 82.3155C248.973 81.8106 249.167 81.5713 249.514 81.5975C249.868 81.6237 250 82.263 249.908 83.5154ZM247.655 82.9155H251.127C251.495 82.9155 251.678 83.1023 251.678 83.4761V83.4564C251.547 83.7253 251.334 83.8597 251.039 83.8597H247.734C247.446 83.8597 247.232 83.7253 247.095 83.4564V83.2302C247.187 83.0204 247.373 82.9155 247.655 82.9155ZM249.455 84.1056H249.544C250.252 84.0334 250.813 84.5219 251.226 85.5711V85.9547C251.101 86.8792 250.57 87.3415 249.632 87.3415C248.282 87.3415 247.606 86.853 247.606 85.876V85.6399C247.606 84.7547 248.223 84.2433 249.455 84.1056ZM248.698 85.4137C248.593 85.5973 248.593 85.8039 248.698 86.0334C248.809 86.2694 249.045 86.3874 249.406 86.3874L249.741 86.4169C249.963 86.3317 250.121 86.1842 250.213 85.9743V85.6793C250.213 85.358 250.009 85.1219 249.603 84.9711H249.406C249.052 85.0301 248.816 85.1777 248.698 85.4137ZM254.619 81.4991C254.973 81.4991 255.15 82.5942 255.15 84.7842V87.971C255.15 88.4431 254.973 88.6791 254.619 88.6791C254.317 88.6791 254.167 88.5152 254.167 88.1874V85.2072H253.94C253.809 85.2072 253.59 85.2301 253.281 85.276V87.7644C253.281 88.0201 253.157 88.207 252.908 88.325H252.603C252.498 88.325 252.403 88.171 252.317 87.8628C252.311 87.4235 252.308 87.1546 252.308 87.0563L252.229 82.2073C252.327 81.9909 252.429 81.8729 252.534 81.8532C252.645 81.8139 252.77 81.8139 252.908 81.8532C253.111 81.9122 253.212 82.1221 253.212 82.4827V84.322C253.226 84.3482 253.275 84.3613 253.36 84.3613C253.681 84.3154 253.927 84.2925 254.098 84.2925L254.167 84.2826C254.167 84.1121 254.144 83.3253 254.098 81.9221C254.117 81.6401 254.291 81.4991 254.619 81.4991Z" fill="#1B1D1F"/>
</g>
<g filter="url(#filter2_d_3302_167317)">
<rect x="35" y="85" width="92.0763" height="26.2407" rx="13.1203" fill="white" shape-rendering="crispEdges"/>
<path d="M47.6514 93.9614C48.9104 94.0073 49.6087 94.4827 49.7464 95.3876V96.2236C49.7464 97.1481 49.1596 97.6793 47.9858 97.817C46.5367 97.817 45.8122 97.3416 45.8122 96.3908V95.8007C45.9564 94.5745 46.5695 93.9614 47.6514 93.9614ZM46.8154 96.3121V96.3908C46.8154 96.5482 47.0974 96.6859 47.6613 96.8039L48.2022 96.7842C48.6153 96.6924 48.8219 96.4203 48.8219 95.9679C48.8219 95.3974 48.4875 95.0925 47.8186 95.0532H47.6514C47.0941 95.0532 46.8154 95.4728 46.8154 96.3121ZM52.461 93.4303C52.7823 93.4303 52.943 93.9942 52.943 95.122V97.9645C52.943 98.2596 52.7823 98.4596 52.461 98.5645C52.0742 98.5448 51.8807 98.3251 51.8807 97.9055C51.9201 97.7088 51.9398 97.4694 51.9398 97.1875V97.2268H51.8611C51.3496 97.2465 50.9398 97.2367 50.6316 97.1973C50.33 97.0727 50.2251 96.8629 50.3169 96.5678C50.4611 96.3974 50.6316 96.3121 50.8283 96.3121C51.0972 96.2728 51.4676 96.2531 51.9398 96.2531V95.8105L51.9299 95.5253H51.7037L50.6906 95.5548C50.4415 95.5351 50.2841 95.4204 50.2185 95.2105V94.9843C50.3103 94.7286 50.5201 94.604 50.848 94.6106H51.4185H51.8611V93.9516C51.8611 93.5975 52.0611 93.4237 52.461 93.4303ZM49.7366 98.7022C51.0677 98.9054 51.7332 99.512 51.7332 100.522C51.7594 101.879 51.248 102.64 50.1988 102.804H49.4809C48.4448 102.738 47.8317 102.099 47.6416 100.886C47.7268 99.9677 48.0252 99.3579 48.5366 99.0563C49.0546 98.7546 49.4546 98.6366 49.7366 98.7022ZM48.7727 100.571V100.866C48.7727 101.391 49.1333 101.653 49.8546 101.653C50.3792 101.653 50.671 101.443 50.73 101.023C50.7759 100.781 50.7464 100.532 50.6415 100.276C50.471 99.948 50.2087 99.7841 49.8546 99.7841H49.5595C49.1005 99.8759 48.8383 100.138 48.7727 100.571ZM55.759 93.9614C57.018 94.0073 57.7163 94.4827 57.854 95.3876V96.2236C57.854 97.1481 57.2672 97.6793 56.0935 97.817C54.6443 97.817 53.9198 97.3416 53.9198 96.3908V95.8007C54.064 94.5745 54.6771 93.9614 55.759 93.9614ZM54.923 96.3121V96.3908C54.923 96.5482 55.205 96.6859 55.7689 96.8039L56.3098 96.7842C56.7229 96.6924 56.9295 96.4203 56.9295 95.9679C56.9295 95.3974 56.5951 95.0925 55.9262 95.0532H55.759C55.2017 95.0532 54.923 95.4728 54.923 96.3121ZM59.2704 93.4008L59.5556 93.3516C59.8048 93.3844 59.9392 93.5155 59.9588 93.745V94.5909H60.9424C61.2768 94.5909 61.4932 94.6991 61.5916 94.9155V95.181C61.5588 95.3515 61.385 95.4597 61.0703 95.5056L60.7654 95.5154L60.0965 95.4466V95.9974C60.1097 96.0826 60.1523 96.1252 60.2244 96.1252H61.5325C61.7424 96.1974 61.8506 96.3285 61.8571 96.5187C61.8571 96.8269 61.6375 96.9809 61.1981 96.9809H60.0965V97.9645C60.0965 98.2661 59.9425 98.4169 59.6343 98.4169C59.2343 98.4038 59.0343 98.2006 59.0343 97.8071V96.2433C59.0343 95.6072 58.9917 94.8335 58.9064 93.9221C58.9392 93.6467 59.0605 93.4729 59.2704 93.4008ZM57.8442 98.7022C59.1753 98.9054 59.8408 99.512 59.8408 100.522C59.867 101.879 59.3556 102.64 58.3065 102.804H57.5885C56.5524 102.738 55.9394 102.099 55.7492 100.886C55.8344 99.9677 56.1328 99.3579 56.6442 99.0563C57.1623 98.7546 57.5622 98.6366 57.8442 98.7022ZM56.8803 100.571V100.866C56.8803 101.391 57.2409 101.653 57.9622 101.653C58.4868 101.653 58.7786 101.443 58.8376 101.023C58.8835 100.781 58.854 100.532 58.7491 100.276C58.5786 99.948 58.3163 99.7841 57.9622 99.7841H57.6671C57.2082 99.8759 56.9459 100.138 56.8803 100.571ZM63.1609 93.4303H66.7312C67.0591 93.5745 67.223 93.7942 67.223 94.0893V94.168C67.2099 96.2531 67.0656 97.3022 66.7902 97.3154C66.6525 97.3744 66.4853 97.3776 66.2886 97.3252C66.0722 97.2268 65.9607 97.0531 65.9542 96.8039C66.1706 96.1875 66.2132 95.4269 66.082 94.522H63.0724C62.8363 94.5417 62.6756 94.4597 62.5904 94.2762C62.5379 94.0991 62.5379 93.9253 62.5904 93.7549C62.6756 93.5385 62.8658 93.4303 63.1609 93.4303ZM68.3147 93.6762H68.4623C68.8098 93.6762 68.9836 93.8958 68.9836 94.3352V95.7515H69.8688C70.3605 95.7515 70.6064 95.9482 70.6064 96.3416C70.5409 96.5842 70.3704 96.7055 70.095 96.7055H68.9836C69.0294 97.5252 69.0524 97.8498 69.0524 97.6793V97.8957C69.0524 98.3415 68.8819 98.5645 68.5409 98.5645H68.3934C68.2885 98.5448 68.1901 98.4202 68.0983 98.1907C68.0459 97.076 68.0197 96.04 68.0197 95.0827V94.1876C68.0197 93.9253 68.118 93.7549 68.3147 93.6762ZM64.9608 96.2039C65.3411 96.2629 65.5214 96.476 65.5017 96.8432V97.0793V97.5809C66.1509 97.5875 66.6591 97.5908 67.0263 97.5908C67.4394 97.5842 67.6918 97.6596 67.7836 97.817C67.8754 97.9678 67.9016 98.1284 67.8623 98.2989C67.8098 98.4497 67.5967 98.5514 67.223 98.6038C65.8263 98.5973 64.7837 98.594 64.0953 98.594C64.1936 98.594 63.9674 98.594 63.4166 98.594H62.7871C62.5248 98.5219 62.4134 98.3546 62.4527 98.0924C62.4462 97.8235 62.6265 97.6662 62.9937 97.6203L64.4493 97.6104C64.4493 97.2498 64.4493 96.9482 64.4493 96.7055C64.5018 96.3646 64.6723 96.1974 64.9608 96.2039ZM63.5248 98.8989C63.7149 98.8727 63.8428 98.8727 63.9084 98.8989C64.0789 98.9054 64.2034 99.0333 64.2821 99.2825V99.9513C64.2362 100.62 64.3313 100.948 64.5674 100.935C64.6723 100.994 64.8329 101.023 65.0493 101.023H68.2262C68.6 101.023 68.7868 101.214 68.7868 101.594C68.7868 101.909 68.5377 102.066 68.0393 102.066C66.8918 102.105 65.7739 102.118 64.6854 102.105C63.7477 102.059 63.2658 101.827 63.2396 101.407C63.174 101.066 63.1412 100.781 63.1412 100.551V99.5677C63.1412 99.2267 63.2691 99.0038 63.5248 98.8989ZM74.3963 94.4237C74.9208 94.4237 75.1766 95.0925 75.1635 96.4301V96.5777C75.1635 97.0695 74.5307 97.3154 73.2652 97.3154H72.8226C72.7242 97.3285 72.6751 97.3776 72.6751 97.4629V98.2989H74.5045L75.0258 98.2399C75.2421 98.2661 75.4126 98.3842 75.5372 98.594V98.7415C75.5372 99.089 75.3635 99.2628 75.0159 99.2628H72.6751C72.1046 99.2628 71.7833 99.0169 71.7112 98.5251V97.2367C71.7112 96.6465 72.157 96.3515 73.0488 96.3515H73.8357L74.1996 96.2728L74.1799 95.3876L72.0849 95.4171C71.7243 95.4171 71.5505 95.2171 71.5636 94.8171C71.5636 94.5089 72.4587 94.3778 74.2488 94.4237H74.3963ZM77.5732 93.7057C77.7568 93.6598 77.9174 93.6696 78.0551 93.7352C78.4682 93.7352 78.5863 95.8531 78.4092 100.089C78.4092 100.299 78.2813 100.456 78.0256 100.561H77.8683C77.5076 100.561 77.3273 100.351 77.3273 99.9316C77.3929 96.8039 77.3798 94.8958 77.288 94.2073C77.288 93.8926 77.383 93.7254 77.5732 93.7057Z" fill="#FF7373"/>
<path d="M79.9171 94.7089H80.5073C82.3432 94.7089 83.2612 94.9056 83.2612 95.2991C83.3203 95.3909 83.3498 95.5286 83.3498 95.7121C83.3629 96.9449 82.7498 98.2563 81.5105 99.6464C81.3531 99.6726 81.2122 99.6726 81.0876 99.6464C80.7728 99.548 80.6417 99.3021 80.6941 98.9087C81.6843 97.6104 82.1793 96.6006 82.1793 95.8794C80.4483 95.8794 79.5827 95.6859 79.5827 95.2991V95.1318C79.6221 94.8827 79.7335 94.7417 79.9171 94.7089ZM85.5529 93.7352H85.7103C86.0709 93.7352 86.2513 93.9647 86.2513 94.4237L86.3103 96.1646L87.0775 96.1941C87.5889 96.1941 87.8446 96.4006 87.8446 96.8137C87.7725 97.0695 87.5955 97.1973 87.3135 97.1973L86.3103 97.1678C86.3234 98.5776 86.3299 99.4661 86.3299 99.8333V100.059C86.3299 100.525 86.1496 100.758 85.789 100.758H85.6316C85.5267 100.732 85.4251 100.604 85.3267 100.374C85.2743 98.1252 85.248 96.5023 85.248 95.5056V94.2663C85.248 93.9909 85.3497 93.8139 85.5529 93.7352ZM91.6303 93.686C92.5483 93.745 93.2598 93.7745 93.7647 93.7745C94.204 93.7745 94.7253 93.745 95.3285 93.686C95.5974 93.7647 95.7318 93.9581 95.7318 94.2663V94.4237C95.7318 94.6138 95.4302 94.7515 94.8269 94.8368V96.676C94.8466 96.7875 94.9023 96.8432 94.9941 96.8432H95.8203C96.017 96.9416 96.1514 97.0695 96.2236 97.2268C96.2236 97.5547 96.0072 97.7448 95.5744 97.7973H91.7975C91.2468 97.7973 90.9714 97.6071 90.9714 97.2268C90.9714 96.9842 91.3287 96.8269 92.0434 96.7547V94.7581H91.7975C91.3582 94.7188 91.1386 94.5253 91.1386 94.1778C91.1386 94.0139 91.3025 93.8499 91.6303 93.686ZM93.1057 94.8368V96.8432H93.5975C93.7089 96.8432 93.7647 96.7875 93.7647 96.676V95.004C93.7647 94.8925 93.7089 94.8368 93.5975 94.8368H93.1057ZM97.1186 93.2139C97.3153 93.168 97.4858 93.1811 97.6301 93.2532C98.0628 93.2532 98.2202 94.7647 98.1022 97.7875C98.1022 98.0038 97.9677 98.1678 97.6989 98.2792H97.5317C97.1514 98.2792 96.9612 98.0596 96.9612 97.6203C96.9612 95.6335 96.9153 94.3417 96.8235 93.745C96.8235 93.4172 96.9219 93.2401 97.1186 93.2139ZM96.4695 98.6137C96.935 98.6137 97.1678 98.9776 97.1678 99.7054V100.276C97.2071 100.722 96.6367 100.977 95.4564 101.043C94.7876 101.096 94.2696 101.125 93.9024 101.132V101.446L94.3351 101.525H94.6892C95.4761 101.525 96.1875 101.499 96.8235 101.446C97.1055 101.446 97.3022 101.604 97.4137 101.918C97.3809 102.259 97.2235 102.453 96.9416 102.499L94.1778 102.509C93.2467 102.528 92.7811 102.266 92.7811 101.722V101.092C92.7811 100.456 93.0532 100.138 93.5975 100.138C94.7384 100.132 95.5843 100.082 96.135 99.9906V99.5775C95.0007 99.6169 94.086 99.63 93.3909 99.6169C93.0631 99.63 92.8893 99.5153 92.8696 99.2726V99.0464C92.8893 98.7448 93.1713 98.6005 93.7155 98.6137C94.7449 98.594 95.6629 98.594 96.4695 98.6137ZM103.475 93.1942C104.833 93.4696 105.531 94.2729 105.57 95.604V95.7023C105.426 97.0727 104.636 97.8006 103.2 97.8858C101.856 97.8399 101.076 97.3186 100.859 96.322C100.84 96.2105 100.83 96.1252 100.83 96.0662C100.771 94.9384 101.03 94.1647 101.607 93.745C102.184 93.3254 102.807 93.1418 103.475 93.1942ZM101.872 95.4859C101.885 96.3056 102.236 96.7482 102.925 96.8137H103.2C104.046 96.7482 104.475 96.3777 104.489 95.7023V95.6138C104.482 94.8663 104.053 94.4401 103.2 94.3352C102.387 94.3548 101.944 94.7384 101.872 95.4859ZM104.154 98.1907C104.266 98.1711 104.357 98.1809 104.43 98.2202C104.679 98.2333 104.8 98.4989 104.793 99.0169L104.744 100.138C104.764 100.204 104.816 100.237 104.902 100.237H106.328C106.774 100.25 106.98 100.423 106.947 100.758C106.98 100.981 106.882 101.148 106.652 101.259C106.062 101.259 105.636 101.259 105.374 101.259H105.226C104.085 101.259 102.217 101.259 99.6199 101.259C99.3249 101.22 99.2036 101.03 99.256 100.689V100.61C99.3347 100.361 99.6035 100.237 100.063 100.237H101.321H101.518C101.525 99.371 101.528 98.8432 101.528 98.653C101.567 98.3317 101.777 98.1743 102.158 98.1809C102.512 98.2399 102.659 98.8432 102.6 99.9906L102.61 100.237H103.574L103.721 100.256L103.751 98.6235C103.771 98.4005 103.905 98.2563 104.154 98.1907ZM110.519 95.5154C110.401 95.7646 110.244 95.8794 110.047 95.8597C109.64 95.8335 109.47 95.3679 109.535 94.463L109.545 94.3155C109.585 93.8106 109.778 93.5713 110.126 93.5975C110.48 93.6237 110.611 94.263 110.519 95.5154ZM108.267 94.9155H111.739C112.106 94.9155 112.289 95.1023 112.289 95.4761V95.4564C112.158 95.7253 111.945 95.8597 111.65 95.8597H108.345C108.057 95.8597 107.844 95.7253 107.706 95.4564V95.2302C107.798 95.0204 107.985 94.9155 108.267 94.9155ZM110.066 96.1056H110.155C110.863 96.0334 111.424 96.5219 111.837 97.5711V97.9547C111.712 98.8792 111.181 99.3415 110.244 99.3415C108.893 99.3415 108.217 98.853 108.217 97.876V97.6399C108.217 96.7547 108.834 96.2433 110.066 96.1056ZM109.309 97.4137C109.204 97.5973 109.204 97.8039 109.309 98.0334C109.421 98.2694 109.657 98.3874 110.017 98.3874L110.352 98.4169C110.575 98.3317 110.732 98.1842 110.824 97.9743V97.6793C110.824 97.358 110.621 97.1219 110.214 96.9711H110.017C109.663 97.0301 109.427 97.1777 109.309 97.4137ZM115.23 93.4991C115.584 93.4991 115.761 94.5942 115.761 96.7842V99.971C115.761 100.443 115.584 100.679 115.23 100.679C114.929 100.679 114.778 100.515 114.778 100.187V97.2072H114.552C114.42 97.2072 114.201 97.2301 113.893 97.276V99.7644C113.893 100.02 113.768 100.207 113.519 100.325H113.214C113.109 100.325 113.014 100.171 112.929 99.8628C112.922 99.4235 112.919 99.1546 112.919 99.0563L112.84 94.2073C112.938 93.9909 113.04 93.8729 113.145 93.8532C113.257 93.8139 113.381 93.8139 113.519 93.8532C113.722 93.9122 113.824 94.1221 113.824 94.4827V96.322C113.837 96.3482 113.886 96.3613 113.971 96.3613C114.293 96.3154 114.538 96.2925 114.709 96.2925L114.778 96.2826C114.778 96.1121 114.755 95.3253 114.709 93.9221C114.729 93.6401 114.902 93.4991 115.23 93.4991Z" fill="#1B1D1F"/>
</g>
</g>
<defs>
<filter id="filter0_d_3302_167317" x="119.975" y="20.7847" width="105.381" height="40.2916" filterUnits="userSpaceOnUse" color-interpolation-filters="sRGB">
<feFlood flood-opacity="0" result="BackgroundImageFix"/>
<feColorMatrix in="SourceAlpha" type="matrix" values="0 0 0 0 0 0 0 0 0 0 0 0 0 0 0 0 0 0 127 0" result="hardAlpha"/>
<feOffset dy="2.81017"/>
<feGaussianBlur stdDeviation="3.51272"/>
<feComposite in2="hardAlpha" operator="out"/>
<feColorMatrix type="matrix" values="0 0 0 0 0 0 0 0 0 0 0 0 0 0 0 0 0 0 0.1 0"/>
<feBlend mode="normal" in2="BackgroundImageFix" result="effect1_dropShadow_3302_167317"/>
<feBlend mode="normal" in="SourceGraphic" in2="effect1_dropShadow_3302_167317" result="shape"/>
</filter>
<filter id="filter1_d_3302_167317" x="183.71" y="68.7847" width="90.1273" height="40.2916" filterUnits="userSpaceOnUse" color-interpolation-filters="sRGB">
<feFlood flood-opacity="0" result="BackgroundImageFix"/>
<feColorMatrix in="SourceAlpha" type="matrix" values="0 0 0 0 0 0 0 0 0 0 0 0 0 0 0 0 0 0 127 0" result="hardAlpha"/>
<feOffset dy="2.81017"/>
<feGaussianBlur stdDeviation="3.51272"/>
<feComposite in2="hardAlpha" operator="out"/>
<feColorMatrix type="matrix" values="0 0 0 0 0 0 0 0 0 0 0 0 0 0 0 0 0 0 0.1 0"/>
<feBlend mode="normal" in2="BackgroundImageFix" result="effect1_dropShadow_3302_167317"/>
<feBlend mode="normal" in="SourceGraphic" in2="effect1_dropShadow_3302_167317" result="shape"/>
</filter>
<filter id="filter2_d_3302_167317" x="27.9746" y="80.7847" width="106.127" height="40.2916" filterUnits="userSpaceOnUse" color-interpolation-filters="sRGB">
<feFlood flood-opacity="0" result="BackgroundImageFix"/>
<feColorMatrix in="SourceAlpha" type="matrix" values="0 0 0 0 0 0 0 0 0 0 0 0 0 0 0 0 0 0 127 0" result="hardAlpha"/>
<feOffset dy="2.81017"/>
<feGaussianBlur stdDeviation="3.51272"/>
<feComposite in2="hardAlpha" operator="out"/>
<feColorMatrix type="matrix" values="0 0 0 0 0 0 0 0 0 0 0 0 0 0 0 0 0 0 0.1 0"/>
<feBlend mode="normal" in2="BackgroundImageFix" result="effect1_dropShadow_3302_167317"/>
<feBlend mode="normal" in="SourceGraphic" in2="effect1_dropShadow_3302_167317" result="shape"/>
</filter>
<linearGradient id="paint0_linear_3302_167317" x1="151.75" y1="148.5" x2="151.75" y2="157" gradientUnits="userSpaceOnUse">
<stop stop-color="#706547"/>
<stop offset="1" stop-color="#4E4632"/>
</linearGradient>
<linearGradient id="paint1_linear_3302_167317" x1="145.968" y1="196.813" x2="121.898" y2="164.956" gradientUnits="userSpaceOnUse">
<stop stop-color="#4B985F"/>
<stop offset="1" stop-color="#88B53A" stop-opacity="0"/>
</linearGradient>
<linearGradient id="paint2_linear_3302_167317" x1="146.933" y1="149.5" x2="146.933" y2="157" gradientUnits="userSpaceOnUse">
<stop stop-color="#268503"/>
<stop offset="1" stop-color="#43A51F"/>
</linearGradient>
<linearGradient id="paint3_linear_3302_167317" x1="147.661" y1="140.998" x2="147.661" y2="163.568" gradientUnits="userSpaceOnUse">
<stop stop-color="#2F9B07"/>
<stop offset="1" stop-color="#237505"/>
</linearGradient>
<linearGradient id="paint4_linear_3302_167317" x1="154.425" y1="123.002" x2="178.567" y2="120.249" gradientUnits="userSpaceOnUse">
<stop stop-color="#118404"/>
<stop offset="0.47" stop-color="#2F9B07"/>
<stop offset="0.9" stop-color="#3CAA18"/>
</linearGradient>
<linearGradient id="paint5_linear_3302_167317" x1="139.879" y1="143.557" x2="124.42" y2="163.321" gradientUnits="userSpaceOnUse">
<stop stop-color="#219A59"/>
<stop offset="0.69" stop-color="#7AB70F"/>
</linearGradient>
<linearGradient id="paint6_linear_3302_167317" x1="143.15" y1="141.419" x2="139.75" y2="145.619" gradientUnits="userSpaceOnUse">
<stop stop-color="#13490C"/>
<stop offset="0.93" stop-color="#2F9B07" stop-opacity="0"/>
</linearGradient>
<linearGradient id="paint7_linear_3302_167317" x1="163.445" y1="143.493" x2="179.18" y2="161.578" gradientUnits="userSpaceOnUse">
<stop stop-color="#219A59"/>
<stop offset="0.69" stop-color="#7AB70F"/>
</linearGradient>
<linearGradient id="paint8_linear_3302_167317" x1="160.625" y1="141.518" x2="164.875" y2="147.513" gradientUnits="userSpaceOnUse">
<stop offset="0.27" stop-color="#13490C"/>
<stop offset="0.76" stop-color="#2F9B07" stop-opacity="0"/>
</linearGradient>
<linearGradient id="paint9_linear_3302_167317" x1="126.181" y1="87.0086" x2="167.84" y2="136.552" gradientUnits="userSpaceOnUse">
<stop stop-color="#3CAA18"/>
<stop offset="0.6" stop-color="#7BCC12"/>
<stop offset="0.93" stop-color="#B0D81E"/>
</linearGradient>
<clipPath id="clip0_3302_167317">
<rect width="304" height="227" rx="30" fill="white"/>
</clipPath>
</defs>
</svg>
