<svg width="304" height="227" viewBox="0 0 304 227" fill="none" xmlns="http://www.w3.org/2000/svg">
<g clip-path="url(#clip0_3302_167285)">
<rect width="304" height="227" rx="30" fill="#D5EADF"/>
<g style="mix-blend-mode:multiply" filter="url(#filter0_f_3302_167285)">
<circle cx="2.03223" cy="76.5" r="32.5" fill="url(#paint0_linear_3302_167285)"/>
</g>
<g style="mix-blend-mode:multiply" filter="url(#filter1_f_3302_167285)">
<circle cx="277.951" cy="171.886" r="45.8343" fill="url(#paint1_linear_3302_167285)"/>
</g>
<g style="mix-blend-mode:multiply">
<circle cx="232.5" cy="65.5" r="32.5" fill="url(#paint2_linear_3302_167285)"/>
</g>
<g style="mix-blend-mode:multiply">
<circle cx="65.5" cy="141.5" r="23.5" fill="url(#paint3_linear_3302_167285)"/>
</g>
<path d="M151.75 157C166.524 157 178.5 155.097 178.5 152.75C178.5 150.403 166.524 148.5 151.75 148.5C136.976 148.5 125 150.403 125 152.75C125 155.097 136.976 157 151.75 157Z" fill="url(#paint4_linear_3302_167285)"/>
<path d="M162.886 142.53C162.886 142.53 158.186 142.91 157.031 145.975C155.876 149.04 161.661 150.35 164.866 151.295C168.071 152.24 169.091 153.755 169.091 153.755C169.091 153.755 178.081 150.39 178.491 147C179.306 140.19 162.896 142.535 162.896 142.535L162.886 142.53Z" fill="url(#paint5_linear_3302_167285)"/>
<path d="M154.716 158.525C154.716 158.525 156.556 141.065 163.851 145.6" stroke="#4C5B28" stroke-width="3" stroke-miterlimit="10"/>
<path d="M149.696 137.99C149.696 137.99 161.736 149.99 151.881 183.34" stroke="#6F9623" stroke-width="3.5" stroke-miterlimit="10"/>
<path d="M150.206 118.93L167.741 128.16C163.356 136.495 151.831 139.19 142.211 134.125C132.591 129.06 128.286 118.04 132.671 109.7C137.056 101.365 148.581 98.6698 158.201 103.735C167.671 108.72 172.021 119.5 167.911 127.82L150.206 118.93Z" fill="#9E7B5A"/>
<path d="M155.845 136.705C156.155 138.71 155.48 145.135 153.475 145.445C151.47 145.755 148.89 139.83 148.585 137.825C148.28 135.82 149.65 133.945 151.655 133.635C153.66 133.325 155.535 134.7 155.845 136.705Z" fill="#6F9623"/>
<path d="M158.446 138.37C157.891 140.32 154.596 145.875 152.641 145.32C150.686 144.765 150.821 138.305 151.376 136.355C151.931 134.405 153.966 133.275 155.916 133.83C157.866 134.385 158.996 136.42 158.441 138.37H158.446Z" fill="#6F9623"/>
<path d="M189.791 120.35C188.981 116.95 184.241 115.065 178.531 115.54C183.931 111.75 186.656 106.385 184.656 103.08C182.591 99.6549 176.226 99.6799 170.166 103.02C173.986 97.2549 174.516 90.9149 171.276 88.5799C167.886 86.1399 161.661 88.9999 157.361 94.9649C157.356 94.9749 157.346 94.9849 157.336 94.9949C158.721 88.5299 157.061 82.7299 153.341 81.6699C151.141 81.0399 148.946 82.2599 147.376 83.7149C145.186 85.7449 143.671 88.5249 142.751 91.3399C142.051 88.4049 141.151 86.5799 139.291 84.2049C138.731 83.4899 138.116 82.7999 137.366 82.2899C134.846 80.5749 131.716 82.1649 130.536 84.7399C129.361 87.3149 129.746 89.8549 130.161 92.5749C130.231 93.0449 130.311 93.5149 130.401 93.9849C130.666 95.4399 130.571 95.9199 130.931 97.3549C130.746 97.1199 130.561 96.8899 130.371 96.6699C126.421 92.2299 120.831 90.7599 117.881 93.3849C114.931 96.0099 115.746 101.735 119.696 106.17C120.626 107.21 121.731 108.72 122.931 110.3C120.511 109.515 118.011 109.73 116.046 111.17C115.441 111.615 114.886 112.17 114.401 112.855C111.291 117.205 113.706 122.65 118.236 124.67C120.666 125.755 123.286 126.15 125.821 126.825C124.366 127.63 123.151 128.835 122.381 130.33C122.211 130.67 122.081 130.975 122.046 131.22C120.986 138.685 133.411 138.18 137.731 136.24C142.056 134.295 144.926 139.055 144.926 139.055C144.926 139.055 145.786 138.775 146.456 137.975C147.291 138.875 148.326 140.05 149.626 141.575C157.866 151.28 166.161 148.535 164.271 142.465C164.086 141.87 163.876 141.28 163.651 140.7C171.016 141.59 187.321 137.16 179.066 130.7C185.971 128.905 190.751 124.335 189.796 120.36L189.791 120.35ZM158.086 133.02C156.236 131.71 154.001 130.905 151.311 130.85C148.896 130.805 147.181 131.27 145.966 131.91C145.486 131.115 144.861 130.24 144.041 129.27C141.771 126.58 138.786 125.475 135.841 125.185C135.461 123.275 134.361 120.745 131.851 117.385C132.976 117.145 134.016 116.155 134.906 114.1C135.556 112.605 135.566 110.13 135.081 107.42C135.786 107.85 136.636 107.99 137.681 107.65C139.901 106.925 141.321 105.08 142.171 102.815C142.891 105.105 144.211 106.745 146.021 107.26C148.556 107.985 151.446 106.335 153.736 103.24C153.251 106.28 153.881 108.86 155.711 110.175C157.456 111.435 159.956 111.285 162.561 110.025C161.096 112.515 160.746 114.995 161.856 116.835C162.901 118.565 165.041 119.415 167.686 119.4C164.846 121.495 163.316 124.125 163.891 126.54C164.146 127.615 164.796 128.54 165.751 129.29C162.941 130.22 160.281 131.635 158.076 133.02H158.086Z" fill="url(#paint6_linear_3302_167285)"/>
<path d="M169.555 125.54C164.685 132.395 153.855 133.06 145.365 127.025C140.8 123.78 131.855 117.39 131.855 117.39C131.855 117.39 133.02 113.815 133.815 111.73C134.29 110.485 134.75 106 135.815 104.505C140.685 97.6497 154.505 96.1747 162.995 102.205C171.485 108.24 174.425 118.685 169.555 125.535V125.54Z" fill="url(#paint7_linear_3302_167285)"/>
<path d="M154.015 160.305C152.04 142.935 138.48 145.77 138.48 145.77" stroke="#6F9623" stroke-width="3" stroke-miterlimit="10"/>
<path d="M140.515 135.829C140.515 135.829 144.371 131.86 148.731 136.455C153.091 141.05 151.726 144.93 151.726 144.93L140.515 135.829Z" fill="url(#paint8_linear_3302_167285)"/>
<path d="M125.711 112.43L129.186 115.7" stroke="#FFEAAF" stroke-width="0.5" stroke-miterlimit="10" stroke-linecap="round"/>
<path d="M132.726 99.875C132.726 99.875 133.816 102.325 133.451 104.505" stroke="#FFEAAF" stroke-width="0.5" stroke-miterlimit="10" stroke-linecap="round"/>
<path d="M168.686 129.025C168.686 129.025 174.136 127.935 175.951 129.795" stroke="#FFEAAF" stroke-width="0.5" stroke-miterlimit="10" stroke-linecap="round"/>
<path d="M159.426 134.11C159.426 134.11 161.426 135.205 161.786 138.745" stroke="#FFEAAF" stroke-width="0.5" stroke-miterlimit="10" stroke-linecap="round"/>
<path d="M129.591 125.985C129.591 125.985 131.771 124.985 133.861 125.305" stroke="#FFEAAF" stroke-width="0.5" stroke-miterlimit="10" stroke-linecap="round"/>
<path d="M174.136 117.92L177.406 116.885" stroke="#FFEAAF" stroke-width="0.5" stroke-miterlimit="10" stroke-linecap="round"/>
<g opacity="0.6">
<path d="M168.463 178.558C169.136 173.686 157.762 168.116 143.059 166.118C128.356 164.12 115.891 166.45 115.218 171.322C114.545 176.195 125.919 181.765 140.623 183.763C155.326 185.761 167.791 183.431 168.463 178.558Z" fill="url(#paint9_linear_3302_167285)" style="mix-blend-mode:multiply"/>
</g>
<path d="M178.5 153L171.285 172.453C170.706 174.022 169.573 177.554 169.413 177.934C167.476 182.471 161.579 184.5 151.913 184.5C142.246 184.5 136.644 182.576 134.412 177.934C134.223 177.539 133.084 174.097 132.54 172.633L125.5 153.665C129.644 155.204 139.64 156.283 151.313 156.283C164.6 156.283 175.714 154.884 178.5 153Z" fill="#EDF7F1"/>
<path d="M143.379 141.81C143.379 141.81 126.725 136.122 124.241 147.053C123.103 152.047 125.331 158.348 125.331 158.348C125.331 158.348 134.275 158.095 138.17 156.321C157.765 147.395 143.378 141.805 143.378 141.805L143.379 141.81Z" fill="#6F9623"/>
<path d="M130.164 152.366C130.164 152.366 133.259 144.443 138.494 143.859" stroke="#8CBC2D" stroke-width="0.551729" stroke-miterlimit="10" stroke-linecap="round"/>
<path d="M158.29 119.46C155.3 119.46 152.075 117.96 151.91 117.885L152.335 116.98C152.38 117 156.935 119.115 159.9 118.255L160.18 119.215C159.585 119.39 158.945 119.46 158.29 119.46Z" fill="black"/>
<path d="M145.01 120.18C144.53 120.18 144.22 120.155 144.165 120.15L144.255 119.155C144.32 119.155 150.59 119.655 152.995 115.47L153.86 115.97C151.675 119.775 146.95 120.185 145.01 120.185V120.18Z" fill="black"/>
<path d="M146 119.788C146 119.788 147.121 124.655 151.801 124.978C156.481 125.301 158.722 121.954 159 119.198C159 119.198 153.32 118.544 152.558 118.131C151.796 117.717 151.291 118.418 151.291 118.418L146 119.792V119.788Z" fill="black"/>
<path d="M148.5 114.055C148.5 114.055 147.665 113.39 146.83 113.45C145.96 113.505 145.28 114.045 145.27 114.055L144.64 113.28C144.675 113.25 145.565 112.53 146.765 112.455C148 112.38 149.085 113.245 149.13 113.28L148.5 114.055Z" fill="black"/>
<path d="M155.845 114.055L155.215 113.275C155.26 113.24 156.35 112.37 157.58 112.45C158.78 112.53 159.67 113.245 159.705 113.275L159.07 114.05L159.385 113.665L159.07 114.055C159.07 114.055 158.385 113.51 157.51 113.45C156.665 113.39 155.845 114.05 155.835 114.055H155.845Z" fill="black"/>
<path d="M145.295 118.488C144.652 118.488 144.051 118.226 143.599 117.756L140.522 114.524C139.17 113.108 139.188 110.822 140.563 109.423C141.182 108.798 142.015 108.447 142.914 108.447C143.813 108.447 144.652 108.787 145.301 109.382C145.95 108.787 146.807 108.447 147.688 108.447C148.569 108.447 149.42 108.792 150.039 109.423C151.408 110.816 151.425 113.108 150.08 114.524L147.003 117.756C146.551 118.226 145.95 118.488 145.307 118.488H145.295Z" fill="url(#paint10_linear_3302_167285)"/>
<path d="M147.682 108.745C148.461 108.745 149.235 109.031 149.818 109.632C151.08 110.912 151.092 113.019 149.854 114.316L149.723 114.453L146.777 117.548C146.372 117.976 145.831 118.191 145.295 118.191C144.759 118.191 144.224 117.976 143.813 117.548L140.867 114.453L140.736 114.316C139.498 113.019 139.51 110.912 140.771 109.632C141.355 109.037 142.129 108.745 142.908 108.745C143.753 108.745 144.61 109.084 145.235 109.745L145.283 109.799C145.283 109.799 145.283 109.799 145.289 109.799C145.295 109.799 145.289 109.799 145.295 109.799L145.343 109.745C145.968 109.084 146.825 108.745 147.67 108.745M147.67 108.15C146.801 108.15 145.956 108.453 145.283 108.989C144.61 108.453 143.765 108.15 142.896 108.15C141.914 108.15 141.004 108.525 140.331 109.209C138.849 110.715 138.831 113.191 140.289 114.721L140.42 114.858L143.367 117.953C143.872 118.482 144.551 118.78 145.277 118.78C146.003 118.78 146.682 118.488 147.188 117.953L150.134 114.858L150.265 114.721C151.723 113.191 151.705 110.715 150.223 109.209C149.551 108.525 148.64 108.15 147.658 108.15H147.67Z" fill="white"/>
<path d="M158.698 118.488C158.055 118.488 157.454 118.226 157.002 117.756L153.925 114.524C152.574 113.108 152.592 110.822 153.967 109.423C154.586 108.798 155.419 108.447 156.318 108.447C157.216 108.447 158.055 108.787 158.704 109.382C159.353 108.787 160.21 108.447 161.091 108.447C161.972 108.447 162.823 108.792 163.442 109.423C164.811 110.816 164.829 113.108 163.484 114.524L160.406 117.756C159.954 118.226 159.353 118.488 158.71 118.488H158.698Z" fill="url(#paint11_linear_3302_167285)"/>
<path d="M161.085 108.745C161.865 108.745 162.638 109.031 163.222 109.632C164.484 110.912 164.495 113.019 163.257 114.316L163.126 114.453L160.18 117.548C159.776 117.976 159.234 118.191 158.698 118.191C158.163 118.191 157.627 117.976 157.216 117.548L154.27 114.453L154.139 114.316C152.901 113.019 152.913 110.912 154.175 109.632C154.758 109.037 155.532 108.745 156.312 108.745C157.157 108.745 158.014 109.084 158.639 109.745L158.686 109.799C158.686 109.799 158.686 109.799 158.692 109.799C158.698 109.799 158.692 109.799 158.698 109.799L158.746 109.745C159.371 109.084 160.228 108.745 161.073 108.745M161.073 108.15C160.204 108.15 159.359 108.453 158.686 108.989C158.014 108.453 157.169 108.15 156.3 108.15C155.318 108.15 154.407 108.525 153.734 109.209C152.252 110.715 152.234 113.191 153.693 114.721L153.824 114.858L156.77 117.953C157.276 118.482 157.954 118.78 158.68 118.78C159.407 118.78 160.085 118.488 160.591 117.953L163.537 114.858L163.668 114.721C165.126 113.191 165.108 110.715 163.626 109.209C162.954 108.525 162.043 108.15 161.061 108.15H161.073Z" fill="white"/>
<path d="M150.521 113.965C151.336 113.15 152.663 113.15 153.485 113.965" stroke="white" stroke-width="0.59519" stroke-miterlimit="10"/>
<path d="M141.309 99.2743C141.119 99.8566 141.09 100.48 141.297 101.058C141.355 101.215 141.4 101.376 141.433 101.546C141.776 103.223 140.772 104.953 139.149 105.494C138.877 105.585 138.596 105.643 138.323 105.663C137.142 105.758 135.99 106.064 134.866 106.431C134.726 106.477 134.577 106.518 134.425 106.547C132.921 106.836 131.36 106.056 130.695 104.676C130.452 104.168 130.34 103.644 130.344 103.128C130.352 102.041 130.245 100.947 129.906 99.9144C129.849 99.7327 129.799 99.5469 129.77 99.3487C129.568 98.0684 130.373 96.4247 131.513 95.8093C132.165 95.4583 132.855 95.3344 133.512 95.3963C134.652 95.5078 135.804 95.3344 136.882 94.9544C137.138 94.8636 137.406 94.8016 137.691 94.7686C139.05 94.6199 140.401 95.3302 141.049 96.5279C141.54 97.4324 141.59 98.4112 141.309 99.2743Z" fill="white"/>
<path d="M135.953 101.674C137.276 101.674 138.348 100.601 138.348 99.2782C138.348 97.9552 137.276 96.8828 135.953 96.8828C134.63 96.8828 133.557 97.9552 133.557 99.2782C133.557 100.601 134.63 101.674 135.953 101.674Z" fill="#FFD62C"/>
<path d="M136.444 97.8701C136.444 97.8701 137.415 98.0436 137.497 98.9232" stroke="white" stroke-width="0.825984" stroke-miterlimit="10"/>
<path d="M233.428 56.8501V74.0001" stroke="white" stroke-width="6.3687" stroke-miterlimit="10" stroke-linecap="round"/>
<path d="M239.488 59.3613L227.36 71.4892" stroke="white" stroke-width="6.3687" stroke-miterlimit="10" stroke-linecap="round"/>
<path d="M241.999 65.4209H224.849" stroke="white" stroke-width="6.3687" stroke-miterlimit="10" stroke-linecap="round"/>
<path d="M239.488 71.4892L227.36 59.3613" stroke="white" stroke-width="6.3687" stroke-miterlimit="10" stroke-linecap="round"/>
<path d="M233.429 68.4322C235.092 68.4322 236.441 67.0839 236.441 65.4207C236.441 63.7575 235.092 62.4092 233.429 62.4092C231.766 62.4092 230.418 63.7575 230.418 65.4207C230.418 67.0839 231.766 68.4322 233.429 68.4322Z" fill="#FFF069"/>
<path d="M67.9052 128.635C65.4864 133.055 63.7783 139.794 67.4439 142.88C72.481 144.675 78.8771 137.855 78.8771 137.855C78.8771 137.855 73.8213 130.961 67.9114 128.641L67.9052 128.635Z" fill="#FF839E"/>
<path d="M71.5769 135.48L66.7144 141.739" stroke="#FF5A85" stroke-width="1.2468" stroke-miterlimit="10"/>
<path d="M52.4569 139.844C57.4067 138.915 64.3514 139.383 66.1406 143.821C66.284 149.164 57.8182 153.129 57.8182 153.129C57.8182 153.129 52.8372 146.184 52.4631 139.844H52.4569Z" fill="#FF839E"/>
<path d="M57.8179 145.461L65.28 142.774" stroke="#FF5A85" stroke-width="1.2468" stroke-miterlimit="10"/>
<path d="M65.9909 144.451C67.2063 144.451 68.1915 143.466 68.1915 142.25C68.1915 141.035 67.2063 140.05 65.9909 140.05C64.7755 140.05 63.7903 141.035 63.7903 142.25C63.7903 143.466 64.7755 144.451 65.9909 144.451Z" fill="#FF2E64"/>
<g opacity="0.3" filter="url(#filter2_f_3302_167285)">
<g filter="url(#filter3_d_3302_167285)">
<path d="M20.7335 77.0952L4.49162 70.3997C3.88825 70.1582 3.24654 70.6975 3.1948 71.4902L2.46313 82.7007C2.41057 83.5059 2.97673 84.1241 3.60639 83.963L20.5808 79.4355C21.005 79.3242 21.339 78.8532 21.3743 78.3121C21.4096 77.7711 21.1397 77.2607 20.7335 77.0952ZM16.649 78.307L5.60031 79.3549C5.47367 79.3592 5.35113 79.3007 5.29479 79.1959L4.23882 77.3707C4.17072 77.2525 4.17975 77.1141 4.26181 77.0184L5.54608 75.3458C5.61638 75.2367 5.74548 75.1946 5.86966 75.228L16.6892 77.6905C17.0374 77.7764 17.0045 78.2797 16.649 78.307Z" fill="#FF005C"/>
<path d="M-2.77657 64.2523L0.452419 68.4053C0.906981 68.991 1.61867 69.3154 2.35499 69.2624L7.60661 68.9481C9.45835 68.8415 10.6379 70.9023 9.60259 72.4394L6.65218 76.7956C6.23284 77.4127 6.15758 78.1785 6.41603 78.8651L8.33262 83.7664C9.01606 85.4915 7.40986 87.2568 5.62434 86.7359L0.564 85.281C-0.142494 85.0707 -0.911368 85.2353 -1.48524 85.7033L-5.55677 89.0387C-6.99856 90.2207 -9.15795 89.2332 -9.22679 87.3839L-9.40185 82.1288C-9.42972 81.3941 -9.8148 80.7119 -10.4335 80.3177L-14.8726 77.4756C-16.4374 76.4764 -16.1697 74.1184 -14.4219 73.4743L-9.47765 71.6742C-8.77934 71.4292 -8.26099 70.8439 -8.07578 70.1358L-6.74512 65.042C-6.27375 63.2407 -3.94278 62.761 -2.81267 64.2247L-2.77657 64.2523Z" fill="url(#paint12_linear_3302_167285)"/>
</g>
</g>
<g opacity="0.6" clip-path="url(#clip1_3302_167285)" filter="url(#filter4_f_3302_167285)">
<g clip-path="url(#clip2_3302_167285)">
<path d="M277.817 155.306C277.817 155.306 279.76 167.749 269.066 187.644" stroke="#374F09" stroke-width="0.484957" stroke-miterlimit="10"/>
<path d="M285.357 168.674C285.357 168.674 281.307 169.395 275.554 182.883" stroke="#374F09" stroke-width="0.484957" stroke-miterlimit="10"/>
<path d="M295.862 152.405C297.886 153.269 300.227 152.328 301.091 150.303C301.954 148.279 301.013 145.937 298.989 145.074C296.964 144.21 294.623 145.151 293.759 147.176C292.896 149.201 293.837 151.542 295.862 152.405Z" fill="#93BA3C"/>
<path d="M297.643 156.835C299.667 157.698 302.008 156.757 302.872 154.732C303.735 152.708 302.794 150.367 300.77 149.503C298.745 148.639 296.404 149.581 295.54 151.605C294.677 153.63 295.618 155.971 297.643 156.835Z" fill="#93BA3C"/>
<path d="M291.029 153.419C293.054 154.282 295.395 153.341 296.258 151.316C297.122 149.292 296.181 146.951 294.156 146.087C292.132 145.223 289.79 146.165 288.927 148.189C288.063 150.214 289.004 152.555 291.029 153.419Z" fill="#93BA3C"/>
<path d="M292.884 158.542C294.909 159.406 297.25 158.464 298.113 156.44C298.977 154.415 298.036 152.074 296.011 151.211C293.987 150.347 291.645 151.288 290.782 153.313C289.918 155.337 290.86 157.679 292.884 158.542Z" fill="#93BA3C"/>
<path d="M296.476 149.18L295.543 151.366L297.81 150.422" stroke="#191E0A" stroke-width="0.480155" stroke-linejoin="bevel"/>
<path d="M297.638 152.354L295.557 151.2L296.267 153.549" stroke="#191E0A" stroke-width="0.480155" stroke-linejoin="bevel"/>
<path d="M290.19 167.662C292.215 168.526 294.556 167.585 295.42 165.56C296.283 163.535 295.342 161.194 293.318 160.331C291.293 159.467 288.952 160.408 288.088 162.433C287.225 164.457 288.166 166.799 290.19 167.662Z" fill="#93BA3C"/>
<path d="M291.971 172.091C293.995 172.954 296.336 172.013 297.2 169.989C298.063 167.964 297.122 165.623 295.098 164.759C293.073 163.896 290.732 164.837 289.868 166.862C289.005 168.886 289.946 171.227 291.971 172.091Z" fill="#93BA3C"/>
<path d="M285.36 168.67C287.384 169.534 289.725 168.593 290.589 166.568C291.453 164.544 290.511 162.202 288.487 161.339C286.462 160.475 284.121 161.417 283.257 163.441C282.394 165.466 283.335 167.807 285.36 168.67Z" fill="#93BA3C"/>
<path d="M287.212 173.798C289.236 174.662 291.578 173.721 292.441 171.696C293.305 169.672 292.364 167.33 290.339 166.467C288.314 165.603 285.973 166.545 285.11 168.569C284.246 170.594 285.187 172.935 287.212 173.798Z" fill="#93BA3C"/>
<path d="M290.806 164.432L289.871 166.622L292.139 165.674" stroke="#191E0A" stroke-width="0.480155" stroke-linejoin="bevel"/>
<path d="M291.968 167.605L289.886 166.451L290.595 168.805" stroke="#191E0A" stroke-width="0.480155" stroke-linejoin="bevel"/>
<path d="M271.865 153.544C273.889 154.408 276.231 153.467 277.094 151.442C277.958 149.418 277.016 147.077 274.992 146.213C272.967 145.349 270.626 146.291 269.763 148.315C268.899 150.34 269.84 152.681 271.865 153.544Z" fill="#93BA3C"/>
<path d="M276.294 151.764C278.318 152.627 280.66 151.686 281.523 149.662C282.387 147.637 281.446 145.296 279.421 144.432C277.396 143.569 275.055 144.51 274.192 146.534C273.328 148.559 274.269 150.9 276.294 151.764Z" fill="#93BA3C"/>
<path d="M272.879 158.378C274.903 159.241 277.244 158.3 278.108 156.275C278.971 154.251 278.03 151.91 276.006 151.046C273.981 150.182 271.64 151.124 270.776 153.148C269.913 155.173 270.854 157.514 272.879 158.378Z" fill="#93BA3C"/>
<path d="M278.002 156.522C280.026 157.386 282.367 156.444 283.231 154.42C284.095 152.395 283.153 150.054 281.129 149.191C279.104 148.327 276.763 149.268 275.899 151.293C275.036 153.317 275.977 155.659 278.002 156.522Z" fill="#93BA3C"/>
<path d="M273.869 150.829L276.055 151.762L275.111 149.495" stroke="#191E0A" stroke-width="0.480155" stroke-linejoin="bevel"/>
<path d="M277.042 149.666L275.888 151.747L278.237 151.037" stroke="#191E0A" stroke-width="0.480155" stroke-linejoin="bevel"/>
<path d="M290.788 153.3C290.788 153.3 274.521 166.151 272.421 193.141" stroke="#374F09" stroke-width="0.484957" stroke-miterlimit="10"/>
<path opacity="0.58" d="M274.067 209.572L254.409 201.187L273.143 170.288L283.398 174.662L274.067 209.572Z" fill="#A3CCAD"/>
<path d="M274.067 209.572L254.409 201.187L273.143 170.288L283.398 174.662L274.067 209.572Z" fill="url(#paint13_linear_3302_167285)"/>
</g>
</g>
</g>
<defs>
<filter id="filter0_f_3302_167285" x="-34.4678" y="40" width="73" height="73" filterUnits="userSpaceOnUse" color-interpolation-filters="sRGB">
<feFlood flood-opacity="0" result="BackgroundImageFix"/>
<feBlend mode="normal" in="SourceGraphic" in2="BackgroundImageFix" result="shape"/>
<feGaussianBlur stdDeviation="2" result="effect1_foregroundBlur_3302_167285"/>
</filter>
<filter id="filter1_f_3302_167285" x="224.953" y="118.888" width="105.996" height="105.996" filterUnits="userSpaceOnUse" color-interpolation-filters="sRGB">
<feFlood flood-opacity="0" result="BackgroundImageFix"/>
<feBlend mode="normal" in="SourceGraphic" in2="BackgroundImageFix" result="shape"/>
<feGaussianBlur stdDeviation="3.58185" result="effect1_foregroundBlur_3302_167285"/>
</filter>
<filter id="filter2_f_3302_167285" x="-40" y="34" width="84.1078" height="84.1079" filterUnits="userSpaceOnUse" color-interpolation-filters="sRGB">
<feFlood flood-opacity="0" result="BackgroundImageFix"/>
<feBlend mode="normal" in="SourceGraphic" in2="BackgroundImageFix" result="shape"/>
<feGaussianBlur stdDeviation="1.5" result="effect1_foregroundBlur_3302_167285"/>
</filter>
<filter id="filter3_d_3302_167285" x="-20.9475" y="63.3613" width="47.3685" height="36.2779" filterUnits="userSpaceOnUse" color-interpolation-filters="sRGB">
<feFlood flood-opacity="0" result="BackgroundImageFix"/>
<feColorMatrix in="SourceAlpha" type="matrix" values="0 0 0 0 0 0 0 0 0 0 0 0 0 0 0 0 0 0 127 0" result="hardAlpha"/>
<feOffset dy="5.04348"/>
<feGaussianBlur stdDeviation="2.52174"/>
<feComposite in2="hardAlpha" operator="out"/>
<feColorMatrix type="matrix" values="0 0 0 0 0 0 0 0 0 0 0 0 0 0 0 0 0 0 0.07 0"/>
<feBlend mode="normal" in2="BackgroundImageFix" result="effect1_dropShadow_3302_167285"/>
<feBlend mode="normal" in="SourceGraphic" in2="effect1_dropShadow_3302_167285" result="shape"/>
</filter>
<filter id="filter4_f_3302_167285" x="216.836" y="111.836" width="121.657" height="121.657" filterUnits="userSpaceOnUse" color-interpolation-filters="sRGB">
<feFlood flood-opacity="0" result="BackgroundImageFix"/>
<feBlend mode="normal" in="SourceGraphic" in2="BackgroundImageFix" result="shape"/>
<feGaussianBlur stdDeviation="3.58185" result="effect1_foregroundBlur_3302_167285"/>
</filter>
<linearGradient id="paint0_linear_3302_167285" x1="2.03223" y1="44" x2="0.532226" y2="120.5" gradientUnits="userSpaceOnUse">
<stop stop-color="#B8E4CF"/>
<stop offset="1" stop-color="#ACF3D1" stop-opacity="0"/>
</linearGradient>
<linearGradient id="paint1_linear_3302_167285" x1="277.951" y1="126.052" x2="275.835" y2="233.939" gradientUnits="userSpaceOnUse">
<stop stop-color="#B8E4CF"/>
<stop offset="1" stop-color="#ACF3D1" stop-opacity="0"/>
</linearGradient>
<linearGradient id="paint2_linear_3302_167285" x1="232.5" y1="33" x2="231" y2="109.5" gradientUnits="userSpaceOnUse">
<stop stop-color="#B8E4CF"/>
<stop offset="1" stop-color="#ACF3D1" stop-opacity="0"/>
</linearGradient>
<linearGradient id="paint3_linear_3302_167285" x1="65.5" y1="118" x2="64.4154" y2="173.315" gradientUnits="userSpaceOnUse">
<stop stop-color="#B8E4CF"/>
<stop offset="1" stop-color="#ACF3D1" stop-opacity="0"/>
</linearGradient>
<linearGradient id="paint4_linear_3302_167285" x1="151.75" y1="148.5" x2="151.75" y2="157" gradientUnits="userSpaceOnUse">
<stop stop-color="#706547"/>
<stop offset="1" stop-color="#4E4632"/>
</linearGradient>
<linearGradient id="paint5_linear_3302_167285" x1="154.011" y1="129.02" x2="173.911" y2="154.315" gradientUnits="userSpaceOnUse">
<stop/>
<stop offset="0.95" stop-color="#6F9623"/>
</linearGradient>
<linearGradient id="paint6_linear_3302_167285" x1="165.885" y1="86.1356" x2="135.222" y2="141.465" gradientUnits="userSpaceOnUse">
<stop stop-color="#F7BA40"/>
<stop offset="0.24" stop-color="#F7BA40"/>
<stop offset="0.97" stop-color="#FFE757"/>
</linearGradient>
<linearGradient id="paint7_linear_3302_167285" x1="162.211" y1="101.612" x2="144.604" y2="126.396" gradientUnits="userSpaceOnUse">
<stop stop-color="#966842"/>
<stop offset="0.85" stop-color="#9E7B5A"/>
</linearGradient>
<linearGradient id="paint8_linear_3302_167285" x1="130.561" y1="128.62" x2="153.826" y2="142.66" gradientUnits="userSpaceOnUse">
<stop/>
<stop offset="0.95" stop-color="#6F9623"/>
</linearGradient>
<linearGradient id="paint9_linear_3302_167285" x1="145.968" y1="196.813" x2="121.898" y2="164.956" gradientUnits="userSpaceOnUse">
<stop stop-color="#4B985F"/>
<stop offset="1" stop-color="#88B53A" stop-opacity="0"/>
</linearGradient>
<linearGradient id="paint10_linear_3302_167285" x1="148.092" y1="108.001" x2="142.004" y2="116.697" gradientUnits="userSpaceOnUse">
<stop offset="0.2" stop-color="#E25488"/>
<stop offset="0.65" stop-color="#F63F54" stop-opacity="0.5"/>
<stop offset="1" stop-color="#FF6254" stop-opacity="0.3"/>
</linearGradient>
<linearGradient id="paint11_linear_3302_167285" x1="161.055" y1="107.912" x2="155.728" y2="117.131" gradientUnits="userSpaceOnUse">
<stop offset="0.2" stop-color="#E25488"/>
<stop offset="0.65" stop-color="#F63F54" stop-opacity="0.5"/>
<stop offset="1" stop-color="#FF6254" stop-opacity="0.3"/>
</linearGradient>
<linearGradient id="paint12_linear_3302_167285" x1="-3.52053" y1="67.3921" x2="5.09721" y2="80.8784" gradientUnits="userSpaceOnUse">
<stop offset="0.21" stop-color="#FFA800"/>
<stop offset="1" stop-color="#FFF626"/>
</linearGradient>
<linearGradient id="paint13_linear_3302_167285" x1="255.923" y1="203.206" x2="287.2" y2="179.724" gradientUnits="userSpaceOnUse">
<stop stop-color="#C7EFDE" stop-opacity="0.5"/>
<stop offset="0.97" stop-color="white" stop-opacity="0.8"/>
</linearGradient>
<clipPath id="clip0_3302_167285">
<rect width="304" height="227" rx="30" fill="white"/>
</clipPath>
<clipPath id="clip1_3302_167285">
<rect width="81.7965" height="81.7965" fill="white" transform="translate(256.091 119) rotate(23.0997)"/>
</clipPath>
<clipPath id="clip2_3302_167285">
<rect width="33.7405" height="69.104" fill="white" transform="translate(275.431 135.026) rotate(23.0997)"/>
</clipPath>
</defs>
</svg>
