<svg width="304" height="227" viewBox="0 0 304 227" fill="none" xmlns="http://www.w3.org/2000/svg">
<g clip-path="url(#clip0_3302_167256)">
<rect width="304" height="227" rx="30" fill="#29BA6C"/>
<g filter="url(#filter0_d_3302_167256)">
<rect x="96" y="52" width="111.707" height="26.5772" rx="13.2886" fill="white" shape-rendering="crispEdges"/>
<path d="M109.466 60.6773H112.059C113.126 60.6773 113.66 61.0082 113.66 61.67V63.9391C113.687 64.7631 113.413 65.1649 112.839 65.1446C112.535 65.0298 112.41 64.8272 112.464 64.5368L112.454 62.0651C112.454 61.9435 112.393 61.8827 112.272 61.8827H108.554C108.325 61.876 108.169 61.7679 108.088 61.5586C108.075 61.3897 108.078 61.2479 108.098 61.1331C108.098 60.8292 108.554 60.6773 109.466 60.6773ZM114.065 66.8262C114.355 66.8262 114.531 66.9512 114.592 67.201C114.632 67.3226 114.632 67.4374 114.592 67.5455C114.49 67.8696 114.214 68.0013 113.761 67.9405L111.644 67.9304H110.57H108.21C107.636 67.9304 107.349 67.7514 107.349 67.3935C107.349 67.0086 107.551 66.8161 107.957 66.8161C109.564 66.8228 110.644 66.8262 111.198 66.8262H112.535C113.366 66.8262 113.876 66.8262 114.065 66.8262ZM116.378 60.6266H117.472C118.593 60.6266 119.15 60.7921 119.143 61.123C119.204 61.8929 119.234 62.396 119.234 62.6324C119.234 63.0983 118.924 63.3313 118.302 63.3313H116.925C116.824 63.3448 116.773 63.3955 116.773 63.4833L116.803 64.0404C116.83 64.0404 116.935 64.0675 117.117 64.1215L119.234 64.081C119.471 64.1755 119.599 64.2768 119.619 64.3849V64.7799C119.538 64.9825 119.359 65.0838 119.083 65.0838C116.928 65.3337 115.858 65.1412 115.871 64.5064L115.79 64.1215L115.76 63.1693C115.76 62.602 116.253 62.3183 117.239 62.3183H118.221V61.8726C118.221 61.7173 118.1 61.6396 117.857 61.6396H116.378C115.966 61.5991 115.76 61.4168 115.76 61.0926C115.868 60.7819 116.074 60.6266 116.378 60.6266ZM121.575 60.1606C121.777 60.1133 121.953 60.1269 122.101 60.2011C122.547 60.2011 122.709 61.7578 122.588 64.8711C122.588 65.094 122.449 65.2628 122.172 65.3776H122C121.608 65.3776 121.412 65.1514 121.412 64.6989C121.412 62.6526 121.365 61.3222 121.271 60.7076C121.271 60.37 121.372 60.1876 121.575 60.1606ZM116.975 66.0158C117.171 65.9888 117.303 65.9888 117.371 66.0158C117.546 66.0226 117.674 66.1543 117.755 66.4109V67.0997C117.708 67.7886 117.806 68.1262 118.049 68.1127C118.157 68.1735 118.323 68.2039 118.546 68.2039H121.818C122.203 68.2039 122.395 68.3998 122.395 68.7915C122.395 69.1156 122.138 69.2777 121.625 69.2777C120.443 69.3182 119.292 69.3317 118.171 69.3182C117.205 69.2709 116.709 69.0312 116.682 68.599C116.614 68.2478 116.58 67.954 116.58 67.7177V66.7047C116.58 66.3535 116.712 66.1239 116.975 66.0158ZM129.023 59.3401C129.503 59.3401 129.743 59.7149 129.743 60.4645V61.1534C129.783 61.6126 129.195 61.876 127.98 61.9435C127.359 61.9975 126.859 62.0279 126.481 62.0347V62.4602L126.926 62.5412H127.291C128.034 62.5412 128.733 62.5142 129.388 62.4602C129.678 62.4602 129.881 62.6222 129.996 62.9464C129.962 63.2976 129.8 63.4968 129.51 63.5441L126.764 63.5542C125.805 63.5745 125.326 63.3043 125.326 62.7438V61.9942C125.326 61.3391 125.606 61.0115 126.167 61.0115C127.274 61.0048 128.112 60.9541 128.679 60.8596V60.3328C127.578 60.3734 126.67 60.3869 125.954 60.3734C125.616 60.3869 125.437 60.2687 125.417 60.0188V59.7858C125.437 59.4752 125.728 59.3266 126.288 59.3401C127.281 59.3198 128.193 59.3198 129.023 59.3401ZM130.756 64.081C131.046 64.081 131.222 64.1958 131.282 64.4254C131.323 64.5334 131.323 64.6381 131.282 64.7394C131.181 65.0366 130.904 65.1581 130.452 65.1041L128.334 65.094V65.1851L128.324 65.8335C128.385 66.2995 128.27 66.5527 127.98 66.5932H127.889C127.47 66.5932 127.261 66.3839 127.261 65.9652V65.094H124.9C124.326 65.094 124.039 64.9319 124.039 64.6077C124.039 64.2498 124.242 64.0708 124.647 64.0708C126.254 64.0776 127.335 64.081 127.889 64.081H129.226C130.057 64.081 130.566 64.081 130.756 64.081ZM125.964 66.1272H129.479C129.925 66.1272 130.148 66.3501 130.148 66.7958V68.3356C130.148 69.3621 129.84 69.8754 129.226 69.8754H128.385C126.494 69.8754 125.549 69.7099 125.549 69.379C125.441 69.1831 125.383 68.7915 125.376 68.2039V67.2112C125.289 66.6371 125.485 66.2758 125.964 66.1272ZM126.491 67.3631V68.4572C126.531 68.6665 126.639 68.7746 126.815 68.7813L127.22 68.7915C127.544 68.7915 128.064 68.8117 128.78 68.8522C128.841 68.859 128.888 68.8624 128.922 68.8624C128.969 68.8016 129 68.734 129.013 68.6598C129.101 68.1195 129.141 67.6603 129.135 67.2821C129.128 67.2145 129.074 67.1639 128.973 67.1301H126.886C126.724 67.1031 126.592 67.1808 126.491 67.3631ZM134.639 61.6092C135.976 61.8794 136.661 62.4331 136.695 63.2706V64.2633C136.695 65.3574 136.053 65.982 134.77 66.1374C133.176 66.1374 132.38 65.5768 132.38 64.4558V63.7669C132.542 62.3217 133.295 61.6025 134.639 61.6092ZM133.382 64.4153C133.49 64.7057 133.798 64.8846 134.304 64.9522L134.973 64.9623C135.52 64.8137 135.793 64.449 135.793 63.8682C135.807 63.1254 135.405 62.7303 134.588 62.683H134.385C134.041 62.683 133.788 62.8215 133.626 63.0983C133.463 63.3685 133.369 63.7264 133.342 64.1721L133.382 64.4153ZM138.518 60.8393H138.67C139.015 60.9204 139.153 62.2744 139.086 64.9015V66.7553C139.052 67.2551 138.903 67.5049 138.64 67.5049C138.316 67.5049 138.117 67.2821 138.042 66.8363C138.096 66.5595 138.123 66.2893 138.123 66.0259V64.3545H137.526C137.08 64.3545 136.857 64.1823 136.857 63.8378C136.857 63.4259 137.066 63.2199 137.485 63.2199L138.042 63.2098C138.042 62.9126 138.029 62.2744 138.002 61.2952C138.002 60.9913 138.174 60.8393 138.518 60.8393ZM139.987 60.6063H140.139C140.517 60.6063 140.673 62.8552 140.605 67.353C140.605 67.5691 140.497 67.7312 140.281 67.8392H140.119C139.747 67.8392 139.562 67.6231 139.562 67.1909C139.562 63.9695 139.514 61.9368 139.42 61.0926C139.42 60.7684 139.609 60.6063 139.987 60.6063ZM148.171 59.0767C149.461 59.3401 150.126 60.1066 150.167 61.3762V61.4674C150.032 62.7776 149.279 63.4732 147.908 63.5542C146.625 63.5069 145.879 63.0106 145.669 62.0651C145.649 61.957 145.639 61.8726 145.639 61.8118C145.591 60.7448 145.841 60.0087 146.388 59.6035C146.942 59.1983 147.536 59.0227 148.171 59.0767ZM146.642 61.2648C146.655 62.0482 146.989 62.4703 147.645 62.5311H147.898C148.708 62.4703 149.12 62.1191 149.134 61.4775V61.3864C149.127 60.6705 148.715 60.2653 147.898 60.1708C147.128 60.191 146.709 60.5557 146.642 61.2648ZM147.827 62.7843C148.219 62.8451 148.404 63.0646 148.384 63.4428V63.6859V64.2025C149.728 64.2093 150.521 64.2127 150.765 64.2127C151.19 64.2059 151.45 64.2836 151.545 64.4456C151.639 64.601 151.666 64.7664 151.626 64.942C151.572 65.1649 151.352 65.3033 150.967 65.3574C148.988 65.3506 147.645 65.3472 146.935 65.3472C146.226 65.3472 145.656 65.3472 145.223 65.3472H144.575C144.305 65.2729 144.19 65.067 144.231 64.7293C144.224 64.4524 144.41 64.2903 144.788 64.243L147.3 64.2329C147.3 63.8615 147.3 63.5508 147.3 63.3009C147.354 62.9498 147.53 62.7776 147.827 62.7843ZM145.467 66.0158C145.662 65.9888 145.794 65.9888 145.862 66.0158C146.037 66.0226 146.166 66.1543 146.247 66.4109V67.0997C146.199 67.7886 146.297 68.1262 146.54 68.1127C146.648 68.1735 146.814 68.2039 147.037 68.2039H150.309C150.694 68.2039 150.886 68.3998 150.886 68.7915C150.886 69.1156 150.63 69.2777 150.116 69.2777C148.934 69.3182 147.783 69.3317 146.662 69.3182C145.696 69.2709 145.2 69.0312 145.173 68.599C145.105 68.2478 145.071 67.954 145.071 67.7177V66.7047C145.071 66.3535 145.203 66.1239 145.467 66.0158ZM155.791 60.8393C156.298 60.8934 156.713 60.9204 157.037 60.9204H157.736C158.438 60.9204 158.813 61.177 158.86 61.6903L158.79 62.2474C158.391 64.1249 157.922 65.0636 157.381 65.0636C157.28 65.0838 157.179 65.067 157.078 65.0129C156.828 64.9116 156.75 64.682 156.845 64.3241C157.216 63.8378 157.49 63.0781 157.665 62.0448H157.321C155.909 62.0448 155.204 61.8996 155.204 61.6092C155.15 61.5079 155.143 61.3965 155.183 61.2749C155.231 60.9643 155.433 60.8191 155.791 60.8393ZM161.839 60.5354C162.21 60.5354 162.396 60.8832 162.396 61.5788C162.504 62.5243 162.558 63.4833 162.558 64.4558V65.1041C162.396 65.3675 162.21 65.4992 162.001 65.4992C161.778 65.4249 161.616 65.2932 161.515 65.1041V63.4428H160.4C159.995 63.4428 159.755 63.3347 159.681 63.1186V62.7235C159.769 62.5074 159.955 62.3994 160.238 62.3994H161.444L161.363 61.2547C161.43 60.7752 161.589 60.5354 161.839 60.5354ZM160.572 65.722C161.052 65.722 161.292 66.0969 161.292 66.8465V67.434C161.332 67.8933 160.745 68.1566 159.529 68.2242C158.84 68.2782 158.307 68.3086 157.929 68.3153V68.6395L158.374 68.7205H158.739C159.549 68.7205 160.282 68.6935 160.937 68.6395C161.228 68.6395 161.43 68.8016 161.545 69.1257C161.511 69.4769 161.349 69.6761 161.059 69.7234L158.212 69.7335C157.253 69.7538 156.774 69.4837 156.774 68.9231V68.2748C156.774 67.6197 157.054 67.2922 157.614 67.2922C158.79 67.2854 159.661 67.2348 160.228 67.1402V66.7148C159.06 66.7553 158.118 66.7688 157.402 66.7553C157.064 66.7688 156.885 66.6506 156.865 66.4008V66.1678C156.885 65.8571 157.176 65.7085 157.736 65.722C158.796 65.7018 159.742 65.7018 160.572 65.722ZM169.053 60.0593C168.918 60.3227 168.743 60.4443 168.527 60.424C168.088 60.3835 167.912 60.0762 168 59.5022L168.02 59.3401C168.067 58.7998 168.28 58.5466 168.658 58.5803C169.043 58.6141 169.175 59.1071 169.053 60.0593ZM167.281 59.6136H169.813C170.198 59.6136 170.39 59.8027 170.39 60.1809V60.2619C170.249 60.5388 170.029 60.6773 169.732 60.6773H167.362C167.064 60.6773 166.845 60.5388 166.703 60.2619V59.9378C166.791 59.7217 166.983 59.6136 167.281 59.6136ZM168.749 60.8393H168.841C169.583 60.8393 170.168 61.3492 170.593 62.369V62.7641C170.458 63.7298 169.904 64.2127 168.932 64.2127C167.527 64.2127 166.825 63.7028 166.825 62.683V62.4399C166.825 61.5147 167.466 60.9812 168.749 60.8393ZM168.02 62.2879V62.8451C168.121 63.0612 168.334 63.1693 168.658 63.1693H169.124C169.212 63.1693 169.303 63.0882 169.398 62.9261V62.5209C169.398 62.2305 169.212 62.0178 168.841 61.8827H168.658C168.233 62.0853 168.02 62.2204 168.02 62.2879ZM172.102 60.6367H172.254C172.612 60.6367 172.791 60.863 172.791 61.3155V62.7742H173.703C174.21 62.7742 174.463 62.9768 174.463 63.382C174.395 63.6319 174.22 63.7568 173.936 63.7568H172.791C172.839 64.601 172.862 64.9353 172.862 64.7597V64.9825C172.862 65.4418 172.687 65.6714 172.335 65.6714H172.184C172.075 65.6511 171.974 65.5228 171.88 65.2864C171.826 64.1384 171.799 63.0713 171.799 62.0853V61.1635C171.799 60.8934 171.9 60.7178 172.102 60.6367ZM168.648 63.2402C169.04 63.3009 169.226 63.5204 169.205 63.8986V64.1417V64.6584C169.874 64.6651 170.397 64.6685 170.775 64.6685C171.201 64.6618 171.461 64.7394 171.555 64.9015C171.65 65.0568 171.677 65.2223 171.636 65.3979C171.582 65.5532 171.363 65.6579 170.978 65.7119C169.54 65.7052 168.466 65.7018 167.757 65.7018C167.858 65.7018 167.625 65.7018 167.058 65.7018H166.409C166.139 65.6275 166.024 65.4553 166.065 65.1851C166.058 64.9083 166.244 64.7462 166.622 64.6989L168.121 64.6888C168.121 64.3173 168.121 64.0067 168.121 63.7568C168.175 63.4056 168.351 63.2334 168.648 63.2402ZM167.169 66.0158C167.365 65.9888 167.497 65.9888 167.564 66.0158C167.74 66.0226 167.868 66.1543 167.949 66.4109V67.0997C167.902 67.7886 168 68.1262 168.243 68.1127C168.351 68.1735 168.516 68.2039 168.739 68.2039H172.011C172.396 68.2039 172.589 68.3998 172.589 68.7915C172.589 69.1156 172.332 69.2777 171.819 69.2777C170.637 69.3182 169.486 69.3317 168.364 69.3182C167.399 69.2709 166.902 69.0312 166.875 68.599C166.808 68.2478 166.774 67.954 166.774 67.7177V66.7047C166.774 66.3535 166.906 66.1239 167.169 66.0158ZM177.288 60.9305C178.585 60.9778 179.304 61.4674 179.446 62.3994V63.2604C179.446 64.2127 178.842 64.7597 177.633 64.9015C176.14 64.9015 175.394 64.4119 175.394 63.4326V62.8248C175.543 61.562 176.174 60.9305 177.288 60.9305ZM176.427 63.3516V63.4326C176.427 63.5947 176.718 63.7365 177.298 63.8581L177.856 63.8378C178.281 63.7433 178.494 63.463 178.494 62.997C178.494 62.4095 178.149 62.0955 177.461 62.0549H177.288C176.714 62.0549 176.427 62.4872 176.427 63.3516ZM182.242 60.3835C182.573 60.3835 182.738 60.9643 182.738 62.1259V65.0535C182.738 65.3574 182.573 65.5633 182.242 65.6714C181.843 65.6511 181.644 65.4249 181.644 64.9927C181.685 64.7901 181.705 64.5436 181.705 64.2532V64.2937H181.624C181.097 64.314 180.675 64.3038 180.358 64.2633C180.047 64.135 179.939 63.9189 180.034 63.615C180.182 63.4394 180.358 63.3516 180.56 63.3516C180.837 63.3111 181.219 63.2908 181.705 63.2908V62.835L181.695 62.5412H181.462L180.418 62.5716C180.162 62.5513 180 62.4331 179.932 62.217V61.984C180.027 61.7207 180.243 61.5923 180.581 61.5991H181.168H181.624V60.9204C181.624 60.5557 181.83 60.3767 182.242 60.3835ZM179.436 65.8132C180.807 66.0226 181.492 66.6473 181.492 67.6873C181.519 69.0852 180.993 69.8686 179.912 70.0375H179.172C178.105 69.9699 177.474 69.3115 177.278 68.0621C177.366 67.1166 177.673 66.4885 178.2 66.1779C178.734 65.8672 179.145 65.7457 179.436 65.8132ZM178.443 67.7379V68.0418C178.443 68.5821 178.815 68.8522 179.557 68.8522C180.098 68.8522 180.398 68.6361 180.459 68.2039C180.506 67.954 180.476 67.6974 180.368 67.434C180.192 67.0964 179.922 66.9275 179.557 66.9275H179.254C178.781 67.0221 178.511 67.2922 178.443 67.7379ZM186.54 62.5311C186.419 62.7877 186.257 62.9059 186.054 62.8856C185.635 62.8586 185.46 62.3791 185.527 61.4471L185.537 61.2952C185.578 60.7752 185.777 60.5287 186.135 60.5557C186.5 60.5827 186.635 61.2412 186.54 62.5311ZM184.22 61.9131H187.796C188.175 61.9131 188.364 62.1056 188.364 62.4905V62.4703C188.229 62.7472 188.009 62.8856 187.705 62.8856H184.301C184.004 62.8856 183.785 62.7472 183.643 62.4703V62.2373C183.738 62.0212 183.93 61.9131 184.22 61.9131ZM186.074 63.1389H186.165C186.895 63.0646 187.472 63.5677 187.898 64.6482V65.0433C187.769 65.9955 187.222 66.4717 186.257 66.4717C184.865 66.4717 184.17 65.9685 184.17 64.9623V64.7192C184.17 63.8075 184.805 63.2807 186.074 63.1389ZM185.294 64.4862C185.186 64.6753 185.186 64.888 185.294 65.1244C185.409 65.3675 185.652 65.489 186.024 65.489L186.368 65.5194C186.598 65.4316 186.76 65.2797 186.854 65.0636V64.7597C186.854 64.4288 186.645 64.1856 186.226 64.0303H186.024C185.659 64.0911 185.416 64.243 185.294 64.4862ZM191.393 60.4544C191.757 60.4544 191.94 61.5822 191.94 63.8378V67.12C191.94 67.6062 191.757 67.8494 191.393 67.8494C191.082 67.8494 190.927 67.6805 190.927 67.3429V64.2734H190.694C190.558 64.2734 190.332 64.2971 190.015 64.3443V66.9073C190.015 67.1706 189.887 67.3631 189.63 67.4847H189.316C189.208 67.4847 189.11 67.326 189.022 67.0086C189.015 66.5561 189.012 66.2792 189.012 66.1779L188.931 61.1838C189.032 60.9609 189.137 60.8393 189.245 60.8191C189.36 60.7786 189.488 60.7786 189.63 60.8191C189.839 60.8799 189.944 61.096 189.944 61.4674V63.3617C189.957 63.3887 190.008 63.4022 190.096 63.4022C190.427 63.355 190.68 63.3313 190.856 63.3313L190.927 63.3212C190.927 63.1456 190.903 62.3352 190.856 60.89C190.876 60.5996 191.055 60.4544 191.393 60.4544ZM194.311 68.9637C193.886 68.8894 193.676 68.6699 193.683 68.3052C193.757 67.8325 194 67.6029 194.412 67.6164C194.77 67.6299 194.976 67.9135 195.03 68.4673C195.017 68.7712 194.777 68.9367 194.311 68.9637ZM194.311 66.7857C194.021 66.6506 193.879 66.4548 193.886 66.1982L193.906 65.3675C193.967 63.5508 193.943 62.3116 193.835 61.6497C193.957 61.2716 194.132 61.0858 194.362 61.0926C194.747 61.1061 194.922 61.643 194.889 62.7033C194.909 63.5002 194.902 64.3545 194.868 65.2662L194.838 66.2285C194.764 66.6067 194.588 66.7924 194.311 66.7857Z" fill="#1B1D1F"/>
<path d="M151.276 83.8374L148.143 78.4106L154.41 78.4106L151.276 83.8374Z" fill="white"/>
</g>
<path d="M18.3625 146.65C26.488 146.65 33.075 145.604 33.075 144.313C33.075 143.022 26.488 141.975 18.3625 141.975C10.237 141.975 3.65002 143.022 3.65002 144.313C3.65002 145.604 10.237 146.65 18.3625 146.65Z" fill="url(#paint0_linear_3302_167256)"/>
<path d="M4.33437 137.754C6.85612 138.444 9.09737 138.851 10.5576 139.074C11.1269 139.162 11.4651 138.463 11.0471 138.067C9.97187 137.055 8.26962 135.543 6.17137 133.981C3.69912 132.141 1.28187 132.243 -0.0326292 132.504C-0.612879 132.619 -0.918129 133.249 -0.654129 133.777C-0.0518792 134.973 1.35887 136.94 4.33162 137.751L4.33437 137.754Z" fill="url(#paint1_linear_3302_167256)"/>
<path d="M15.4332 112.844C15.4332 112.844 13.9234 111.076 15.2737 110.226C16.6239 109.377 20.0779 110.116 20.5207 110.598C20.9634 111.079 16.4177 110.191 15.4332 112.842V112.844Z" fill="#EAE7D0"/>
<path d="M10.5712 138.513C10.5712 138.513 12.8674 139.643 13.6924 141.153C14.2259 142.132 16.5772 146.628 17.0254 148.85" stroke="#A9BF26" stroke-width="1.1" stroke-miterlimit="10"/>
<path d="M21.9339 133.211C21.9339 133.211 19.6102 132.457 18.4744 135.331C14.8884 144.409 17.4899 150.734 17.4899 150.734" stroke="#A9BF26" stroke-width="1.1" stroke-miterlimit="10"/>
<path d="M27.5718 138.961C27.5718 138.961 29.8928 143.658 27.8963 144.832C27.8963 144.832 31.8425 143.273 31.1825 139.605C31.1825 139.605 32.3403 140.306 33.5255 139.082C34.7108 137.858 34.389 136.78 34.389 136.78C34.389 136.78 33.3303 137.256 30.9955 136.871C28.6608 136.486 27.5718 138.961 27.5718 138.961Z" fill="url(#paint2_linear_3302_167256)"/>
<path d="M30.723 131.629C30.723 131.629 32.9808 135.471 31.5865 137.275C31.5865 137.275 34.265 136.285 33.6408 134.124C33.2118 132.639 30.723 131.632 30.723 131.632V131.629Z" fill="#F7F6ED"/>
<path d="M28.2539 138.56C28.2539 138.56 29.1669 142.52 24.1536 141.857C24.1536 141.857 24.8521 143.268 25.9274 143.449C26.8404 143.603 28.6636 143.144 29.0184 141.816C29.1751 141.23 28.7709 139.478 28.2539 138.56Z" fill="#F7F6ED"/>
<path d="M28.2536 138.56C28.2536 138.56 31.8836 139.049 32.0128 136.167C32.0128 136.167 24.2001 132.166 22.5281 132.54C20.8561 132.914 20.4078 134.473 20.4078 134.473L21.2878 135.224C21.2878 135.224 21.9616 134.355 22.5088 134.514C23.0561 134.674 27.7256 141.422 27.7256 141.422C27.7256 141.422 28.7568 140.603 28.2536 138.554V138.56Z" fill="url(#paint3_linear_3302_167256)"/>
<path d="M3.65762 120.814C3.65762 120.814 3.53112 122.359 3.77037 122.896C4.00962 123.432 4.79062 124.304 5.58537 124.499C5.58537 124.499 4.19662 119.928 6.03087 118.875C7.86512 117.825 6.69912 117.585 6.69912 117.585C6.69912 117.585 3.88312 118.652 3.65762 120.814Z" fill="#EAE7D0"/>
<path d="M14.6246 120.417L12.6748 132.935C12.6748 132.935 12.3036 134.789 13.4888 137.368L14.6383 137.352C14.6383 137.352 14.2451 134.36 15.4248 133.144C16.6046 131.929 21.9753 130.35 21.9753 130.35L14.6246 120.42V120.417Z" fill="url(#paint4_linear_3302_167256)"/>
<path d="M15.6918 115.842C15.6918 115.842 12.2984 111.832 7.19985 115.286C1.89785 118.878 3.7706 122.895 3.7706 122.895C3.7706 122.895 3.32785 119.909 5.19235 119.444C7.05685 118.979 9.69135 119.617 11.5256 121.881C11.5256 121.881 6.0091 123.091 5.58835 129.317C5.18135 135.369 9.3366 138.073 9.3366 138.073C9.3366 138.073 8.1596 131.783 13.4918 130.307C17.2291 129.273 15.9668 131.572 15.9668 131.572C15.9668 131.572 17.8891 131.486 18.6756 134.844C19.4648 138.202 16.7286 141.716 16.7286 141.716C16.7286 141.716 22.8061 140.374 24.5029 136.601C26.1996 132.826 25.0886 130.617 25.0886 130.617C25.0886 130.617 31.2679 130.516 30.9764 134.311C30.9764 134.311 34.6504 132.256 32.7611 127.37C31.3339 123.679 27.7781 122.986 27.7781 122.986C27.7781 122.986 30.7014 121.408 30.9764 118.284C31.4329 113.116 27.1786 112.792 27.1786 112.792C27.1786 112.792 28.4519 116.21 24.1068 116.614C24.1068 116.614 24.1949 113.851 23.0041 112.077C20.5374 108.397 15.8101 108.925 15.2738 110.226C15.2738 110.226 17.4243 113.24 15.6918 115.842Z" fill="url(#paint5_radial_3302_167256)"/>
<path d="M25.2074 127.082C27.0415 124.443 25.9604 120.519 22.7926 118.318C19.6249 116.116 15.57 116.47 13.7359 119.109C11.9018 121.748 12.9829 125.672 16.1506 127.874C19.3184 130.076 23.3732 129.721 25.2074 127.082Z" fill="url(#paint6_radial_3302_167256)"/>
<path d="M25.9986 126.44C25.9986 126.44 29.7331 126.154 30.6351 129.034" stroke="#EAE7D0" stroke-width="0.275" stroke-miterlimit="10" stroke-linecap="round"/>
<path d="M8.06018 116.026C8.06018 116.026 11.0879 115.361 12.3749 117.31" stroke="#EAE7D0" stroke-width="0.275" stroke-miterlimit="10" stroke-linecap="round"/>
<path d="M21.7334 132.177C21.7334 132.177 23.9141 135.051 21.5519 137.237" stroke="#EAE7D0" stroke-width="0.275" stroke-miterlimit="10" stroke-linecap="round"/>
<path d="M7.72235 131.63C7.72235 131.63 7.81585 129.023 10.5714 127.947" stroke="#EAE7D0" stroke-width="0.275" stroke-miterlimit="10" stroke-linecap="round"/>
<path d="M19.47 110.991C19.47 110.991 20.6443 112.366 20.1603 114.362" stroke="#EAE7D0" stroke-width="0.275" stroke-miterlimit="10" stroke-linecap="round"/>
<path d="M29.3399 114.998C29.3399 114.998 29.9009 117.726 26.9117 119.059" stroke="#EAE7D0" stroke-width="0.275" stroke-miterlimit="10" stroke-linecap="round"/>
<path d="M23.6088 141.018C23.6088 141.018 19.4371 140.966 18.8898 147.384C18.3426 153.803 18.8898 154.501 18.8898 154.501C18.8898 154.501 22.3356 141.516 28.3801 141.615L23.6088 141.018Z" fill="#808929"/>
<path d="M14.0226 137.198L17.4904 150.731" stroke="#A9BF26" stroke-width="1.1" stroke-miterlimit="10"/>
<path d="M16.096 144.406C16.096 144.406 15.1995 141.651 11.5778 141.926C7.95605 142.201 5.40955 145.536 5.40955 145.536C5.40955 145.536 10.2303 142.316 12.2405 144.189C14.2508 146.062 15.348 149.172 15.348 149.172L17.5838 149.285C17.5838 149.285 17.3335 147.151 16.0933 144.409L16.096 144.406Z" fill="#808929"/>
<path d="M24.8739 123.363C24.8739 123.363 26.2434 122.145 28.9494 123.522" stroke="#EAE7D0" stroke-width="0.275" stroke-miterlimit="10" stroke-linecap="round"/>
<path d="M15.9664 116.117C15.9664 116.117 16.7887 117.291 16.9399 118.765" stroke="#EAE7D0" stroke-width="0.275" stroke-miterlimit="10" stroke-linecap="round"/>
<path d="M24.134 116.612C24.134 116.612 23.9937 118.248 22.748 118.971" stroke="#EAE7D0" stroke-width="0.275" stroke-miterlimit="10"/>
<g opacity="0.6">
<path d="M27.5548 158.507C27.9249 155.827 21.6692 152.764 13.5824 151.665C5.49561 150.566 -1.36 151.848 -1.73003 154.527C-2.10006 157.207 4.15561 160.271 12.2424 161.37C20.3292 162.469 27.1848 161.187 27.5548 158.507Z" fill="url(#paint7_linear_3302_167256)" style="mix-blend-mode:multiply"/>
</g>
<path d="M33.075 144.45L29.1069 155.149C28.7883 156.012 28.1649 157.955 28.0771 158.164C27.0116 160.659 23.7684 161.775 18.4519 161.775C13.1355 161.775 10.0543 160.717 8.8268 158.164C8.72245 157.947 8.09633 156.053 7.79701 155.248L3.92499 144.816C6.20426 145.662 11.702 146.256 18.1224 146.256C25.4298 146.256 31.5427 145.486 33.075 144.45Z" fill="#EDF7F1"/>
<path d="M19.2557 145.388C19.2557 145.388 20.408 140.606 25.0087 141.373C30.2612 142.247 32.277 148.985 32.013 152.505C32.013 152.505 36.479 146.205 31.3502 140.292C31.3502 140.292 29.9477 138.32 26.6037 139.517C23.2597 140.713 20.408 140.916 19.2557 145.385V145.388Z" fill="#A9BF26"/>
<path d="M26.7054 140.066C26.7054 140.066 30.0632 140.066 31.6004 143.963" stroke="#969B29" stroke-width="0.275" stroke-miterlimit="10" stroke-linecap="round"/>
<path d="M12.0652 140.383C10.3652 139.861 6.39643 139.402 3.65182 143.539C0.55403 151.14 3.65182 155.725 3.65182 155.725C3.65182 155.725 3.78052 142.48 13.5917 142.868C14.2412 142.894 15.0044 142.997 16.025 143.733C15.8903 143.148 14.75 141.205 12.0652 140.383Z" fill="#A9BF26"/>
<path d="M6.125 143.819C6.125 143.819 8.71 139.986 13.1375 141.507" stroke="#969B29" stroke-width="0.275" stroke-miterlimit="10" stroke-linecap="round"/>
<path d="M85.3625 146.65C93.488 146.65 100.075 145.604 100.075 144.313C100.075 143.022 93.488 141.975 85.3625 141.975C77.237 141.975 70.65 143.022 70.65 144.313C70.65 145.604 77.237 146.65 85.3625 146.65Z" fill="url(#paint8_linear_3302_167256)"/>
<path d="M81.8944 134.52L81.8779 134.531C81.4187 133.574 80.7972 132.688 80.0519 131.916C80.0519 131.916 80.0519 131.916 80.0519 131.913C79.9777 131.709 79.6889 130.579 79.6834 130.571C79.4909 129.559 79.5047 128.541 79.8099 127.54C80.7037 124.815 82.7167 124.031 85.0707 122.755C85.2412 122.665 85.3649 122.491 85.3759 122.282C85.3952 121.969 85.1559 121.697 84.8424 121.677C83.6352 121.603 82.4417 122.029 81.4379 122.717C79.4029 124.02 78.2204 126.097 78.0747 128.291C78.0609 128.203 78.0472 128.112 78.0389 128.022C77.7474 126.061 78.1847 124.064 78.9904 122.266C79.3314 121.548 79.6917 120.822 79.8787 120.005C80.0547 119.497 79.4579 119.026 79.0069 119.334C78.7869 119.48 78.6164 119.631 78.4542 119.802C77.3597 120.995 76.8784 122.612 76.5484 124.172C76.3752 125.115 76.3422 126.099 76.4714 127.062C76.3779 126.889 76.2817 126.715 76.1882 126.55C76.0507 126.248 75.9049 125.907 75.7647 125.61C75.3769 124.546 75.0579 123.435 74.9507 122.302C74.7252 120.465 74.9122 118.603 74.9039 116.747C74.9177 116.532 74.8159 116.318 74.6152 116.205C74.3429 116.054 74.0019 116.153 73.8507 116.425C73.5812 116.906 73.4079 117.382 73.2622 117.899C73.0147 118.762 72.9212 119.653 72.9267 120.547C72.7919 120.022 72.6764 119.494 72.5774 118.963C72.1319 116.887 72.1979 114.764 71.7002 112.688C71.6507 112.424 71.4747 112.195 71.2052 112.099C70.8092 111.956 70.3692 112.162 70.2262 112.558C69.9567 113.328 69.8577 114.071 69.8247 114.866C69.8027 117.165 70.2454 119.45 70.9247 121.647C70.9659 121.779 71.0099 121.911 71.0567 122.043C69.2967 120.957 67.1792 120.121 65.3119 120.275C64.8142 120.357 64.1542 120.305 63.8874 120.833C63.6839 121.24 63.8819 121.732 64.2999 121.903C65.4742 122.461 66.5549 122.687 67.6907 123.069C68.6724 123.435 69.6212 123.888 70.5204 124.427C70.8037 124.603 71.0842 124.79 71.3592 124.983C69.7972 124.488 68.2049 124.326 66.7117 124.722C65.9582 124.928 66.0022 126.05 66.7777 126.19C67.7292 126.361 69.0409 126.616 69.9622 126.875C71.6259 127.329 73.2017 128.052 74.6977 128.924C72.7892 128.53 70.8147 128.673 68.9529 129.21C68.1939 129.43 67.4844 129.685 66.7474 130.065C66.4752 130.208 66.3459 130.538 66.4642 130.829C66.5879 131.14 66.9427 131.291 67.2534 131.165C69.8164 130.194 72.8442 129.927 75.4237 130.904C77.7062 131.72 79.1802 133.508 80.5717 135.408L80.5332 135.433C80.5827 135.507 85.3979 142.916 85.8489 149.788L87.4962 149.681C87.0177 142.379 82.1227 134.844 81.9137 134.528L81.8944 134.52Z" fill="url(#paint9_linear_3302_167256)"/>
<path d="M83.7313 140.435C81.0913 138.084 78.0966 138.367 77.9701 138.384L77.9866 138.535C77.4696 138.166 76.9993 137.735 76.6116 137.242C76.4796 137.075 76.2871 136.797 76.1771 136.613C75.7536 135.955 75.6216 135.196 75.1761 134.536C75.1046 134.421 75.0166 134.314 74.8763 134.281C73.9001 134.135 74.3428 136.046 74.6123 136.472C74.9258 137.19 75.3851 137.836 75.9461 138.381C75.6326 138.241 75.3218 138.089 75.0248 137.913C73.7873 137.165 72.7121 136.162 71.8541 134.996C71.3811 134.382 71.0676 133.651 70.4928 133.115C70.0996 132.647 69.3323 132.936 69.3846 133.557C69.4781 134.545 70.0363 135.243 70.5506 135.966C70.9438 136.494 71.3893 136.987 71.8706 137.44C71.1391 137.204 70.4158 136.929 69.7091 136.615C68.2186 135.986 66.8326 135.161 65.3036 134.594C65.1386 134.523 64.9406 134.545 64.7948 134.671C64.5913 134.844 64.5666 135.15 64.7426 135.353C65.0836 135.752 65.4521 136.068 65.8481 136.371C66.8298 137.121 67.9573 137.641 69.0958 138.103C69.9951 138.461 70.9328 138.755 71.8871 138.961C71.4883 139.044 71.0951 139.143 70.7101 139.258C68.9858 139.825 67.1516 140.43 65.9636 141.887C65.6556 142.272 66.0708 142.847 66.5356 142.674C68.1718 142.201 69.5688 141.252 71.1831 140.746C71.8871 140.496 72.6048 140.298 73.3308 140.149C72.9321 140.306 72.5361 140.476 72.1538 140.677C71.2106 141.158 70.3333 141.783 69.7668 142.8C69.5166 143.287 70.0501 143.73 70.5066 143.452C71.3068 143.067 72.1263 142.539 72.9128 142.118C74.9808 141.018 77.3541 140.559 79.6916 140.49C80.0381 140.485 80.3846 140.49 80.7338 140.49C81.3471 140.738 82.0043 141.109 82.6396 141.675C84.7543 143.559 85.8543 146.854 85.9066 151.465L87.5566 151.446C87.4988 146.35 86.2146 142.649 83.7368 140.443L83.7313 140.435Z" fill="url(#paint10_linear_3302_167256)"/>
<path d="M85.7502 140.435C88.3902 138.084 91.3849 138.367 91.5114 138.384L91.4949 138.535C92.0119 138.166 92.4822 137.735 92.8699 137.242C93.0019 137.075 93.1944 136.797 93.3044 136.613C93.7279 135.955 93.8599 135.196 94.3054 134.536C94.3769 134.421 94.4649 134.314 94.6052 134.281C95.5814 134.135 95.1387 136.046 94.8692 136.472C94.5557 137.19 94.0964 137.836 93.5354 138.381C93.8489 138.241 94.1597 138.089 94.4567 137.913C95.6942 137.165 96.7694 136.162 97.6274 134.996C98.1004 134.382 98.4139 133.651 98.9887 133.115C99.3819 132.647 100.149 132.936 100.097 133.557C100.003 134.545 99.4452 135.243 98.9309 135.966C98.5377 136.494 98.0922 136.987 97.6109 137.44C98.3424 137.204 99.0657 136.929 99.7724 136.615C101.263 135.986 102.649 135.161 104.178 134.594C104.343 134.523 104.541 134.545 104.687 134.671C104.89 134.844 104.915 135.15 104.739 135.353C104.398 135.752 104.029 136.068 103.633 136.371C102.652 137.121 101.524 137.641 100.386 138.103C99.4864 138.461 98.5487 138.755 97.5944 138.961C97.9932 139.044 98.3864 139.143 98.7714 139.258C100.496 139.825 102.33 140.43 103.518 141.887C103.826 142.272 103.411 142.847 102.946 142.674C101.31 142.201 99.9127 141.252 98.2984 140.746C97.5944 140.496 96.8767 140.298 96.1507 140.149C96.5494 140.306 96.9454 140.476 97.3277 140.677C98.2709 141.158 99.1482 141.783 99.7147 142.8C99.9649 143.287 99.4314 143.73 98.9749 143.452C98.1747 143.067 97.3552 142.539 96.5687 142.118C94.5007 141.018 92.1274 140.559 89.7899 140.49C89.4434 140.485 89.0969 140.49 88.7477 140.49C88.1344 140.738 87.4772 141.109 86.8419 141.675C84.7272 143.559 83.6272 146.854 83.5749 151.465L81.9249 151.446C81.9827 146.35 83.2669 142.649 85.7447 140.443L85.7502 140.435Z" fill="url(#paint11_linear_3302_167256)"/>
<path d="M106.738 120.709C105.547 120.5 104.428 120.706 103.331 121.017C102.233 121.32 101.164 121.721 100.135 122.224C99.2358 122.664 98.3641 123.201 97.5611 123.825C97.7756 122.821 97.8471 121.787 97.6656 120.781C97.5858 120.33 97.3988 119.879 97.1788 119.48C96.9093 119.007 96.1531 119.175 96.1063 119.722C95.9468 120.676 96.0018 121.493 95.9606 122.384C95.9001 123.063 95.8093 123.734 95.6333 124.397C95.6333 124.408 95.6278 124.416 95.6251 124.427C95.7571 123.341 95.6746 122.263 95.2703 121.265C95.0311 120.706 94.1813 120.896 94.1978 121.507C94.1483 123.148 94.0383 124.694 93.5351 126.264C93.1473 127.482 92.6221 128.695 92.0253 129.845C92.1161 127.647 91.8878 125.445 91.1233 123.649C90.8593 123.041 89.9271 123.201 89.8776 123.863C89.7153 125.758 89.8308 127.628 89.8308 129.512C89.8226 130.879 89.7318 132.24 89.5586 133.59C88.9123 131.649 87.7106 129.949 86.2063 128.582C85.6206 128.052 85.0293 127.581 84.3198 127.152C84.0558 126.993 83.7066 127.059 83.5196 127.312C83.3216 127.581 83.3793 127.961 83.6461 128.159C85.8158 129.831 87.6336 132.27 88.1561 134.976C88.7528 137.789 86.5088 143.501 86.7068 143.655C85.9946 146.738 85.6371 150.09 85.9286 153.563L87.5731 153.426C87.2046 149.064 87.9526 144.86 89.1296 141.166C89.3936 140.586 89.6026 139.978 89.7538 139.354C89.9463 138.834 90.1471 138.328 90.3506 137.833C90.8621 136.904 91.3791 135.996 92.0143 135.158C92.6606 134.264 93.4251 133.389 94.1978 132.597C95.7461 130.917 97.7068 129.759 99.2303 128.032C99.3788 127.87 99.4558 127.65 99.4091 127.419C99.3898 127.328 99.3541 127.246 99.3073 127.172C99.3321 127.172 99.3596 127.166 99.3843 127.166C99.9783 127.13 100.608 127.139 101.186 127.191C101.384 127.221 101.582 127.108 101.645 126.908C101.714 126.693 101.593 126.462 101.378 126.393C100.71 126.182 100.061 126.085 99.3816 126.05C98.8948 126.03 98.3558 126.05 97.8086 126.121C97.8086 126.121 97.8086 126.121 97.8113 126.121C99.6483 125.134 101.752 125.035 103.782 124.749C103.941 124.735 104.09 124.636 104.147 124.477C104.359 123.797 103.177 123.762 102.753 123.668C102.132 123.588 101.507 123.608 100.891 123.693C101.826 123.278 102.794 122.939 103.782 122.675C104.791 122.422 105.822 122.2 106.804 121.801C107.362 121.63 107.318 120.805 106.738 120.704V120.709ZM95.6141 128.39C95.6691 128.316 95.7158 128.252 95.7543 128.2C95.8396 128.151 95.9221 128.101 96.0073 128.054C96.0981 128.005 96.1888 127.964 96.2823 127.92C96.0541 128.071 95.8313 128.228 95.6141 128.393V128.39Z" fill="url(#paint12_linear_3302_167256)"/>
<path d="M97.6492 109.143C97.5749 108.771 97.2119 108.529 96.8379 108.604C96.1944 108.741 95.6389 108.986 95.0779 109.291C93.4774 110.218 92.1382 111.524 90.8952 112.883C90.6834 113.122 90.4772 113.367 90.2737 113.617C90.6532 110.749 90.5844 107.622 89.5642 105.227C89.3002 104.619 88.3679 104.778 88.3184 105.441C88.1562 107.336 88.2717 109.206 88.2717 111.09C88.2662 111.967 88.2249 112.841 88.1534 113.713C87.8592 112.704 87.4604 111.722 86.9682 110.798C86.3797 109.756 85.8517 108.67 84.6994 107.988C84.0669 107.594 83.2364 108.246 83.4812 108.958C83.7864 110.025 84.5372 110.861 85.0349 111.829C85.8957 113.438 86.5034 115.187 86.7207 116.997C86.9049 118.251 86.8197 119.505 86.6492 120.767C86.4732 119.076 85.7994 117.431 84.6747 116.147C84.1247 115.49 83.4757 114.912 82.5187 114.742C82.3894 114.72 82.2492 114.742 82.1254 114.81C81.7899 115.003 81.7624 115.426 81.9824 115.721C82.3454 116.348 82.8597 116.812 83.3162 117.321C84.2264 118.366 84.8589 119.639 85.1559 121.001C85.2797 121.518 85.3567 122.062 85.3924 122.596L85.4419 123.146L85.4474 123.206C85.4694 123.462 85.6674 123.676 85.9314 123.709C85.9727 123.715 86.0112 123.715 86.0524 123.709C85.8324 124.199 85.6207 124.787 85.4364 125.225C85.2082 125.876 85.0267 126.545 84.8342 127.202C84.7462 127.504 84.8837 127.837 85.1779 127.983C85.5272 128.159 85.9507 127.986 86.0964 127.628C86.3879 127.04 86.6464 126.446 86.9324 125.865C87.0892 125.574 87.4659 124.875 87.6172 124.587C88.9674 122.263 90.6752 120.129 92.8229 118.523C93.7937 117.8 94.8992 117.112 95.8369 116.35L95.9689 116.224C96.4089 115.814 96.0707 115.03 95.4657 115.074C93.7937 115.157 92.3362 116.07 91.0739 117.093C90.2324 117.783 89.4624 118.556 88.7639 119.392C88.7914 119.323 88.9427 118.941 88.9427 118.941C88.9509 118.922 88.9592 118.897 88.9702 118.875C89.3634 118.182 89.7787 117.505 90.2599 116.87C90.9062 115.976 91.6707 115.102 92.4434 114.31C93.9917 112.63 95.9524 111.472 97.4759 109.745C97.6244 109.583 97.7014 109.363 97.6547 109.132L97.6492 109.143ZM86.6409 122.535C86.6602 122.362 86.6794 122.186 86.6849 122.01C86.6932 121.812 86.6932 121.614 86.6849 121.413C86.7592 121.578 86.8857 121.718 87.0534 121.804C86.9104 122.046 86.7702 122.288 86.6382 122.532L86.6409 122.535Z" fill="#709324"/>
<path d="M109.414 130.076C109.275 129.5 108.623 129.398 108.156 129.203C106.374 128.624 104.12 128.949 102.157 129.602C102.232 129.485 102.306 129.365 102.375 129.246C103.539 127.263 104.498 125.141 105.005 122.897C105.154 122.117 105.23 121.371 105.143 120.562C105.093 120.142 104.715 119.841 104.297 119.889C104.014 119.923 103.789 120.103 103.68 120.349C102.714 122.255 102.29 124.337 101.381 126.256C101.161 126.75 100.927 127.238 100.674 127.718C100.885 126.85 100.999 125.961 100.957 125.063C100.933 124.526 100.873 124.023 100.723 123.493C100.64 123.196 100.327 123.02 100.03 123.103C99.8077 123.166 99.661 123.35 99.623 123.562C99.1875 125.366 98.9384 127.221 98.2982 128.958C97.9328 130.036 97.365 131.043 96.7453 131.988C96.5382 132.246 96.3195 132.544 96.1158 132.807C95.9857 132.944 95.8541 133.093 95.7222 133.24C96.0668 132.334 96.263 131.368 96.3104 130.409C96.3473 128.815 96.2516 127.131 95.4603 125.72C95.3387 125.516 95.2111 125.332 95.0297 125.138C94.6623 124.734 93.9723 125.052 94.0262 125.589C94.0195 126.426 94.2037 127.216 94.3695 127.991C94.7395 129.926 94.7069 131.969 93.9715 133.812C93.9432 133.898 93.9091 133.983 93.875 134.067C94.2386 131.898 93.5677 129.606 91.8864 127.867C91.0655 126.967 90.0016 126.278 88.8106 126.073C88.4994 126.02 88.2032 126.227 88.1522 126.538C88.1162 126.745 88.1953 126.94 88.3411 127.069C90.3384 128.855 92.1182 130.08 92.3615 132.937C92.4294 133.979 92.2062 134.973 91.7857 135.915C91.7782 135.922 91.7676 135.926 91.76 135.932C91.6684 135.999 91.6056 136.076 91.5572 136.156C89.4588 137.38 83.5241 141.993 84.9517 154.521L86.8644 154.303C86.0834 147.461 87.6426 143.27 89.384 140.791C91.3175 139.119 93.266 137.504 95.8707 137.213C98.6057 136.855 101.492 137.813 103.761 139.347C104.033 139.541 104.413 139.476 104.604 139.201C104.786 138.943 104.736 138.592 104.503 138.39C103.873 137.851 103.241 137.438 102.554 137.05C100.866 136.099 98.9766 135.502 97.0282 135.447C98.6848 134.945 100.383 134.603 102.107 134.544C103.063 134.503 104.4 134.558 105.365 134.613C106.154 134.656 106.455 133.572 105.767 133.198C104.404 132.469 102.817 132.262 101.184 132.385C101.496 132.261 101.811 132.143 102.128 132.038C103.126 131.72 104.154 131.496 105.193 131.365C106.388 131.256 107.491 131.283 108.763 131.01C109.208 130.94 109.514 130.509 109.41 130.065L109.414 130.076Z" fill="url(#paint13_linear_3302_167256)"/>
<path d="M105.229 105.558C104.371 105.66 103.614 105.907 102.844 106.238C100.645 107.267 98.6774 108.721 96.9052 110.35C96.8001 110.449 96.6949 110.551 96.5898 110.651C96.7971 108.528 96.5986 106.19 95.5709 104.535C95.2585 104.113 94.9986 103.481 94.3709 103.475C93.8863 103.475 93.5126 103.88 93.5476 104.345C93.568 105.686 93.86 106.785 94.0323 108.009C94.1461 109.083 94.1578 110.166 94.0673 111.243C94.0323 111.586 93.9855 111.929 93.933 112.272C93.6702 110.602 93.0746 109.055 91.9973 107.856C91.4484 107.253 90.4002 107.805 90.6309 108.587C90.917 109.545 91.2907 110.874 91.4776 111.844C91.8279 113.589 91.8805 115.375 91.7549 117.154C91.2323 115.21 90.1667 113.453 88.7799 111.977C88.2135 111.376 87.6354 110.835 86.9288 110.328C86.6661 110.14 86.2894 110.172 86.0675 110.413C85.831 110.67 85.8544 111.064 86.1172 111.294C86.5084 111.648 86.8821 112.025 87.2354 112.427C87.1595 112.541 87.1215 112.68 87.139 112.836C87.1536 113.218 87.1974 113.595 87.2471 113.969C86.7303 114.417 86.3215 114.913 85.9449 115.465C84.9055 117.072 84.2574 118.88 83.7377 120.705L83.7318 120.7C83.799 119.45 83.9771 118.209 84.2895 116.99C84.6369 115.658 85.1274 114.258 85.4135 112.915L85.4369 112.708C85.5332 112.034 84.6486 111.586 84.1289 112.056C82.6749 113.329 82.0297 115.179 81.6414 116.987C81.5509 117.415 81.4808 117.846 81.4195 118.277C81.3786 117.166 81.4195 116.018 81.5217 114.921C81.6823 112.331 82.6049 109.905 82.7071 107.292C82.7246 107.043 82.6282 106.794 82.4151 106.624C82.0706 106.349 81.5655 106.397 81.2823 106.731C80.8005 107.315 80.4765 107.927 80.1962 108.602C79.4312 110.566 79.1831 112.68 79.0634 114.765C79.0459 115.128 79.0429 115.494 79.0429 115.859C77.2649 113.065 74.8883 110.364 72.1906 108.987C71.5016 108.644 70.7716 109.452 71.2184 110.072C72.4738 111.855 73.9628 113.416 75.3555 115.077C76.0007 115.854 76.6109 116.653 77.189 117.472C76.1759 116.795 75.0898 116.216 73.957 115.757C72.6519 115.264 71.3702 114.686 69.8228 114.916C68.9586 115.023 68.687 116.194 69.4374 116.647C70.503 117.367 71.8023 117.563 72.9701 118.058C74.9409 118.855 76.7861 119.96 78.3218 121.394C78.8444 121.859 79.3115 122.369 79.7436 122.907C78.6926 122.267 77.5189 121.819 76.2926 121.615C75.3087 121.431 74.2927 121.391 73.2971 121.927C73.1628 122 73.0519 122.117 72.9935 122.27C72.8329 122.681 73.119 123.074 73.5365 123.171C74.0562 123.361 74.5847 123.446 75.1073 123.514C75.1598 123.602 75.2299 123.684 75.3292 123.752C76.2226 124.514 77.3058 125.231 78.2371 125.959C78.567 126.22 78.8853 126.492 79.1918 126.776C78.3218 126.254 77.4079 125.804 76.462 125.438C75.1482 124.965 73.8577 124.406 72.3132 124.659C71.449 124.778 71.1979 125.954 71.9541 126.396C73.0314 127.099 74.3336 127.277 75.5102 127.753C77.4926 128.521 79.3553 129.595 80.9144 131.009C81.8253 131.794 82.5757 132.713 83.2589 133.693C83.253 133.724 83.2443 133.753 83.2355 133.784C82.1815 132.523 80.8064 131.517 79.2385 130.93C78.3101 130.559 77.3233 130.327 76.2401 130.661C76.0941 130.706 75.9598 130.8 75.8722 130.939C75.6299 131.31 75.8313 131.752 76.2226 131.928C76.9408 132.364 77.7262 132.562 78.4765 132.829C79.9889 133.398 81.3378 134.339 82.3888 135.552C82.8005 136.006 83.1742 136.513 83.5041 137.032L83.8545 137.559L83.8924 137.618C83.9537 137.709 84.0355 137.78 84.1289 137.831C84.1289 137.862 84.1289 137.893 84.1289 137.924C84.1172 138.61 84.272 139.585 84.3333 140.279C84.38 140.577 84.4355 140.874 84.4939 141.172C84.8442 144.972 85.761 150.192 88.1463 153.25L89.7754 152.051C86.7858 148.22 86.3829 139.99 86.3303 137.369C86.4296 137.261 86.523 137.162 86.6164 137.094C87.3726 136.385 88.2426 135.782 89.1886 135.365C89.4485 135.249 89.8718 135.093 90.1492 135.014C91.1418 134.682 92.1695 134.753 93.1768 134.396C93.3491 134.342 93.5155 134.263 93.606 134.096C94.1082 132.908 91.4747 132.871 90.8353 133.081C89.2382 133.347 87.758 134.107 86.5872 135.184C86.6281 134.949 86.669 134.716 86.7157 134.481C87.1274 133.909 87.5682 133.364 88.0733 132.866C89.4455 131.534 91.098 130.488 92.8936 129.763C93.8454 129.357 94.8965 129.187 95.7811 128.626C96.5168 128.275 96.3825 127.215 95.5592 127.087C94.2454 126.9 93.1564 127.388 92.0498 127.81C91.2353 128.144 90.4528 128.55 89.7054 129.017C90.2513 128.164 90.8382 127.34 91.4747 126.54C92.7739 124.851 94.2921 123.355 95.5183 121.601C95.5972 121.499 95.641 121.377 95.6468 121.249C98.5489 120.915 100.222 122.386 102.496 123.945C102.663 124.061 102.885 124.095 103.089 124.013C103.398 123.888 103.544 123.542 103.413 123.242C102.917 122.094 101.95 121.184 100.823 120.569C98.6248 119.283 96.0935 119.138 93.9359 120.005C94.0147 119.952 94.0936 119.898 94.1753 119.849C95.9037 118.685 98.0088 118.177 100.102 118.101C100.946 118.09 101.807 118.09 102.671 117.891C103.241 117.82 103.407 117.055 102.899 116.778C102.654 116.641 102.432 116.554 102.193 116.48C100.543 116.012 98.7766 116.304 97.1387 116.712C96.1607 116.982 95.2059 117.401 94.3534 117.959C94.476 117.792 94.5957 117.625 94.7067 117.463C94.9315 117.197 95.1855 116.908 95.4045 116.641C96.2336 115.797 97.1446 114.998 98.1694 114.38C99.8131 113.334 101.673 112.657 103.436 111.801C103.647 111.713 103.804 111.526 103.816 111.288C103.83 110.968 103.576 110.699 103.249 110.682C102.663 110.653 102.131 110.71 101.568 110.809C100.628 110.974 99.7372 111.294 98.8876 111.708C99.3226 111.345 99.7722 110.996 100.231 110.662C101.997 109.304 104.049 108.398 105.792 106.986C106.02 106.819 106.155 106.553 106.119 106.261C106.07 105.827 105.667 105.518 105.223 105.567L105.229 105.558ZM86.7303 119.728C87.0923 118.849 87.4894 117.988 87.8485 117.109C87.9448 117.594 88.0324 118.081 88.0937 118.571C87.6675 118.668 87.1945 119.079 86.7303 119.728Z" fill="url(#paint14_linear_3302_167256)"/>
<path d="M83.0851 140.323C82.8129 139.841 82.5709 139.335 82.3811 138.824C81.8174 137.394 81.6166 135.843 81.8064 134.328C81.9136 133.582 82.0979 132.84 82.0456 132.045C82.0704 131.641 81.7844 131.27 81.3581 131.3C81.2014 131.311 81.0611 131.377 80.9566 131.479C80.1839 132.224 79.9446 133.148 79.8456 134.088C79.6971 135.252 79.7906 136.437 80.0959 137.564C79.7136 137.023 79.3699 136.459 79.0811 135.857C78.1709 134.066 77.6539 132.089 77.4531 130.09C77.3129 128.896 77.4889 127.67 77.1149 126.507C76.9004 125.706 75.7399 125.616 75.4016 126.366C74.7636 127.697 74.9479 129.015 75.0469 130.332C75.1624 131.481 75.4016 132.623 75.7509 133.728C75.1514 132.975 74.5766 132.199 74.0321 131.399C72.8744 129.675 71.8321 127.893 70.5231 126.256C70.0694 125.679 69.1206 126.105 69.2499 126.826C69.7064 129.226 71.1199 131.688 72.8304 133.844C72.0301 133.527 71.2106 133.263 70.3884 133.052C68.4166 132.57 66.3871 132.196 64.3549 132.328C63.6536 132.392 62.9936 132.51 62.3199 132.779C61.9321 132.939 61.7479 133.382 61.9074 133.769C62.0064 134.009 62.2099 134.165 62.4464 134.223C64.6464 134.803 66.8904 134.751 69.0959 135.155C67.9794 135.219 66.8794 135.466 65.9004 136.052C65.3201 136.385 65.4934 137.309 66.1451 137.413L66.3431 137.449C67.6686 137.57 69.1014 137.523 70.4351 137.589C73.3859 137.74 76.2596 138.648 78.9216 139.946C79.2351 140.116 80.0106 140.526 80.3324 140.697C80.3846 140.727 80.4341 140.757 80.4864 140.787C80.4891 140.787 80.4919 140.79 80.4974 140.793C80.7779 140.958 81.0584 141.126 81.3389 141.296L81.3334 141.302C81.3829 141.348 86.3934 146.117 86.0826 151.845L88.0049 151.95C88.3074 146.323 84.4134 141.731 83.0796 140.331L83.0851 140.323Z" fill="url(#paint15_linear_3302_167256)"/>
<g opacity="0.6">
<path d="M94.5548 158.507C94.9249 155.827 88.6692 152.764 80.5824 151.665C72.4956 150.566 65.64 151.848 65.27 154.527C64.8999 157.207 71.1556 160.271 79.2424 161.37C87.3292 162.469 94.1848 161.187 94.5548 158.507Z" fill="url(#paint16_linear_3302_167256)" style="mix-blend-mode:multiply"/>
</g>
<path d="M100.075 144.45L96.1069 155.149C95.7884 156.012 95.165 157.955 95.0771 158.164C94.0116 160.659 90.7685 161.775 85.452 161.775C80.1355 161.775 77.0544 160.717 75.8269 158.164C75.7225 157.947 75.0964 156.053 74.7971 155.248L70.925 144.816C73.2043 145.662 78.702 146.256 85.1225 146.256C92.4299 146.256 98.5427 145.486 100.075 144.45Z" fill="#EDF7F1"/>
<path d="M152.363 146.65C160.488 146.65 167.075 145.604 167.075 144.313C167.075 143.022 160.488 141.975 152.363 141.975C144.237 141.975 137.65 143.022 137.65 144.313C137.65 145.604 144.237 146.65 152.363 146.65Z" fill="url(#paint17_linear_3302_167256)"/>
<path d="M154.07 148.584C154.07 148.584 156.171 140.65 162.364 135.477C168.557 130.304 158.762 146.887 156.765 148.584C154.769 150.28 154.068 148.584 154.068 148.584H154.07Z" fill="url(#paint18_linear_3302_167256)"/>
<path d="M154.238 151.045C155.393 148.614 156.515 146.166 157.618 143.711C159.51 139.503 161.946 135.081 162.843 130.527C162.881 130.332 162.917 130.128 162.87 129.933C162.488 128.33 160.153 131.16 159.867 131.528C159.097 132.524 158.358 133.602 157.788 134.726C156.642 136.981 155.949 139.434 155.28 141.863C154.758 143.771 154.279 145.691 153.828 147.616C153.776 147.838 153.075 150.033 153.248 150.184L154.238 151.042V151.045Z" fill="#005D00"/>
<path d="M156.015 152.109C147.294 136.926 149.97 127.659 149.97 127.659" stroke="url(#paint19_linear_3302_167256)" stroke-width="1.925" stroke-miterlimit="10"/>
<path d="M163.842 120.678C161.941 120.626 161.871 121.458 161.052 121.585C161.383 121.534 162.023 120.842 162.3 120.629C162.855 120.201 163.393 119.758 163.894 119.266C165.066 118.118 166.001 116.919 166.368 115.288C166.796 113.394 166.705 111.411 166.705 109.486C166.705 109.486 166.04 109.109 165.794 109.055C163.894 108.633 156.218 107.403 155.243 113.831C155.243 113.831 155.073 114.939 155.043 115.094C156.458 110.366 154.293 105.15 150.355 103.75C150.309 103.735 146.587 104.443 145.497 108.681C144.935 110.867 145.044 113.293 146.347 115.136C144.264 112.883 140.83 111.724 137.836 112.458C136.819 112.707 135.847 113.148 134.976 113.728C134.8 113.846 133.983 114.286 133.947 114.529C133.947 114.529 132.349 121.771 139.7 123.857C140.563 124.103 142.339 124.011 143.013 124.039C142.518 124.2 141.99 124.467 141.355 124.704C134.569 127.224 136.907 135.443 137.539 137.499C137.539 137.499 146.177 139.612 148.988 133.892C149.11 133.643 149.338 133.485 149.483 133.278C149.842 136.308 150.904 141.13 158.768 141.13C158.768 141.13 162.491 138.744 161.37 133.403C161.191 132.546 160.229 131.444 159.965 130.843C162.709 132.206 166.338 132.17 169.541 129.158C169.541 129.158 170.027 120.851 163.842 120.684V120.678ZM158.328 123.316C157.718 124.418 156.986 126.422 157.976 128.633C157.098 128.117 156.318 127.986 156.318 127.986C156.318 127.986 152.583 127.883 150.337 130.127C150.039 127.184 147.167 124.707 147.167 124.707C147.167 124.707 146.866 123.747 145.345 123.659C148.123 122.466 148.19 118.95 148.19 118.95C148.19 118.95 148.129 118.118 147.64 117.043C150.261 119.557 154.606 117.672 155.046 115.094C154.839 117.149 154.976 121.148 158.768 122.709C158.601 122.897 158.45 123.098 158.328 123.316Z" fill="url(#paint20_radial_3302_167256)"/>
<path d="M150.355 108.229C150.355 108.229 151.287 109.562 150.47 112.049L150.355 108.229Z" fill="url(#paint21_radial_3302_167256)"/>
<path d="M150.355 108.229C150.355 108.229 151.287 109.562 150.47 112.049" stroke="#FFF9BD" stroke-width="0.291958" stroke-miterlimit="10" stroke-linecap="round"/>
<path d="M142.193 132.923C142.193 132.923 142.296 131.077 143.674 130.676L142.193 132.923Z" fill="url(#paint22_radial_3302_167256)"/>
<path d="M142.193 132.923C142.193 132.923 142.296 131.077 143.674 130.676" stroke="#FFF9BD" stroke-width="0.330688" stroke-miterlimit="10" stroke-linecap="round"/>
<path d="M159.203 114.936C159.203 114.936 160.548 112.061 162.701 111.557L159.203 114.936Z" fill="url(#paint23_radial_3302_167256)"/>
<path d="M159.203 114.936C159.203 114.936 160.548 112.061 162.701 111.557" stroke="#FFF9BD" stroke-width="0.330688" stroke-miterlimit="10" stroke-linecap="round"/>
<path d="M163.407 126.207C163.407 126.207 165.35 125.211 166.705 126.711L163.407 126.207Z" fill="url(#paint24_radial_3302_167256)"/>
<path d="M163.407 126.207C163.407 126.207 165.35 125.211 166.705 126.711" stroke="#FFF9BD" stroke-width="0.330688" stroke-miterlimit="10" stroke-linecap="round"/>
<path d="M155.292 134.991C155.292 134.991 156.182 135.313 156.17 137.493L155.292 134.991Z" fill="url(#paint25_radial_3302_167256)"/>
<path d="M155.292 134.991C155.292 134.991 156.182 135.313 156.17 137.493" stroke="#FFF9BD" stroke-width="0.330688" stroke-miterlimit="10" stroke-linecap="round"/>
<path d="M142.558 129.959C142.558 129.959 141.456 130.309 141.052 131.329L142.558 129.959Z" fill="url(#paint26_radial_3302_167256)"/>
<path d="M142.558 129.959C142.558 129.959 141.456 130.309 141.052 131.329" stroke="#FFF9BD" stroke-width="0.330688" stroke-miterlimit="10" stroke-linecap="round"/>
<path d="M139.697 117.298C139.697 117.298 142.232 117.666 142.691 119.065L139.697 117.298Z" fill="url(#paint27_radial_3302_167256)"/>
<path d="M139.697 117.298C139.697 117.298 142.232 117.666 142.691 119.065" stroke="#FFF9BD" stroke-width="0.330688" stroke-miterlimit="10" stroke-linecap="round"/>
<path d="M134.908 128.74C134.908 128.74 134.186 134.022 146.34 146.142C153.418 153.197 154.842 156.511 154.794 158.049C154.776 158.652 155.347 159.113 155.968 159.011C156.385 158.943 156.714 158.635 156.786 158.239C157.086 156.528 157.238 151.766 151.23 146.872C148.689 144.802 146.486 142.373 144.619 139.737C142.717 137.051 141.51 134.076 139.798 131.305C139.117 130.202 138.341 129.156 137.429 128.214C137.054 127.827 136.406 127.1 135.779 127.126C135.006 127.157 134.938 128.197 134.908 128.743V128.74Z" fill="url(#paint28_linear_3302_167256)"/>
<path d="M150.883 114.155C150.641 114.625 150.191 114.964 149.613 114.659C149.014 114.341 147.854 113.984 146.578 114.949C144.721 116.351 144.342 117.13 144.596 118.884C144.85 120.637 143.54 120.311 142.769 121.548C141.998 122.785 141.5 123.934 143.993 125.932C143.993 125.932 144.639 126.445 144.486 127.016C144.333 127.588 142.265 130.383 146.456 131.648C146.621 131.697 146.796 131.688 146.964 131.648C147.261 131.572 147.802 131.562 148.212 132.293C148.803 133.347 149.864 135.366 152.816 134.061C152.859 134.043 152.899 134.022 152.936 133.997C153.208 133.829 154.557 133.056 155.744 133.594C157.072 134.196 159.513 132.836 159.623 131.465C159.691 130.606 160.208 129.784 161.061 129.528C161.321 129.448 161.6 129.427 161.848 129.314C162.261 129.124 162.53 128.703 162.643 128.263C162.857 127.444 162.716 126.528 162.508 125.724C162.334 125.049 161.936 124.322 161.961 123.613C161.991 122.712 162.756 122.107 162.955 121.273C163.059 120.845 162.955 120.387 162.741 120.002C162.426 119.431 161.97 119.064 161.404 118.777C160.957 118.551 160.419 118.331 160.226 117.827C160.04 117.338 160.15 116.794 160.036 116.29C159.951 115.914 159.789 115.551 159.565 115.236C159.079 114.558 158.299 114.167 157.46 114.216C157.262 114.228 157.072 114.304 156.919 114.433C156.904 114.445 156.888 114.457 156.873 114.469C156.325 114.894 155.506 114.512 155.417 113.843C155.398 113.696 155.411 113.541 155.346 113.412C155.291 113.302 155.187 113.226 155.08 113.165C154.248 112.664 151.342 112.352 151.042 113.718C151.008 113.867 150.956 114.02 150.883 114.161V114.155Z" fill="url(#paint29_radial_3302_167256)"/>
<path d="M152.363 130.197C156.084 130.197 159.1 127.181 159.1 123.46C159.1 119.739 156.084 116.722 152.363 116.722C148.642 116.722 145.625 119.739 145.625 123.46C145.625 127.181 148.642 130.197 152.363 130.197Z" fill="url(#paint30_radial_3302_167256)"/>
<g opacity="0.6">
<path d="M161.555 158.507C161.925 155.827 155.669 152.764 147.582 151.665C139.496 150.566 132.64 151.848 132.27 154.527C131.9 157.207 138.156 160.271 146.242 161.37C154.329 162.469 161.185 161.187 161.555 158.507Z" fill="url(#paint31_linear_3302_167256)" style="mix-blend-mode:multiply"/>
</g>
<path d="M167.075 144.45L163.107 155.149C162.788 156.012 162.165 157.955 162.077 158.164C161.012 160.659 157.768 161.775 152.452 161.775C147.136 161.775 144.054 160.717 142.827 158.164C142.723 157.947 142.096 156.053 141.797 155.248L137.925 144.816C140.204 145.662 145.702 146.256 152.122 146.256C159.43 146.256 165.543 145.486 167.075 144.45Z" fill="#EDF7F1"/>
<path d="M219.363 146.65C227.488 146.65 234.075 145.604 234.075 144.313C234.075 143.022 227.488 141.975 219.363 141.975C211.237 141.975 204.65 143.022 204.65 144.313C204.65 145.604 211.237 146.65 219.363 146.65Z" fill="url(#paint32_linear_3302_167256)"/>
<path d="M208.719 133.583C214.953 132.383 220.918 136.805 222.043 143.46C222.356 145.312 222.26 147.14 221.825 148.839C221.41 150.476 220.679 151.996 219.691 153.302C219.513 152.436 219.227 151.538 218.825 150.758C218.424 149.977 217.788 149.423 217.508 148.619C217.387 148.272 217.348 147.9 217.293 147.533C216.771 143.935 214.211 139.232 210.655 138.304C207.231 137.41 203.461 139.452 202.188 142.991C201.327 145.388 202.102 148.495 204.239 149.675C201.602 148.217 199.482 146.259 199.718 142.729C200.037 137.952 204.61 134.378 208.719 133.586V133.583Z" fill="url(#paint33_linear_3302_167256)"/>
<path d="M196.125 109.055C196.125 109.055 214.476 104.149 217.063 144.651L219.827 145.185C219.827 145.185 220.908 112.72 206.264 108.413C203.817 107.694 199.296 107.749 196.125 109.055Z" fill="url(#paint34_linear_3302_167256)"/>
<path d="M200.346 137.142C197.662 135.992 195.3 132.444 195.3 127.576C195.3 120.822 200.943 117.829 200.943 117.829C200.943 117.829 193.375 132.931 204.733 136.139C204.733 136.139 203.228 138.375 200.344 137.142H200.346Z" fill="url(#paint35_linear_3302_167256)"/>
<path d="M240.769 136.538C240.582 136.837 240.389 137.122 240.18 137.392C241.14 135.464 241.437 133.316 241.134 131.277C240.744 128.68 239.38 126.256 237.166 124.683C235.073 123.196 225.066 121.593 221.238 128.539C220.988 128.991 220.724 129.425 220.509 129.883C220.663 128.131 221.255 126.344 222.327 124.627C225.718 119.196 232.596 117.726 237.689 121.347C242.207 124.56 243.805 129.765 241.728 134.692C241.467 135.314 241.148 135.93 240.769 136.538Z" fill="url(#paint36_linear_3302_167256)"/>
<path d="M240.18 106.549C240.18 106.549 227.621 101.003 220.542 118.433C213.464 135.863 216.508 138.979 216.508 138.979L220.124 138.099C220.124 138.099 219.907 114.038 232.606 107.562C236.247 105.704 240.18 106.549 240.18 106.549Z" fill="url(#paint37_linear_3302_167256)"/>
<path d="M203.338 142.75C202.365 143.419 201.185 143.757 199.942 143.636C196.972 143.352 194.78 140.552 195.047 137.38C195.242 135.042 196.719 133.158 198.677 132.445C197.324 133.372 196.373 134.936 196.219 136.776C195.952 139.948 198.144 142.75 201.116 143.035C201.895 143.111 202.648 143.005 203.341 142.75H203.338Z" fill="url(#paint38_linear_3302_167256)"/>
<path d="M227.972 105.527C228.01 105.527 228.049 105.53 228.09 105.533C228.879 105.586 229.572 105.997 230.26 106.387C231.591 107.141 232.881 108.18 233.684 109.562C233.763 109.7 233.84 109.844 233.909 109.99C233.909 109.99 232.531 105.111 228.395 104.002C224.875 103.057 221.801 104.794 220.522 108.872C220.14 110.093 220.233 111.584 220.167 112.851C219.265 110.595 217.926 108.409 215.905 107.238C213.125 105.627 209.519 106.232 207.069 108.25C204.619 110.269 203.678 113.13 203.843 116.32C203.714 113.867 205.315 111.49 207.471 110.624C209.822 109.679 212.726 110.334 214.351 112.417C215.58 113.99 215.831 116.056 215.602 118.028C215.575 118.274 215.118 119.729 215.201 119.856C215.206 119.864 214.742 122.138 214.626 122.904C214.148 126.097 215.594 126.035 218.586 126.543C221.578 127.051 225.013 125.786 225.489 122.593C225.535 122.285 225.549 121.983 225.552 121.681C225.995 120.577 225.387 118.224 224.636 116.329C224.015 114.762 223.569 113.095 223.514 111.387C223.456 109.615 223.693 107.819 225.027 106.601C225.838 105.862 226.905 105.486 227.969 105.527H227.972Z" fill="url(#paint39_linear_3302_167256)"/>
<path d="M244.902 126.682C244.902 126.682 245.268 121.089 242.166 118.51C239.262 116.095 232.78 115.876 228.438 124.925C220.031 142.437 224.343 150.42 224.343 150.42L217.784 149.285C217.784 149.285 215.051 115.892 231.633 112.541C236.968 111.464 248.287 114.17 244.905 126.685L244.902 126.682Z" fill="url(#paint40_linear_3302_167256)"/>
<path d="M218.807 160.667C219.107 159.496 214.465 141.588 213.962 140.203C211.005 132.049 206.033 131.171 202.665 131.303C200.99 131.368 199.653 131.749 198.611 132.465C196.686 133.199 195.24 135.068 195.047 137.38C195.042 137.459 195.036 137.539 195.033 137.615C195.028 137.483 195.025 137.348 195.025 137.213C195.025 130.303 199.508 125.728 205.31 125.728C214.624 125.728 219.574 134.023 220.394 140.878C221.994 154.264 220.292 158.507 218.807 160.667Z" fill="url(#paint41_linear_3302_167256)"/>
<path d="M195.3 127.577C195.3 127.577 195.773 116.28 207.4 121.075C216.819 124.96 216.123 147.706 216.123 147.706L224.343 148.354C224.343 148.354 232.013 121.488 215.238 114.613C202.951 109.862 197.885 118.533 197.123 120.035C195.476 123.284 195.3 127.577 195.3 127.577Z" fill="url(#paint42_linear_3302_167256)"/>
<path d="M236.327 148.108C234.575 148.698 232.656 148.721 230.899 148.149C232.018 148.149 233.145 147.817 234.21 147.477C235.37 147.107 236.495 146.579 237.485 145.828C239.809 144.064 241.01 141.086 240.309 138.099C239.798 135.922 238.326 134.126 236.374 133.292C233.585 132.101 230.203 132.154 227.989 134.566C226.378 136.321 226.169 138.668 225.869 140.98C225.822 141.344 225.231 147.036 225.765 147.021C224.802 147.048 223.809 147.062 222.8 147.062C221.527 147.062 220.245 145.649 219.005 145.611C218.884 147.009 219.019 141.864 219.038 141.585C219.164 139.672 219.45 137.767 219.976 135.933C221.425 130.866 225.063 127.271 230.14 127.092C236.151 126.881 242.009 131.303 242.586 137.987C242.927 141.928 240.958 145.769 237.633 147.544C237.213 147.767 236.778 147.955 236.33 148.108H236.327Z" fill="url(#paint43_linear_3302_167256)"/>
<path d="M206.718 132.509C206.718 132.509 205.47 137.545 201.625 137.489C201.625 137.489 203.652 138.011 204.908 136.832C207.293 134.593 206.718 132.506 206.718 132.506V132.509Z" fill="url(#paint44_linear_3302_167256)"/>
<path d="M227.964 130.49C227.964 130.49 233.06 128.028 237.328 131.065" stroke="#D4F7CA" stroke-width="0.23375" stroke-miterlimit="10" stroke-linecap="round"/>
<path d="M231.57 116.062C231.57 116.062 235.579 113.58 239.723 115.182" stroke="#D4F7CA" stroke-width="0.23375" stroke-miterlimit="10" stroke-linecap="round"/>
<path d="M202.667 116.822C202.667 116.822 207.163 115.106 211.882 118.383" stroke="#D4F7CA" stroke-width="0.23375" stroke-miterlimit="10" stroke-linecap="round"/>
<path d="M198.267 129.921C198.267 129.921 200.608 127.06 207.224 128.378" stroke="#D4F7CA" stroke-width="0.23375" stroke-miterlimit="10" stroke-linecap="round"/>
<g opacity="0.6">
<path d="M228.555 158.507C228.925 155.827 222.669 152.764 214.582 151.665C206.496 150.566 199.64 151.848 199.27 154.527C198.9 157.207 205.156 160.271 213.242 161.37C221.329 162.469 228.185 161.187 228.555 158.507Z" fill="url(#paint45_linear_3302_167256)" style="mix-blend-mode:multiply"/>
</g>
<path d="M234.075 144.45L230.107 155.149C229.788 156.012 229.165 157.955 229.077 158.164C228.012 160.659 224.768 161.775 219.452 161.775C214.136 161.775 211.054 160.717 209.827 158.164C209.723 157.947 209.096 156.053 208.797 155.248L204.925 144.816C207.204 145.662 212.702 146.256 219.122 146.256C226.43 146.256 232.543 145.486 234.075 144.45Z" fill="#EDF7F1"/>
<path d="M286.363 146.65C294.488 146.65 301.075 145.604 301.075 144.313C301.075 143.022 294.488 141.975 286.363 141.975C278.237 141.975 271.65 143.022 271.65 144.313C271.65 145.604 278.237 146.65 286.363 146.65Z" fill="url(#paint46_linear_3302_167256)"/>
<g opacity="0.6">
<path d="M295.555 158.507C295.925 155.827 289.669 152.764 281.582 151.665C273.496 150.566 266.64 151.848 266.27 154.527C265.9 157.207 272.156 160.271 280.242 161.37C288.329 162.469 295.185 161.187 295.555 158.507Z" fill="url(#paint47_linear_3302_167256)" style="mix-blend-mode:multiply"/>
</g>
<path d="M276.583 135.114C276.534 135.095 276.482 135.076 276.432 135.057C275.629 134.743 274.983 134.273 274.436 133.602C274.414 133.574 274.392 133.55 274.37 133.522C273.897 132.925 273.707 132.452 273.198 131.886C272.783 131.421 271.961 130.904 271.375 130.709C270.118 130.291 268.696 130.291 267.42 130.624C260.474 132.43 262.773 141.646 261.475 144.431C261.475 144.431 273.019 141.401 273.982 141.519C275.868 141.747 277.62 139.825 278.134 138.181C278.387 137.375 278.376 136.445 277.774 135.796C277.439 135.433 277.023 135.282 276.583 135.117V135.114Z" fill="url(#paint48_linear_3302_167256)"/>
<path d="M273.855 136.498C273.855 136.498 275.442 132.013 282.405 133.858C289.368 135.703 286.717 142.738 286.717 142.738" stroke="#004300" stroke-width="1.375" stroke-miterlimit="10"/>
<path d="M273.567 135.376C273.567 135.376 270.319 135.324 265.41 140.485" stroke="#004300" stroke-width="0.275" stroke-miterlimit="10" stroke-linecap="round"/>
<path d="M302.027 134.543C303.932 136.008 305.959 140.917 306.46 142.57C306.493 142.762 306.539 142.927 306.603 143.057C306.603 143.057 309.685 142.234 309.966 138.723C309.966 138.723 312.919 135.992 312.05 132.411C312.05 132.411 313.678 129.109 312.114 127.104C312.004 126.964 311.877 126.911 311.737 126.931L311.742 126.914C311.742 126.914 311.74 126.92 311.734 126.931C311.333 126.988 305.5 132.057 300.819 130.882C300.179 130.723 298.727 130.096 298.19 131.086C297.654 132.076 299.651 132.711 302.029 134.54L302.027 134.543Z" fill="url(#paint49_linear_3302_167256)"/>
<path d="M298.482 132.554C298.845 132.997 299.496 133.434 300.64 133.726C300.64 133.726 300.456 132.062 298.99 131.204C299.697 131.396 300.734 131.446 301.691 130.593C301.691 130.593 300.657 129.766 299.584 129.873C298.297 130.002 297.665 131.553 298.484 132.554H298.482Z" fill="#059400"/>
<path d="M275.781 109.177C273.094 106.542 269.497 109.589 268.889 112.438C267.938 116.896 270.454 121.642 272.734 125.292C274.835 128.655 277.939 132.106 282.012 132.893C282.419 132.972 282.834 133.022 283.25 133.041C283.25 133.041 288.678 139.047 285.95 153.908" stroke="#249C01" stroke-width="1.65" stroke-miterlimit="10"/>
<path d="M277.755 109.141C275.695 106.792 273.795 108.473 274.507 111.162C274.755 112.094 274.433 117.652 274.906 118.505C276.704 121.733 279.309 126.502 279.309 126.502C279.309 126.502 291.189 122.201 290.416 118.106C289.643 114.011 288.54 115.909 284.248 112.411C283.368 111.693 278.346 109.815 277.755 109.141Z" fill="url(#paint50_linear_3302_167256)"/>
<path d="M278.954 110.139C277.934 110.271 277.199 110.084 276.674 109.771C276.666 110.513 276.501 111.121 276.501 111.121C276.055 110.975 275.712 110.783 275.445 110.563C275.434 111.335 275.197 112.18 274.463 112.897C274.463 112.897 272.986 109.963 274.636 108.475C276.968 106.468 278.954 110.139 278.954 110.139Z" fill="#46A300"/>
<path d="M278.816 113.508C276.361 113.975 271.622 120.253 271.622 120.253C271.622 120.253 272.431 128.891 274.526 129.65C274.216 132.34 279.361 137.254 279.361 137.254C279.361 137.254 287.072 139.047 288.862 137.449C292.874 138.269 297.063 135.343 297.063 135.343C297.063 135.343 299.835 130.976 299.208 128.44C300.803 127.777 301.273 120.135 301.273 120.135C301.273 120.135 297.882 114.324 294.761 113.818C294.093 111.778 287.121 109.141 287.121 109.141C287.121 109.141 279.438 111.129 278.814 113.508H278.816Z" fill="url(#paint51_radial_3302_167256)"/>
<path d="M295.075 114.638C295.075 114.638 293.323 119.024 290.6 120.311" stroke="#4D6BE3" stroke-width="0.275" stroke-miterlimit="10" stroke-linecap="round"/>
<path d="M287.512 129.766C287.512 129.766 289.244 133.431 288.749 136.316" stroke="#4D6BE3" stroke-width="0.275" stroke-miterlimit="10" stroke-linecap="round"/>
<path d="M292.094 126.686C292.094 126.686 297.242 126.686 298.41 128.322" stroke="#4D6BE3" stroke-width="0.275" stroke-miterlimit="10" stroke-linecap="round"/>
<path d="M276.185 129.766C276.185 129.766 279.906 128.751 281.047 127.115" stroke="#4D6BE3" stroke-width="0.275" stroke-miterlimit="10" stroke-linecap="round"/>
<path d="M301.075 144.45L297.107 155.149C296.788 156.012 296.165 157.955 296.077 158.164C295.012 160.659 291.768 161.775 286.452 161.775C281.136 161.775 278.054 160.717 276.827 158.164C276.723 157.947 276.096 156.053 275.797 155.248L271.925 144.816C274.204 145.662 279.702 146.256 286.122 146.256C293.43 146.256 299.543 145.486 301.075 144.45Z" fill="#EDF7F1"/>
<path d="M279.87 113.703C279.87 113.703 282.765 115.194 283.805 119.814" stroke="#4D6BE3" stroke-width="0.275" stroke-miterlimit="10" stroke-linecap="round"/>
<path d="M286.717 146.156C286.717 146.156 284.63 135.686 275.582 140.656" stroke="#249C01" stroke-width="1.65" stroke-miterlimit="10"/>
<path d="M277.111 139.096C276.46 139.286 275.789 138.907 275.602 138.255C275.219 136.916 274.188 135.211 271.4 136.091C267.052 137.463 265.506 141.354 266.48 146.563C267.453 151.768 266.708 153.6 266.708 153.6C266.708 153.6 271.914 152.228 278.203 150.968C284.468 149.714 284.542 143.359 282.9 141.184C280.92 138.557 278.544 138.681 277.109 139.096H277.111Z" fill="url(#paint52_linear_3302_167256)"/>
<path d="M269.203 149.822C271.414 142.38 274.884 140.634 274.884 140.634" stroke="#8ACC4A" stroke-width="0.275" stroke-miterlimit="10" stroke-linecap="round"/>
<path d="M290.815 139.105C290.501 139.069 290.185 139.066 289.86 139.121C287.537 139.517 286.676 142.781 287.432 144.723C288.606 147.74 290.801 149.821 297.079 149.593C300.536 149.469 302.359 151.441 302.359 151.441C302.359 151.441 303.495 147.25 302.359 143.67C301.531 141.057 299.067 138.181 296.141 138.013C295.391 137.969 294.761 138.274 294.247 138.802C293.735 139.325 292.984 139.539 292.269 139.388C291.785 139.286 291.304 139.157 290.817 139.105H290.815Z" fill="url(#paint53_linear_3302_167256)"/>
<path d="M299.769 146.99C299.791 147.063 299.867 147.104 299.94 147.082C300.013 147.06 300.054 146.984 300.032 146.911L299.769 146.99ZM294.307 140.634C294.265 140.765 294.265 140.765 294.265 140.765C294.265 140.765 294.265 140.765 294.265 140.765C294.265 140.765 294.265 140.765 294.265 140.765C294.265 140.765 294.266 140.765 294.267 140.765C294.268 140.766 294.271 140.767 294.275 140.768C294.282 140.77 294.293 140.774 294.307 140.779C294.336 140.79 294.379 140.806 294.435 140.828C294.547 140.873 294.709 140.942 294.909 141.042C295.31 141.24 295.86 141.557 296.457 142.027C297.65 142.968 299.029 144.525 299.769 146.99L300.032 146.911C299.273 144.382 297.856 142.781 296.627 141.811C296.013 141.327 295.446 141.001 295.031 140.795C294.824 140.693 294.655 140.62 294.537 140.573C294.478 140.549 294.432 140.532 294.4 140.52C294.384 140.515 294.372 140.51 294.363 140.508C294.359 140.506 294.356 140.505 294.353 140.504C294.352 140.504 294.351 140.504 294.351 140.503C294.35 140.503 294.35 140.503 294.35 140.503C294.35 140.503 294.35 140.503 294.35 140.503C294.349 140.503 294.349 140.503 294.307 140.634Z" fill="#8ACC4A"/>
<mask id="mask0_3302_167256" style="mask-type:luminance" maskUnits="userSpaceOnUse" x="287" y="138" width="16" height="14">
<path d="M290.815 139.105C290.501 139.069 290.185 139.066 289.86 139.121C287.537 139.517 286.676 142.781 287.432 144.723C288.606 147.74 290.801 149.821 297.079 149.593C300.536 149.469 302.359 151.441 302.359 151.441C302.359 151.441 303.495 147.25 302.359 143.67C301.531 141.057 299.067 138.181 296.141 138.013C295.391 137.969 294.761 138.274 294.247 138.802C293.735 139.325 292.984 139.539 292.269 139.388C291.785 139.286 291.304 139.157 290.817 139.105H290.815Z" fill="white"/>
</mask>
<g mask="url(#mask0_3302_167256)">
<path d="M288.837 138.61C288.837 138.61 287.787 140.334 286.879 142.207C286.879 142.207 293.752 140.991 295.583 141.481C295.583 141.481 297.195 138.337 299.18 138.112C301.166 137.886 292.583 136.234 288.837 138.61Z" fill="url(#paint54_linear_3302_167256)"/>
</g>
<mask id="mask1_3302_167256" style="mask-type:luminance" maskUnits="userSpaceOnUse" x="266" y="135" width="18" height="19">
<path d="M277.111 139.096C276.46 139.286 275.789 138.907 275.602 138.255C275.219 136.916 274.188 135.211 271.4 136.091C267.052 137.463 265.506 141.354 266.48 146.563C267.453 151.768 266.708 153.6 266.708 153.6C266.708 153.6 271.914 152.228 278.203 150.968C284.468 149.714 284.542 143.359 282.9 141.184C280.92 138.557 278.544 138.681 277.109 139.096H277.111Z" fill="white"/>
</mask>
<g mask="url(#mask1_3302_167256)">
<path d="M267.365 138.216C267.365 138.216 273.099 143.989 283.687 142.737C294.274 141.486 275.932 132.012 272.123 133.726C268.314 135.436 267.365 138.216 267.365 138.216Z" fill="url(#paint55_linear_3302_167256)"/>
</g>
</g>
<defs>
<filter id="filter0_d_3302_167256" x="88.7642" y="47.6585" width="126.179" height="46.3089" filterUnits="userSpaceOnUse" color-interpolation-filters="sRGB">
<feFlood flood-opacity="0" result="BackgroundImageFix"/>
<feColorMatrix in="SourceAlpha" type="matrix" values="0 0 0 0 0 0 0 0 0 0 0 0 0 0 0 0 0 0 127 0" result="hardAlpha"/>
<feOffset dy="2.89431"/>
<feGaussianBlur stdDeviation="3.61789"/>
<feComposite in2="hardAlpha" operator="out"/>
<feColorMatrix type="matrix" values="0 0 0 0 0 0 0 0 0 0 0 0 0 0 0 0 0 0 0.1 0"/>
<feBlend mode="normal" in2="BackgroundImageFix" result="effect1_dropShadow_3302_167256"/>
<feBlend mode="normal" in="SourceGraphic" in2="effect1_dropShadow_3302_167256" result="shape"/>
</filter>
<linearGradient id="paint0_linear_3302_167256" x1="18.3625" y1="141.975" x2="18.3625" y2="146.65" gradientUnits="userSpaceOnUse">
<stop stop-color="#706547"/>
<stop offset="1" stop-color="#4E4632"/>
</linearGradient>
<linearGradient id="paint1_linear_3302_167256" x1="7.60819" y1="135.376" x2="-3.93084" y2="137.501" gradientUnits="userSpaceOnUse">
<stop stop-color="#A9BF26"/>
<stop offset="0.4" stop-color="#EAE7D0"/>
<stop offset="1" stop-color="#EAE7D0"/>
</linearGradient>
<linearGradient id="paint2_linear_3302_167256" x1="34.9442" y1="143.045" x2="27.6481" y2="138.755" gradientUnits="userSpaceOnUse">
<stop offset="0.53" stop-color="#F7F6ED"/>
<stop offset="0.87" stop-color="#F2EDC7"/>
</linearGradient>
<linearGradient id="paint3_linear_3302_167256" x1="24.6951" y1="133.814" x2="32.6377" y2="141.734" gradientUnits="userSpaceOnUse">
<stop stop-color="#A9BF26"/>
<stop offset="0.4" stop-color="#EAE7D0"/>
<stop offset="1" stop-color="#EAE7D0"/>
</linearGradient>
<linearGradient id="paint4_linear_3302_167256" x1="17.0905" y1="137.502" x2="17.4826" y2="127.072" gradientUnits="userSpaceOnUse">
<stop offset="0.06" stop-color="#A9BF26"/>
<stop offset="0.52" stop-color="#EAE7D0"/>
<stop offset="1" stop-color="#EAE7D0"/>
</linearGradient>
<radialGradient id="paint5_radial_3302_167256" cx="0" cy="0" r="1" gradientUnits="userSpaceOnUse" gradientTransform="translate(18.5316 124.901) rotate(-20.52) scale(18.0235)">
<stop offset="0.64" stop-color="#F7F6ED"/>
<stop offset="1" stop-color="#F2EDC7"/>
</radialGradient>
<radialGradient id="paint6_radial_3302_167256" cx="0" cy="0" r="1" gradientUnits="userSpaceOnUse" gradientTransform="translate(18.2272 125.337) rotate(-33.9612) scale(9.83536)">
<stop offset="0.231821" stop-color="#E0DAB6"/>
<stop offset="0.668238" stop-color="#F6F5EC"/>
<stop offset="1" stop-color="#F7F6ED"/>
</radialGradient>
<linearGradient id="paint7_linear_3302_167256" x1="15.1824" y1="168.547" x2="1.94362" y2="151.026" gradientUnits="userSpaceOnUse">
<stop stop-color="#4B985F"/>
<stop offset="1" stop-color="#88B53A" stop-opacity="0"/>
</linearGradient>
<linearGradient id="paint8_linear_3302_167256" x1="85.3625" y1="141.975" x2="85.3625" y2="146.65" gradientUnits="userSpaceOnUse">
<stop stop-color="#706547"/>
<stop offset="1" stop-color="#4E4632"/>
</linearGradient>
<linearGradient id="paint9_linear_3302_167256" x1="87.0699" y1="146.067" x2="70.7377" y2="117.371" gradientUnits="userSpaceOnUse">
<stop offset="0.17" stop-color="#294C0A"/>
<stop offset="0.96" stop-color="#709324"/>
</linearGradient>
<linearGradient id="paint10_linear_3302_167256" x1="82.1061" y1="153.404" x2="70.4983" y2="133.629" gradientUnits="userSpaceOnUse">
<stop offset="0.17" stop-color="#294C0A"/>
<stop offset="0.56" stop-color="#3B5E11"/>
<stop offset="0.96" stop-color="#709324"/>
</linearGradient>
<linearGradient id="paint11_linear_3302_167256" x1="87.3754" y1="153.404" x2="98.9832" y2="133.629" gradientUnits="userSpaceOnUse">
<stop offset="0.17" stop-color="#294C0A"/>
<stop offset="0.56" stop-color="#3B5E11"/>
<stop offset="0.96" stop-color="#709324"/>
</linearGradient>
<linearGradient id="paint12_linear_3302_167256" x1="83.4013" y1="136.384" x2="107.2" y2="136.384" gradientUnits="userSpaceOnUse">
<stop offset="0.17" stop-color="#294C0A"/>
<stop offset="0.96" stop-color="#709324"/>
</linearGradient>
<linearGradient id="paint13_linear_3302_167256" x1="84.2353" y1="142.513" x2="106.856" y2="127.366" gradientUnits="userSpaceOnUse">
<stop stop-color="#85B72C"/>
<stop offset="0.72" stop-color="#BAE213"/>
</linearGradient>
<linearGradient id="paint14_linear_3302_167256" x1="91.5068" y1="139.08" x2="86.765" y2="103.341" gradientUnits="userSpaceOnUse">
<stop stop-color="#85B72C"/>
<stop offset="0.58" stop-color="#BAE213"/>
</linearGradient>
<linearGradient id="paint15_linear_3302_167256" x1="70.9297" y1="146.882" x2="87.5009" y2="128.985" gradientUnits="userSpaceOnUse">
<stop offset="0.2" stop-color="#85B72C"/>
<stop offset="0.61" stop-color="#A6C928"/>
</linearGradient>
<linearGradient id="paint16_linear_3302_167256" x1="82.1824" y1="168.547" x2="68.9436" y2="151.026" gradientUnits="userSpaceOnUse">
<stop stop-color="#4B985F"/>
<stop offset="1" stop-color="#88B53A" stop-opacity="0"/>
</linearGradient>
<linearGradient id="paint17_linear_3302_167256" x1="152.363" y1="141.975" x2="152.363" y2="146.65" gradientUnits="userSpaceOnUse">
<stop stop-color="#706547"/>
<stop offset="1" stop-color="#4E4632"/>
</linearGradient>
<linearGradient id="paint18_linear_3302_167256" x1="159.229" y1="134.479" x2="159.229" y2="149.337" gradientUnits="userSpaceOnUse">
<stop stop-color="#005D00"/>
<stop offset="0.78" stop-color="#85B72C"/>
<stop offset="0.95" stop-color="#ABE815"/>
</linearGradient>
<linearGradient id="paint19_linear_3302_167256" x1="148.623" y1="139.99" x2="156.851" y2="139.99" gradientUnits="userSpaceOnUse">
<stop stop-color="#005D00"/>
<stop offset="0.78" stop-color="#85B72C"/>
<stop offset="0.95" stop-color="#ABE815"/>
</linearGradient>
<radialGradient id="paint20_radial_3302_167256" cx="0" cy="0" r="1" gradientUnits="userSpaceOnUse" gradientTransform="translate(152.363 122.175) rotate(-63.3195) scale(21.7098)">
<stop offset="0.03" stop-color="#FFE92C"/>
<stop offset="0.61" stop-color="#FFDC27"/>
<stop offset="0.96" stop-color="#FFB629"/>
</radialGradient>
<radialGradient id="paint21_radial_3302_167256" cx="0" cy="0" r="1" gradientUnits="userSpaceOnUse" gradientTransform="translate(150.589 110.112) rotate(-86.4522) scale(1.986 0.30573)">
<stop offset="0.03" stop-color="#FFE92C"/>
<stop offset="0.61" stop-color="#FFDC27"/>
<stop offset="0.96" stop-color="#FFB629"/>
</radialGradient>
<radialGradient id="paint22_radial_3302_167256" cx="0" cy="0" r="1" gradientUnits="userSpaceOnUse" gradientTransform="translate(142.962 131.784) rotate(-70.8887) scale(1.23401 0.951515)">
<stop offset="0.03" stop-color="#FFE92C"/>
<stop offset="0.61" stop-color="#FFDC27"/>
<stop offset="0.96" stop-color="#FFB629"/>
</radialGradient>
<radialGradient id="paint23_radial_3302_167256" cx="0" cy="0" r="1" gradientUnits="userSpaceOnUse" gradientTransform="translate(161.019 113.222) rotate(-61.4607) scale(1.99629 2.08836)">
<stop offset="0.03" stop-color="#FFE92C"/>
<stop offset="0.61" stop-color="#FFDC27"/>
<stop offset="0.96" stop-color="#FFB629"/>
</radialGradient>
<radialGradient id="paint24_radial_3302_167256" cx="0" cy="0" r="1" gradientUnits="userSpaceOnUse" gradientTransform="translate(165.119 126.291) rotate(-25.5456) scale(0.99653 0.966397)">
<stop offset="0.03" stop-color="#FFE92C"/>
<stop offset="0.61" stop-color="#FFDC27"/>
<stop offset="0.96" stop-color="#FFB629"/>
</radialGradient>
<radialGradient id="paint25_radial_3302_167256" cx="0" cy="0" r="1" gradientUnits="userSpaceOnUse" gradientTransform="translate(155.748 136.224) rotate(-79.557) scale(1.32022 0.586573)">
<stop offset="0.03" stop-color="#FFE92C"/>
<stop offset="0.61" stop-color="#FFDC27"/>
<stop offset="0.96" stop-color="#FFB629"/>
</radialGradient>
<radialGradient id="paint26_radial_3302_167256" cx="0" cy="0" r="1" gradientUnits="userSpaceOnUse" gradientTransform="translate(141.834 130.634) rotate(-59.9781) scale(0.820745 0.886204)">
<stop offset="0.03" stop-color="#FFE92C"/>
<stop offset="0.61" stop-color="#FFDC27"/>
<stop offset="0.96" stop-color="#FFB629"/>
</radialGradient>
<radialGradient id="paint27_radial_3302_167256" cx="0" cy="0" r="1" gradientUnits="userSpaceOnUse" gradientTransform="translate(141.251 118.169) rotate(-48.3256) scale(1.22774 1.51977)">
<stop offset="0.03" stop-color="#FFE92C"/>
<stop offset="0.61" stop-color="#FFDC27"/>
<stop offset="0.96" stop-color="#FFB629"/>
</radialGradient>
<linearGradient id="paint28_linear_3302_167256" x1="145.903" y1="127.123" x2="145.903" y2="159.025" gradientUnits="userSpaceOnUse">
<stop stop-color="#005D00"/>
<stop offset="0.78" stop-color="#85B72C"/>
<stop offset="0.95" stop-color="#ABE815"/>
</linearGradient>
<radialGradient id="paint29_radial_3302_167256" cx="0" cy="0" r="1" gradientUnits="userSpaceOnUse" gradientTransform="translate(152.878 123.6) rotate(-11.5642) scale(12.6161 12.5998)">
<stop offset="0.49" stop-color="#FFD325"/>
<stop offset="0.74" stop-color="#FFD223"/>
<stop offset="0.88" stop-color="#FFB700"/>
</radialGradient>
<radialGradient id="paint30_radial_3302_167256" cx="0" cy="0" r="1" gradientUnits="userSpaceOnUse" gradientTransform="translate(151.316 123.061) rotate(-11.58) scale(8.0166)">
<stop offset="0.6" stop-color="#FFB700"/>
<stop offset="0.93" stop-color="#FFD629"/>
</radialGradient>
<linearGradient id="paint31_linear_3302_167256" x1="149.182" y1="168.547" x2="135.944" y2="151.026" gradientUnits="userSpaceOnUse">
<stop stop-color="#4B985F"/>
<stop offset="1" stop-color="#88B53A" stop-opacity="0"/>
</linearGradient>
<linearGradient id="paint32_linear_3302_167256" x1="219.363" y1="141.975" x2="219.363" y2="146.65" gradientUnits="userSpaceOnUse">
<stop stop-color="#706547"/>
<stop offset="1" stop-color="#4E4632"/>
</linearGradient>
<linearGradient id="paint33_linear_3302_167256" x1="199.699" y1="143.346" x2="222.227" y2="143.346" gradientUnits="userSpaceOnUse">
<stop stop-color="#549360"/>
<stop offset="0.27" stop-color="#467D50"/>
<stop offset="0.62" stop-color="#39473B"/>
</linearGradient>
<linearGradient id="paint34_linear_3302_167256" x1="156.239" y1="196.163" x2="232.456" y2="106.827" gradientUnits="userSpaceOnUse">
<stop stop-color="#549360"/>
<stop offset="0.69" stop-color="#3F7248"/>
</linearGradient>
<linearGradient id="paint35_linear_3302_167256" x1="196.719" y1="134.405" x2="206.685" y2="122.723" gradientUnits="userSpaceOnUse">
<stop stop-color="#549360"/>
<stop offset="0.27" stop-color="#467D50"/>
<stop offset="0.62" stop-color="#39473B"/>
</linearGradient>
<linearGradient id="paint36_linear_3302_167256" x1="241.555" y1="125.863" x2="220.423" y2="132.886" gradientUnits="userSpaceOnUse">
<stop stop-color="#549360"/>
<stop offset="0.27" stop-color="#467D50"/>
<stop offset="0.62" stop-color="#39473B"/>
</linearGradient>
<linearGradient id="paint37_linear_3302_167256" x1="215.856" y1="122.345" x2="240.18" y2="122.345" gradientUnits="userSpaceOnUse">
<stop stop-color="#549360"/>
<stop offset="0.69" stop-color="#3F7248"/>
</linearGradient>
<linearGradient id="paint38_linear_3302_167256" x1="200.237" y1="143.388" x2="196.81" y2="136.439" gradientUnits="userSpaceOnUse">
<stop stop-color="#549360"/>
<stop offset="0.69" stop-color="#3F7248"/>
</linearGradient>
<linearGradient id="paint39_linear_3302_167256" x1="169.262" y1="161.643" x2="237.295" y2="103.676" gradientUnits="userSpaceOnUse">
<stop stop-color="#549360"/>
<stop offset="0.32" stop-color="#549360"/>
<stop offset="0.61" stop-color="#9FD69F"/>
<stop offset="0.92" stop-color="#DBF2D3"/>
</linearGradient>
<linearGradient id="paint40_linear_3302_167256" x1="214.138" y1="145.72" x2="243.213" y2="115.944" gradientUnits="userSpaceOnUse">
<stop stop-color="#549360"/>
<stop offset="0.32" stop-color="#549360"/>
<stop offset="0.58" stop-color="#9FD69F"/>
<stop offset="0.92" stop-color="#DBF2D3"/>
</linearGradient>
<linearGradient id="paint41_linear_3302_167256" x1="205.173" y1="149.035" x2="218.914" y2="132.93" gradientUnits="userSpaceOnUse">
<stop stop-color="#549360"/>
<stop offset="0.69" stop-color="#9FD69F"/>
</linearGradient>
<linearGradient id="paint42_linear_3302_167256" x1="206.586" y1="139.569" x2="222.246" y2="121.212" gradientUnits="userSpaceOnUse">
<stop stop-color="#549360"/>
<stop offset="0.32" stop-color="#549360"/>
<stop offset="0.58" stop-color="#9FD69F"/>
<stop offset="0.92" stop-color="#DBF2D3"/>
</linearGradient>
<linearGradient id="paint43_linear_3302_167256" x1="228.094" y1="149.058" x2="236.042" y2="125.283" gradientUnits="userSpaceOnUse">
<stop stop-color="#549360"/>
<stop offset="0.69" stop-color="#9FD69F"/>
<stop offset="0.92" stop-color="#DBF2D3"/>
</linearGradient>
<linearGradient id="paint44_linear_3302_167256" x1="202.522" y1="138.252" x2="207.126" y2="132.857" gradientUnits="userSpaceOnUse">
<stop stop-color="#549360"/>
<stop offset="0.69" stop-color="#9FD69F"/>
</linearGradient>
<linearGradient id="paint45_linear_3302_167256" x1="216.182" y1="168.547" x2="202.944" y2="151.026" gradientUnits="userSpaceOnUse">
<stop stop-color="#4B985F"/>
<stop offset="1" stop-color="#88B53A" stop-opacity="0"/>
</linearGradient>
<linearGradient id="paint46_linear_3302_167256" x1="286.363" y1="141.975" x2="286.363" y2="146.65" gradientUnits="userSpaceOnUse">
<stop stop-color="#706547"/>
<stop offset="1" stop-color="#4E4632"/>
</linearGradient>
<linearGradient id="paint47_linear_3302_167256" x1="283.182" y1="168.547" x2="269.944" y2="151.026" gradientUnits="userSpaceOnUse">
<stop stop-color="#4B985F"/>
<stop offset="1" stop-color="#88B53A" stop-opacity="0"/>
</linearGradient>
<linearGradient id="paint48_linear_3302_167256" x1="257.011" y1="142.773" x2="272.944" y2="135.157" gradientUnits="userSpaceOnUse">
<stop stop-color="#059400"/>
<stop offset="0.97" stop-color="#004300"/>
</linearGradient>
<linearGradient id="paint49_linear_3302_167256" x1="293.163" y1="129.642" x2="320.596" y2="138.778" gradientUnits="userSpaceOnUse">
<stop offset="0.03" stop-color="#EFF2B1"/>
<stop offset="0.27" stop-color="#C1DCEA"/>
<stop offset="0.29" stop-color="#A5C6E7"/>
<stop offset="0.31" stop-color="#88AFE4"/>
<stop offset="0.33" stop-color="#739FE2"/>
<stop offset="0.36" stop-color="#6795E1"/>
<stop offset="0.38" stop-color="#6392E1"/>
<stop offset="0.58" stop-color="#4D6BE3"/>
<stop offset="0.74" stop-color="#8436D4"/>
</linearGradient>
<linearGradient id="paint50_linear_3302_167256" x1="273.655" y1="108.775" x2="285.851" y2="122.74" gradientUnits="userSpaceOnUse">
<stop offset="0.03" stop-color="#EFF2B1"/>
<stop offset="0.2" stop-color="#C1DCEA"/>
<stop offset="0.25" stop-color="#A5C6E7"/>
<stop offset="0.32" stop-color="#88AFE4"/>
<stop offset="0.38" stop-color="#739FE2"/>
<stop offset="0.45" stop-color="#6795E1"/>
<stop offset="0.51" stop-color="#6392E1"/>
<stop offset="0.79" stop-color="#4D6BE3"/>
<stop offset="0.95" stop-color="#8436D4"/>
</linearGradient>
<radialGradient id="paint51_radial_3302_167256" cx="0" cy="0" r="1" gradientUnits="userSpaceOnUse" gradientTransform="translate(286.794 124.384) rotate(-80.04) scale(18.5322 19.6442)">
<stop offset="0.03" stop-color="#EFF2B1"/>
<stop offset="0.26" stop-color="#C1DCEA"/>
<stop offset="0.29" stop-color="#A5C6E7"/>
<stop offset="0.33" stop-color="#88AFE4"/>
<stop offset="0.37" stop-color="#739FE2"/>
<stop offset="0.41" stop-color="#6795E1"/>
<stop offset="0.45" stop-color="#6392E1"/>
<stop offset="0.73" stop-color="#4D6BE3"/>
<stop offset="0.95" stop-color="#8436D4"/>
</radialGradient>
<linearGradient id="paint52_linear_3302_167256" x1="270.979" y1="154.161" x2="279.705" y2="131.614" gradientUnits="userSpaceOnUse">
<stop stop-color="#059400"/>
<stop offset="0.43" stop-color="#46A300"/>
<stop offset="0.97" stop-color="#8AAA00"/>
</linearGradient>
<linearGradient id="paint53_linear_3302_167256" x1="300.979" y1="154.048" x2="290.394" y2="136.762" gradientUnits="userSpaceOnUse">
<stop stop-color="#059400"/>
<stop offset="0.43" stop-color="#46A300"/>
<stop offset="0.97" stop-color="#8AAA00"/>
</linearGradient>
<linearGradient id="paint54_linear_3302_167256" x1="296.441" y1="148.625" x2="291.288" y2="135.161" gradientUnits="userSpaceOnUse">
<stop offset="0.54" stop-color="#059400" stop-opacity="0"/>
<stop offset="0.78" stop-color="#004300"/>
</linearGradient>
<linearGradient id="paint55_linear_3302_167256" x1="276.047" y1="142.185" x2="280.931" y2="131.121" gradientUnits="userSpaceOnUse">
<stop offset="0.16" stop-color="#059400" stop-opacity="0"/>
<stop offset="0.42" stop-color="#004300"/>
</linearGradient>
<clipPath id="clip0_3302_167256">
<rect width="304" height="227" fill="white"/>
</clipPath>
</defs>
</svg>
