<svg width="304" height="227" viewBox="0 0 304 227" fill="none" xmlns="http://www.w3.org/2000/svg">
<g clip-path="url(#clip0_3302_167343)">
<rect width="304" height="227" rx="30" fill="#D5EADF"/>
<rect x="-37" y="94.626" width="378" height="152.374" fill="#B8DCCD"/>
<path d="M113.729 98.3613C127.855 98.3613 139.306 96.5419 139.306 94.2976C139.306 92.0532 127.855 90.2339 113.729 90.2339C99.6027 90.2339 88.1514 92.0532 88.1514 94.2976C88.1514 96.5419 99.6027 98.3613 113.729 98.3613Z" fill="url(#paint0_linear_3302_167343)"/>
<path d="M109.078 39.2383L108.126 40.138C108.126 40.138 100.254 37.8219 94.1275 40.138C88.0008 42.454 79.4254 52.077 81.6161 64.3509C83.144 72.9021 92.1949 88.0184 98.1445 89.1764C104.094 90.3345 128.95 91.6504 134.9 86.5207C139.721 82.3624 143.895 66.8919 142.747 54.5844C142.074 47.3444 137.986 40.6978 131.389 36.9702C127.098 34.5489 121.513 33.1612 114.951 35.5059C112.756 36.3816 110.762 37.6497 109.078 39.2431V39.2383Z" fill="url(#paint1_linear_3302_167343)"/>
<path d="M108.995 40.979C108.995 40.979 110.874 41.3232 111.735 43.7471" stroke="#DCF34F" stroke-width="0.478081" stroke-miterlimit="10" stroke-linecap="round"/>
<path d="M128.596 37.6802C128.596 37.6802 137.642 40.9789 139.253 50.7222" stroke="#DCF34F" stroke-width="0.478081" stroke-miterlimit="10" stroke-linecap="round"/>
<mask id="mask0_3302_167343" style="mask-type:luminance" maskUnits="userSpaceOnUse" x="81" y="34" width="62" height="57">
<path d="M109.078 39.2338L108.126 40.1326C108.126 40.1326 100.254 37.8187 94.1275 40.1326C88.0008 42.4465 79.4254 52.0607 81.6161 64.3235C83.144 72.8668 92.1949 87.9694 98.1446 89.1264C104.094 90.2833 128.95 91.5981 134.9 86.473C139.721 82.3185 143.895 66.8621 142.747 54.5659C142.074 47.3325 137.986 40.692 131.389 36.9677C127.098 34.5486 121.513 33.1622 114.951 35.5048C112.756 36.3797 110.762 37.6466 109.078 39.2386V39.2338Z" fill="white"/>
</mask>
<g mask="url(#mask0_3302_167343)">
<path d="M98.148 79.3479C98.148 79.3479 89.0979 78.2674 87.7306 82.8905C86.3633 87.5135 89.031 94.484 97.3018 92.6577C105.573 90.8314 98.148 79.3431 98.148 79.3431V79.3479Z" fill="url(#paint2_linear_3302_167343)"/>
<path d="M123.373 81.1992C123.373 81.1992 114.222 82.8438 115.298 91.5975C116.374 100.351 129.574 92.6875 128.01 87.6198C126.447 82.5522 123.373 81.1992 123.373 81.1992Z" fill="url(#paint3_linear_3302_167343)"/>
</g>
<circle cx="117.361" cy="92.3856" r="1.1952" fill="#60573D"/>
<circle cx="115.688" cy="92.6246" r="0.956162" fill="#60573D"/>
<ellipse cx="110.907" cy="95.4933" rx="1.43424" ry="0.956162" fill="#60573D"/>
<path d="M90.4652 97.462C90.2979 97.4238 90.0063 96.219 89.9585 96.0756C89.5808 94.9282 89.2844 93.7473 89.0692 92.5569C88.529 89.5163 88.5099 86.1267 90.078 83.3682C91.7513 80.4232 94.8731 78.9651 98.1863 79.2806C101.05 79.5531 102.9 81.5132 103.383 84.31C103.383 84.31 108.441 82.0056 111.094 86.4136C113.753 90.8215 109.828 99.0875 109.828 99.0875L105.917 99.3122C102.169 99.5273 98.4109 99.2213 94.7441 98.4086C94.7441 98.4086 90.4605 97.462 90.4605 97.4572L90.4652 97.462Z" fill="#8DBA11"/>
<path d="M126.905 82.4271C126.981 82.3267 125.423 81.4805 125.327 81.4375C124.032 80.8781 122.497 80.7969 121.201 81.3993C118.357 82.7188 116.75 85.7115 116.798 88.7952C116.832 90.8796 117.52 92.8923 118.476 94.7234C118.945 95.6222 119.49 96.4732 120.025 97.3337C120.111 97.4771 120.58 98.4476 120.766 98.4715L121.679 98.5863C126.494 99.1982 131.375 98.8922 136.079 97.697L137.117 97.4341C137.117 97.4341 145.574 81.0407 135.085 78.1101C135.085 78.1101 131.384 76.4129 126.91 82.4271H126.905Z" fill="#8DBA11"/>
<path d="M127.736 83.1875C127.736 83.1875 128.755 83.8329 129.434 85.7213" stroke="#DCF34F" stroke-width="0.478081" stroke-miterlimit="10" stroke-linecap="round"/>
<path d="M93.5869 81.6089C93.5869 81.6089 91.4116 83.4734 91.1152 85.357" stroke="#DCF34F" stroke-width="0.478081" stroke-miterlimit="10" stroke-linecap="round"/>
<g opacity="0.6">
<path d="M129.517 118.975C130.161 114.316 119.285 108.99 105.227 107.08C91.168 105.169 79.2497 107.397 78.6064 112.056C77.9631 116.715 88.8385 122.041 102.897 123.951C116.956 125.862 128.874 123.634 129.517 118.975Z" fill="url(#paint4_linear_3302_167343)" style="mix-blend-mode:multiply"/>
</g>
<path d="M139.306 94.7974L132.407 113.397C131.854 114.897 130.77 118.275 130.617 118.638C128.765 122.977 123.127 124.916 113.884 124.916C104.642 124.916 99.2851 123.077 97.1511 118.638C96.9697 118.261 95.8812 114.969 95.3608 113.569L88.6294 95.4328C92.5919 96.9044 102.15 97.9364 113.311 97.9364C126.015 97.9364 136.642 96.5986 139.306 94.7974Z" fill="#EDF7F1"/>
<path d="M119.982 62.467C117.123 62.467 114.04 61.0327 113.882 60.961L114.288 60.0957C114.331 60.1148 118.687 62.1371 121.522 61.3148L121.789 62.2327C121.22 62.4001 120.608 62.467 119.982 62.467Z" fill="black"/>
<path d="M107.284 63.1554C106.825 63.1554 106.529 63.1315 106.476 63.1267L106.562 62.1753C106.625 62.1753 112.62 62.6534 114.919 58.6519L115.746 59.1299C113.657 62.7681 109.139 63.1602 107.284 63.1602V63.1554Z" fill="black"/>
<path d="M108.231 62.7812C108.231 62.7812 109.302 67.4349 113.777 67.7437C118.252 68.0524 120.395 64.8521 120.661 62.2165C120.661 62.2165 115.23 61.5914 114.501 61.1961C113.772 60.8008 113.29 61.471 113.29 61.471L108.231 62.785V62.7812Z" fill="black"/>
<path d="M110.621 57.2989C110.621 57.2989 109.823 56.6631 109.025 56.7204C108.193 56.773 107.543 57.2894 107.533 57.2989L106.931 56.5579C106.964 56.5292 107.815 55.8408 108.963 55.7691C110.143 55.6973 111.181 56.5244 111.224 56.5579L110.621 57.2989Z" fill="black"/>
<path d="M117.644 57.2989L117.042 56.5531C117.085 56.5196 118.127 55.6878 119.303 55.7642C120.451 55.8407 121.302 56.5244 121.335 56.5531L120.728 57.2941L121.029 56.926L120.728 57.2989C120.728 57.2989 120.073 56.7778 119.236 56.7204C118.428 56.663 117.644 57.2941 117.635 57.2989H117.644Z" fill="black"/>
<path fill-rule="evenodd" clip-rule="evenodd" d="M107.636 52.2359C105.27 52.2359 103.352 54.154 103.352 56.5201C103.352 58.8863 105.27 60.8044 107.636 60.8044C110.002 60.8044 111.921 58.8863 111.921 56.5201C111.921 54.154 110.002 52.2359 107.636 52.2359ZM102.448 56.5201C102.448 53.6548 104.771 51.332 107.636 51.332C110.502 51.332 112.824 53.6548 112.824 56.5201C112.824 59.3854 110.502 61.7082 107.636 61.7082C104.771 61.7082 102.448 59.3854 102.448 56.5201Z" fill="white"/>
<path fill-rule="evenodd" clip-rule="evenodd" d="M120.466 52.2359C118.1 52.2359 116.182 54.154 116.182 56.5201C116.182 58.8862 118.1 60.8044 120.466 60.8044C122.833 60.8044 124.751 58.8863 124.751 56.5201C124.751 54.154 122.833 52.2359 120.466 52.2359ZM115.278 56.5201C115.278 53.6548 117.601 51.332 120.466 51.332C123.332 51.332 125.655 53.6548 125.655 56.5201C125.655 59.3854 123.332 61.7082 120.466 61.7082C117.601 61.7082 115.278 59.3854 115.278 56.5201Z" fill="white"/>
<path fill-rule="evenodd" clip-rule="evenodd" d="M115.566 56.422C114.732 55.5845 113.375 55.584 112.537 56.4224L112.217 56.1028C113.232 55.0883 114.876 55.0878 115.886 56.1032L115.566 56.422Z" fill="white"/>
<path d="M100.701 47.5345C103.684 45.1368 105.522 42.4717 104.807 41.5817C104.091 40.6917 101.093 41.9139 98.1104 44.3115C95.1276 46.7092 93.2894 49.3743 94.0048 50.2643C94.7201 51.1543 97.7182 49.9321 100.701 47.5345Z" fill="#893746"/>
<path d="M102.823 39.1086L94.0442 46.165L96.0075 48.6076L104.786 41.5511L102.823 39.1086Z" fill="#893746"/>
<path d="M93.5544 51.0044C93.5544 51.0044 100.673 45.9968 101.595 42.6484L100.672 41.4137C100.672 41.4137 93.2463 45.4454 92.1318 48.9173C91.0139 52.3897 93.5578 51.0039 93.5578 51.0039L93.5544 51.0044Z" fill="#AA3A4F"/>
<path d="M90.6179 49.8521C90.6179 49.8521 91.7848 41.2685 99.4145 38.1975C107.044 35.1266 104.809 41.582 104.809 41.582C104.809 41.582 98.2952 43.4777 96.1662 47.2314C95.065 49.1747 95.4841 50.3138 95.4841 50.3138C95.4841 50.3138 90.4858 53.1928 90.6179 49.8521Z" fill="#AA3A4F"/>
<path d="M94.3208 42.188L92.9364 40.7749L93.7322 40.0204L94.7546 41.5831L94.3208 42.188Z" fill="#AA3A4F"/>
<path d="M101.207 41.3308C101.207 41.3308 101.707 42.9674 101.357 44.3157" stroke="#893746" stroke-width="0.685743" stroke-miterlimit="10"/>
<path d="M94.3475 49.8963C94.3475 49.8963 95.0206 49.3584 96.001 49.6405" stroke="#893746" stroke-width="0.685743" stroke-miterlimit="10"/>
<path d="M78.5128 97.9238H76.5679V104.152H78.5128V97.9238Z" fill="#ABE815"/>
<path d="M14.9019 116.758L37.3139 124.722L77.3602 124.039C76.4501 120.892 68.6684 113.937 44.8229 111.297C20.9774 108.658 14.9399 113.838 14.9019 116.758Z" fill="url(#paint5_linear_3302_167343)"/>
<path d="M32.5845 119.175C35.2315 117.398 33.869 113.146 32.8568 111.243L37.8423 114.642L37.6156 123.617C36.83 122.877 34.7239 120.952 32.5845 119.175Z" fill="url(#paint6_linear_3302_167343)"/>
<path d="M79.4964 114.793L37.5409 114.792L32.5625 110.251L66.2616 110.059L79.4964 114.793Z" fill="url(#paint7_linear_3302_167343)"/>
<path d="M42.9601 91.7525L36.1125 87.0195L62.3178 87.0769L78.407 91.7525H42.9601Z" fill="#2F5000"/>
<path d="M60.9804 108.673L35.6948 108.723L42.2021 113.188H71.3477L60.9804 108.673Z" fill="#219A59"/>
<path d="M37.0098 108.999C40.1287 105.245 38.3093 100.422 37.0098 98.48L46.1661 102.342L45.7144 113.051H43.4713C40.6963 111.681 42.0512 111.818 37.0098 108.999Z" fill="url(#paint8_linear_3302_167343)"/>
<path d="M35.679 108.689L42.186 113.053V114.94L35.679 110.276V108.689Z" fill="#219A59"/>
<path d="M76.9797 90.9671H43.5813V82.1191H76.9797" fill="white"/>
<path d="M79.216 81.3249H42.7263L37.4523 78.613L65.6857 78.4194L79.216 81.3249Z" fill="url(#paint9_linear_3302_167343)"/>
<path d="M60.9802 97.0202L35.6438 96.9209L42.1168 101.397H71.2625L60.9802 97.0202Z" fill="#219A59"/>
<path d="M43.4587 102.103H70.212C73.482 102.103 76.1319 104.747 76.1319 108.011C76.1319 111.275 73.482 113.92 70.212 113.92H43.4587" fill="white"/>
<path d="M70.2118 114.765H42.1675V113.074H70.2118C73.0074 113.074 75.2846 110.801 75.2846 108.011C75.2846 105.22 73.0074 102.947 70.2118 102.947H42.1675V101.256H70.2118C73.9427 101.256 76.9789 104.287 76.9789 108.011C76.9789 111.735 73.9427 114.765 70.2118 114.765Z" fill="#219A59"/>
<path d="M36.8018 95.85C36.8018 95.85 38.4123 94.8493 36.8018 88.4951L43.7222 92.586V100.986L36.8018 95.85Z" fill="url(#paint10_linear_3302_167343)"/>
<path d="M79.4396 114.792H37.5562V124.621H79.4396V114.792Z" fill="#6EC0A6"/>
<path d="M68.9684 104.75H43.4587V105.426H68.9684V104.75Z" fill="#C5D3CB"/>
<path d="M70.1679 107.29H43.4587V107.966H70.1679V107.29Z" fill="#C5D3CB"/>
<path d="M64.4988 109.834H43.4587V110.511H64.4988V109.834Z" fill="#C5D3CB"/>
<path d="M78.5456 91.7632H42.7854V101.355H78.5456V91.7632Z" fill="#2F5000"/>
<path d="M76.9796 84.6294H61.7883V85.2044H76.9796V84.6294Z" fill="#C5D3CB"/>
<path d="M76.9796 87.2075H58.498V87.7825H76.9796V87.2075Z" fill="#C5D3CB"/>
<path d="M79.3149 91.7628H42.7854V81.3252H79.3149V82.9148H44.3781V90.1731H79.3149V91.7628Z" fill="#86BC0F"/>
<path fill-rule="evenodd" clip-rule="evenodd" d="M36.1196 86.9985L42.8566 91.5837V93.3129L42.8563 93.3127V99.5271L42.8566 99.5274V101.257L42.8563 101.256V101.355L41.6545 100.445V100.412L36.1609 96.5536L36.1196 94.9422L41.6545 98.7092V92.4686L36.1609 88.61L36.1196 86.9985Z" fill="url(#paint11_linear_3302_167343)"/>
<path d="M37.5237 78.6299L42.8568 81.3192V91.7523L37.5237 88.165V78.6299Z" fill="url(#paint12_linear_3302_167343)"/>
<path d="M35.679 96.9438L42.186 101.307V102.925L35.679 98.2607V96.9438Z" fill="#219A59"/>
<path fill-rule="evenodd" clip-rule="evenodd" d="M37.5561 114.815L37.5617 114.82V116.629L37.5561 116.624V122.807L37.5617 122.812V124.621L37.5561 124.616V124.621L37.4674 124.534L32.5845 120.041V118.231L36.3709 121.716L36.3711 115.533L32.5845 112.049V110.239L37.3853 114.657L37.5561 114.793V114.815Z" fill="url(#paint13_linear_3302_167343)"/>
<g opacity="0.6">
<path d="M275.434 199.068L158.11 209.018L129.098 194.82L100.087 180.622L214.939 168.869L275.434 199.068Z" fill="url(#paint14_linear_3302_167343)" fill-opacity="0.3" style="mix-blend-mode:multiply"/>
</g>
<path d="M267.173 118.456C268.19 119.112 269.002 120.139 269.29 121.309C269.317 121.172 269.364 121.044 269.418 120.92C269.726 120.174 270.448 119.597 271.257 119.489C272.2 119.364 273.202 119.892 273.626 120.737C274.053 121.586 273.877 122.695 273.209 123.371C273.86 122.528 275.221 122.106 276 122.838C276.635 123.431 276.574 124.464 276.282 125.276C276.268 125.325 276.246 125.371 276.223 125.417C275.71 126.758 274.716 127.884 273.548 128.731C272.337 129.602 271.404 129.844 269.988 130.316C269.161 130.59 268.243 130.451 267.439 130.12C265.372 129.273 264.029 127.964 262.789 126.408C262.358 125.86 261.96 125.261 261.805 124.583C261.651 123.905 261.772 123.131 262.261 122.627C262.964 121.904 264.344 122.064 264.868 122.928C264.637 122.061 264.219 121.241 264.119 120.35C264.018 119.459 264.355 118.419 265.191 118.086C265.842 117.827 266.589 118.079 267.181 118.458L267.173 118.456Z" fill="url(#paint15_linear_3302_167343)"/>
<path d="M269.348 130.705C270.532 130.632 271.697 130.276 272.716 129.68C272.874 129.594 273.031 129.482 273.122 129.323C273.213 129.165 273.196 128.936 273.044 128.835C272.926 128.757 272.771 128.773 272.627 128.797C271.995 128.917 271.391 129.137 270.825 129.438C271.857 129.026 272.758 128.277 273.348 127.336C273.467 127.142 273.581 126.89 273.456 126.7C273.287 126.431 272.87 126.542 272.602 126.702C271.682 127.23 270.88 127.959 270.271 128.829C270.582 127.802 270.578 126.838 270.401 125.785C270.356 125.504 270.269 125.197 270.017 125.062C269.751 124.915 269.394 125.048 269.201 125.282C269.008 125.516 268.939 125.826 268.892 126.124C268.731 127.137 268.735 128.175 268.915 129.186C268.661 128.215 268.168 127.307 267.488 126.569C267.315 126.378 267.117 126.193 266.875 126.1C266.632 126.008 266.332 126.022 266.143 126.2C265.837 126.489 265.963 126.991 266.147 127.374C266.531 128.185 267.045 128.932 267.666 129.588C267.058 128.98 266.315 128.5 265.504 128.194C265.253 128.099 264.905 128.051 264.766 128.283C265.243 129.397 266.459 129.98 267.573 130.462C268.165 130.717 268.698 130.753 269.346 130.713L269.348 130.705Z" fill="#467945"/>
<path d="M257.871 165.093C259.715 163.497 261.621 161.854 263.233 159.962C265.971 156.749 268.033 152.606 269.191 147.975C270.185 144.005 270.564 139.636 270.357 134.626C270.305 133.314 270.202 131.799 269.71 130.407L269.262 130.563C269.733 131.891 269.829 133.369 269.879 134.641C270.085 139.611 269.708 143.932 268.73 147.859C267.589 152.419 265.564 156.495 262.869 159.65C261.278 161.516 259.388 163.151 257.562 164.731L257.876 165.09L257.871 165.093Z" fill="#0E5D32"/>
<path d="M276.799 151.247C276.799 151.247 276.778 140.675 294.736 146.179C290.76 148.922 281.303 154.646 276.799 151.247Z" fill="url(#paint16_linear_3302_167343)"/>
<path d="M269.708 155.069C269.708 155.069 263.88 146.49 277.986 138.444C277.926 138.902 277.871 139.384 277.813 139.883C277.273 144.59 276.546 150.93 269.708 155.069Z" fill="url(#paint17_linear_3302_167343)"/>
<path d="M287.495 159.213C273.306 166.9 269.78 155.094 269.78 155.094C277.832 151.02 281.935 154.517 285.711 157.735C286.309 158.245 286.898 158.748 287.495 159.213Z" fill="url(#paint18_linear_3302_167343)"/>
<path d="M262.398 142.044C254.157 153.481 263.6 159.62 263.6 159.62C263.664 159.566 263.728 159.511 263.79 159.454C264.121 160.861 266.797 170.083 279.558 167.219C278.091 163.35 269.235 157.03 264.135 159.1C267.723 155.054 265.353 144.839 262.398 142.044Z" fill="url(#paint19_linear_3302_167343)"/>
<path d="M284.501 147.581C260.256 155.152 253.881 172.833 253.814 172.933" stroke="#0E5D32" stroke-width="0.482353" stroke-linecap="round" stroke-linejoin="round"/>
<path fill-rule="evenodd" clip-rule="evenodd" d="M232.714 195.934L232.628 195.891L231.09 195.117C231.09 195.117 231.089 195.115 231.088 195.115L230.098 194.616L229.305 194.216L226.154 192.628L225.435 192.267L224.984 192.04L224.305 193.179L224.458 191.774L184.085 171.43L183.666 171.657L183.524 172.109L183.46 172.297L183.385 172.48L183.302 172.66L183.208 172.837L183.122 172.981L183.106 173.009L183.083 173.044L183.08 173.049L183.062 173.076L182.995 173.177L182.876 173.341L182.747 173.502L182.535 173.741L182.302 173.971L182.056 174.188L181.792 174.396L181.512 174.597L181.219 174.784L180.913 174.964L180.593 175.132L180.262 175.289L179.92 175.438L179.569 175.575L179.209 175.703L178.839 175.82L178.462 175.925L178.08 176.021L177.692 176.108L177.289 176.186L176.882 176.252L176.474 176.305L176.064 176.348L175.655 176.381L175.245 176.399L174.837 176.408L174.431 176.404L174.028 176.39L173.63 176.364L173.236 176.326L172.849 176.276L172.468 176.215L172.093 176.14L171.73 176.055L171.535 176.003L168.938 174.693L168.575 174.66L170.671 175.717L170.475 175.638L170.198 175.511L175.207 178.036L191.719 186.358L192.745 186.875L193.521 187.265L197.953 189.499L200.363 190.714L208.849 194.991L215.182 198.183L217.619 199.409L219.195 200.204L219.329 200.271L219.445 200.324C219.458 200.33 219.472 200.337 219.486 200.342L219.607 200.396L219.669 200.422C219.678 200.426 219.686 200.429 219.696 200.431L219.812 200.479C219.812 200.479 219.818 200.483 219.821 200.483L219.898 200.513L219.947 200.53C219.947 200.53 219.95 200.533 219.952 200.533L220.198 200.619L220.508 200.717L220.823 200.803C220.838 200.807 220.855 200.812 220.87 200.816L221.226 200.898L221.545 200.961C221.545 200.961 221.551 200.963 221.554 200.963L221.599 200.971L221.646 200.979C221.646 200.979 221.648 200.98 221.65 200.98L221.915 201.022C221.924 201.025 221.932 201.026 221.942 201.026L221.979 201.032L222.013 201.036C222.013 201.036 222.017 201.037 222.019 201.037L222.369 201.081L222.674 201.112L222.762 201.12H222.771C222.803 201.124 222.834 201.126 222.867 201.127L223.16 201.145L223.522 201.159H223.563L223.622 201.16H223.648L223.653 201.161C223.664 201.162 223.675 201.162 223.687 201.161C223.69 201.162 223.693 201.162 223.695 201.161H223.832L223.872 201.163H223.996L224.007 201.162L224.321 201.155C224.356 201.155 224.391 201.154 224.426 201.152L224.788 201.134H224.795L225.166 201.105H225.168C225.198 201.103 225.228 201.1 225.259 201.097L225.54 201.068C225.549 201.067 225.56 201.065 225.572 201.064L225.609 201.061L225.684 201.051C225.698 201.049 225.712 201.048 225.726 201.046L225.957 201.015C225.995 201.01 226.032 201.004 226.068 200.999C226.077 200.997 226.087 200.996 226.096 200.995L226.426 200.94L226.829 200.863L227.191 200.782C227.221 200.776 227.249 200.769 227.279 200.762C227.32 200.753 227.361 200.742 227.4 200.732C227.402 200.732 227.405 200.731 227.408 200.73C227.428 200.725 227.449 200.72 227.468 200.714L227.599 200.682L227.7 200.652C227.7 200.652 227.708 200.651 227.711 200.649L227.975 200.572L228.317 200.464C228.325 200.462 228.333 200.46 228.343 200.457C228.353 200.454 228.361 200.451 228.371 200.447L228.704 200.33L229.055 200.193L229.397 200.044L229.728 199.887L230.049 199.719L230.355 199.539L230.649 199.35L230.893 199.176C230.905 199.169 230.916 199.161 230.927 199.153C230.933 199.149 230.938 199.144 230.943 199.14C230.959 199.129 230.975 199.118 230.99 199.104L231.191 198.944L231.439 198.724L231.671 198.494L231.883 198.256L231.98 198.134C231.995 198.117 232.009 198.098 232.022 198.08L232.131 197.931L232.243 197.763L232.346 197.591L232.439 197.415C232.44 197.414 232.44 197.413 232.44 197.412L232.523 197.235L232.598 197.052L232.662 196.865L232.804 196.411L233.222 196.183L232.719 195.93L232.714 195.934ZM217.735 202.069L217.43 201.885L217.136 201.69L211.485 198.842L208.93 197.554L202.967 194.549L192.813 189.433L190.841 188.438L185.849 185.924L169.407 177.638L168.003 176.93L168.297 177.125L168.602 177.307L168.922 177.48L169.22 177.63L185.586 185.878L190.613 188.41L192.575 189.398L202.762 194.532L208.711 197.53L211.27 198.821L217.214 201.493L218.054 202.239L217.734 202.067L217.735 202.069Z" fill="url(#paint20_linear_3302_167343)"/>
<path fill-rule="evenodd" clip-rule="evenodd" d="M232.715 195.935L233.218 196.188L232.8 196.416L232.658 196.87L232.594 197.055L232.52 197.238L232.437 197.417L232.343 197.594L232.242 197.765L232.13 197.934L232.01 198.097L231.881 198.259L231.668 198.498L231.437 198.728L231.19 198.946L230.926 199.156L230.646 199.353L230.353 199.542L230.046 199.721L229.727 199.889L229.396 200.047L229.054 200.196L228.703 200.333L228.342 200.461L227.973 200.577L227.596 200.686L227.214 200.781L226.825 200.867L226.423 200.944L226.016 201.01L225.607 201.065L225.197 201.106L224.787 201.137L224.376 201.157L223.969 201.167L223.62 201.165C223.934 199.77 224.791 198.511 226.079 197.575C227.893 196.256 230.298 195.87 232.717 195.935H232.715Z" fill="url(#paint21_linear_3302_167343)"/>
<path fill-rule="evenodd" clip-rule="evenodd" d="M233.216 196.187L184.083 171.429L236.395 152.976L286.277 172.01L233.216 196.187Z" fill="#2E845B"/>
<path fill-rule="evenodd" clip-rule="evenodd" d="M149.589 193.112L100.457 168.354L168.57 174.661L217.703 199.42L149.589 193.112Z" fill="#2E845B"/>
<path fill-rule="evenodd" clip-rule="evenodd" d="M149.365 195.418L100.232 170.658L100.456 168.354L149.589 193.112L149.365 195.418Z" fill="#4CC38A"/>
<path fill-rule="evenodd" clip-rule="evenodd" d="M149.591 193.113L217.704 199.42L218.067 199.454L218.345 199.672C218.922 200.124 219.664 200.475 220.504 200.721C222.37 201.268 224.68 201.31 226.825 200.867C228.908 200.44 230.793 199.562 231.88 198.261C232.233 197.838 232.501 197.374 232.658 196.871L232.8 196.418L233.218 196.19L286.279 172.014L286.439 173.994L234.778 198.004C234.525 198.629 234.173 199.201 233.741 199.716C232.285 201.459 229.9 202.604 227.322 203.137C224.806 203.653 222.062 203.595 219.813 202.935C218.811 202.641 217.9 202.228 217.136 201.692L149.365 195.418L149.588 193.113H149.591Z" fill="#3CA573"/>
<path fill-rule="evenodd" clip-rule="evenodd" d="M118.755 160.215C143.03 159.548 166.777 161.968 179.256 171.134L224.321 192.652L154.899 180.519L117.271 161.122L118.756 160.215H118.755Z" fill="url(#paint22_linear_3302_167343)"/>
<path fill-rule="evenodd" clip-rule="evenodd" d="M155.763 177.867L154.949 180.525L151.833 190.723L151.506 191.791L106.947 169.049L107.058 168.965L112.906 164.524L113.497 164.075L113.669 163.944L114.232 163.516L117.341 161.156L117.875 160.751L117.877 160.748L118.371 160.373L118.44 160.404L144.059 172.391H144.062L155.488 177.738L155.763 177.867Z" fill="url(#paint23_linear_3302_167343)"/>
<path fill-rule="evenodd" clip-rule="evenodd" d="M179.204 171.181C192.055 160.03 207.196 151.918 227.256 147.926L269.087 162.989L224.378 193.002L179.204 171.181Z" fill="#F1F9F4"/>
<g style="mix-blend-mode:multiply" opacity="0.65">
<path fill-rule="evenodd" clip-rule="evenodd" d="M179.15 171.19C192.002 160.039 207.194 151.918 227.255 147.925L253.252 157.286C241.986 165.59 227.044 180.263 224.371 192.835L224.348 192.951L179.15 171.19Z" fill="#BDD6C8"/>
</g>
<path fill-rule="evenodd" clip-rule="evenodd" d="M280.554 172.186L232.055 195.33C226.398 193.983 221.482 194.48 215.909 198.257L151.505 191.792L155.511 177.654C183.351 176.339 205.81 182.771 224.361 192.974C234.603 178.052 249.043 168.555 269.085 162.988L280.553 172.186H280.554Z" fill="url(#paint24_linear_3302_167343)"/>
<g style="mix-blend-mode:multiply" opacity="0.45">
<path fill-rule="evenodd" clip-rule="evenodd" d="M218.526 196.937C199.514 189.357 176.15 187.617 155.577 187.165C176.132 186.986 196.175 186.874 218.109 194.893C215.961 192.842 211.334 190.285 189.03 186.171C192.599 186.449 202.022 186.504 220.813 193.787C215.962 190.285 206.157 185.669 183.9 180.907C198.364 182.879 211.111 186.616 224.678 194.187C235.03 183.14 242.739 177.166 254.992 170.967C244.827 177.198 234.86 184.479 227.891 193.18C237.846 183.809 241.455 181.267 255.745 175.97C241.231 182.928 233.999 188.228 230.105 193.384C244.055 182.938 260.48 175.771 275.091 171.155C261.365 177.058 245.314 184.786 231.852 194.676L218.525 196.936L218.526 196.937Z" fill="#B1CABC"/>
</g>
<path fill-rule="evenodd" clip-rule="evenodd" d="M217.527 198.569C217.229 198.776 216.818 198.705 216.609 198.411C216.4 198.116 216.473 197.709 216.771 197.502C218.963 195.976 221.338 194.942 223.932 194.497C226.519 194.052 229.362 193.933 232.4 194.75C232.751 194.844 232.959 195.202 232.865 195.55C232.77 195.896 232.408 196.102 232.057 196.009C229.209 195.244 226.554 195.369 224.155 195.781C221.762 196.193 219.564 197.151 217.527 198.569Z" fill="#2E845B"/>
<path fill-rule="evenodd" clip-rule="evenodd" d="M179.149 171.19C183.641 153.895 192.491 139.337 207.14 131.66L257.31 149.848C237.448 159.493 228.449 175.604 224.352 192.97L179.149 171.19Z" fill="#FAFDFC"/>
<g opacity="0.5">
<path d="M184.667 172.292C184.761 171.965 184.861 171.639 184.963 171.314C185.235 170.438 185.521 169.565 185.818 168.696C186.257 167.41 186.718 166.13 187.201 164.86C187.787 163.319 188.406 161.79 189.063 160.279C189.785 158.619 190.553 156.977 191.381 155.366C192.215 153.742 193.11 152.149 194.092 150.61C195.03 149.141 196.048 147.719 197.193 146.403C198.719 144.652 200.375 143.015 202.117 141.478C203.475 140.279 204.887 139.139 206.347 138.066C207.076 137.529 207.815 137.004 208.577 136.515C208.611 136.492 208.646 136.47 208.68 136.449C208.854 136.339 208.694 136.063 208.519 136.173C207.981 136.511 207.458 136.877 206.939 137.245C205.608 138.191 204.316 139.194 203.064 140.244C201.35 141.682 199.711 143.209 198.178 144.839C196.867 146.235 195.661 147.709 194.581 149.29C193.55 150.8 192.615 152.374 191.748 153.982C190.88 155.592 190.078 157.237 189.325 158.902C188.619 160.464 187.957 162.045 187.33 163.641C186.798 164.995 186.292 166.36 185.812 167.734C185.466 168.721 185.133 169.713 184.816 170.71C184.665 171.186 184.507 171.663 184.375 172.146C184.37 172.167 184.363 172.187 184.357 172.209C184.3 172.407 184.609 172.491 184.666 172.294L184.667 172.292Z" fill="#BDD6C8"/>
</g>
<g opacity="0.5">
<path d="M187.623 173.571C187.72 173.243 187.824 172.916 187.928 172.591C188.212 171.7 188.511 170.816 188.819 169.934C189.273 168.639 189.751 167.353 190.25 166.076C190.859 164.519 191.502 162.976 192.185 161.451C192.932 159.782 193.727 158.134 194.581 156.518C195.451 154.873 196.385 153.26 197.409 151.705C198.388 150.22 199.453 148.789 200.645 147.465C202.217 145.719 203.918 144.089 205.702 142.561C207.096 141.367 208.542 140.234 210.036 139.167C210.781 138.634 211.536 138.112 212.313 137.626C212.348 137.605 212.382 137.582 212.417 137.561C212.593 137.453 212.432 137.178 212.256 137.285C211.705 137.622 211.171 137.986 210.64 138.352C209.285 139.289 207.968 140.282 206.691 141.321C204.928 142.757 203.237 144.285 201.655 145.916C200.297 147.315 199.046 148.795 197.921 150.386C196.856 151.896 195.889 153.475 194.992 155.089C194.086 156.717 193.249 158.383 192.464 160.073C191.735 161.641 191.05 163.231 190.402 164.834C189.849 166.201 189.323 167.58 188.825 168.968C188.466 169.966 188.12 170.968 187.791 171.976C187.634 172.456 187.47 172.938 187.334 173.424C187.329 173.444 187.321 173.466 187.316 173.486C187.257 173.684 187.567 173.768 187.624 173.571H187.623Z" fill="#BDD6C8"/>
</g>
<g opacity="0.5">
<path d="M190.691 174.905C190.79 174.572 190.894 174.241 190.999 173.909C191.284 173.011 191.584 172.118 191.894 171.228C192.351 169.915 192.831 168.61 193.336 167.315C193.95 165.736 194.598 164.171 195.286 162.623C196.038 160.931 196.838 159.258 197.701 157.619C198.575 155.958 199.511 154.329 200.54 152.758C201.52 151.261 202.586 149.818 203.779 148.481C205.364 146.706 207.082 145.05 208.885 143.495C210.287 142.287 211.741 141.139 213.244 140.057C213.998 139.515 214.761 138.984 215.547 138.489C215.583 138.467 215.618 138.444 215.653 138.423C215.828 138.316 215.668 138.039 215.492 138.147C214.94 138.487 214.403 138.854 213.871 139.225C212.503 140.176 211.174 141.185 209.885 142.24C208.112 143.692 206.413 145.237 204.823 146.887C203.454 148.308 202.192 149.809 201.059 151.424C199.984 152.956 199.011 154.559 198.106 156.195C197.197 157.84 196.358 159.522 195.57 161.228C194.835 162.82 194.144 164.43 193.49 166.057C192.933 167.445 192.403 168.843 191.9 170.25C191.539 171.261 191.191 172.276 190.859 173.297C190.702 173.782 190.537 174.267 190.401 174.758C190.396 174.779 190.388 174.8 190.382 174.821C190.324 175.019 190.633 175.103 190.69 174.906L190.691 174.905Z" fill="#BDD6C8"/>
</g>
<g opacity="0.5">
<path d="M193.98 176.35C194.078 176.014 194.183 175.681 194.288 175.348C194.572 174.449 194.87 173.555 195.178 172.664C195.635 171.345 196.115 170.034 196.618 168.733C197.228 167.154 197.873 165.588 198.557 164.039C199.309 162.338 200.108 160.658 200.969 159.01C201.837 157.348 202.768 155.718 203.79 154.145C204.772 152.634 205.841 151.175 207.04 149.825C208.618 148.047 210.329 146.386 212.126 144.827C213.528 143.611 214.984 142.455 216.488 141.367C217.238 140.824 217.999 140.292 218.782 139.795C218.817 139.773 218.852 139.751 218.887 139.728C219.062 139.62 218.901 139.344 218.726 139.453C218.172 139.795 217.634 140.167 217.1 140.54C215.728 141.499 214.397 142.517 213.106 143.582C211.338 145.039 209.645 146.59 208.062 148.245C206.696 149.673 205.437 151.181 204.308 152.803C203.24 154.337 202.272 155.941 201.372 157.579C200.464 159.233 199.626 160.923 198.839 162.637C198.105 164.237 197.416 165.856 196.764 167.489C196.211 168.877 195.684 170.275 195.185 171.682C194.825 172.694 194.479 173.71 194.15 174.731C193.993 175.219 193.827 175.707 193.692 176.201C193.686 176.222 193.679 176.243 193.672 176.265C193.615 176.463 193.923 176.547 193.981 176.35H193.98Z" fill="#BDD6C8"/>
</g>
<g opacity="0.5">
<path d="M197.185 178.157C197.284 177.818 197.389 177.481 197.495 177.144C197.785 176.225 198.089 175.31 198.403 174.4C198.865 173.061 199.35 171.732 199.86 170.411C200.479 168.802 201.134 167.206 201.829 165.627C202.592 163.893 203.404 162.18 204.279 160.499C205.161 158.804 206.107 157.141 207.145 155.536C208.135 154.006 209.21 152.529 210.417 151.161C212.025 149.338 213.77 147.636 215.603 146.04C217.034 144.794 218.521 143.609 220.056 142.493C220.823 141.936 221.6 141.391 222.4 140.882C222.437 140.859 222.473 140.836 222.509 140.814C222.684 140.705 222.523 140.429 222.348 140.538C221.781 140.889 221.232 141.269 220.686 141.653C219.293 142.63 217.941 143.667 216.629 144.752C214.827 146.244 213.101 147.83 211.486 149.524C210.099 150.98 208.821 152.519 207.675 154.172C206.584 155.744 205.598 157.388 204.679 159.067C203.762 160.746 202.914 162.463 202.118 164.202C201.376 165.825 200.679 167.469 200.02 169.126C199.457 170.541 198.922 171.966 198.414 173.401C198.048 174.433 197.696 175.469 197.361 176.511C197.2 177.008 197.033 177.505 196.895 178.009C196.889 178.03 196.882 178.052 196.876 178.074C196.818 178.272 197.128 178.356 197.184 178.159L197.185 178.157Z" fill="#BDD6C8"/>
</g>
<g opacity="0.5">
<path d="M203.596 181.131C203.697 180.787 203.805 180.446 203.912 180.104C204.206 179.179 204.514 178.257 204.833 177.34C205.303 175.988 205.797 174.643 206.315 173.308C206.946 171.681 207.613 170.068 208.321 168.472C209.095 166.728 209.917 165.006 210.804 163.316C211.701 161.605 212.664 159.926 213.721 158.308C214.73 156.765 215.824 155.277 217.051 153.899C218.68 152.07 220.446 150.363 222.299 148.762C223.74 147.517 225.236 146.333 226.78 145.218C227.554 144.659 228.34 144.113 229.148 143.602C229.184 143.58 229.22 143.556 229.257 143.534C229.432 143.426 229.27 143.15 229.095 143.258C228.527 143.608 227.976 143.988 227.429 144.369C226.023 145.348 224.658 146.387 223.334 147.474C221.511 148.97 219.766 150.563 218.131 152.262C216.723 153.726 215.426 155.273 214.262 156.936C213.156 158.515 212.157 160.166 211.227 161.852C210.292 163.547 209.429 165.28 208.62 167.038C207.864 168.678 207.155 170.338 206.484 172.014C205.912 173.442 205.367 174.883 204.85 176.333C204.478 177.374 204.121 178.421 203.78 179.473C203.619 179.972 203.449 180.472 203.309 180.977C203.303 180.999 203.296 181.021 203.29 181.042C203.232 181.24 203.541 181.324 203.598 181.127L203.596 181.131Z" fill="#BDD6C8"/>
</g>
<g opacity="0.5">
<path d="M200.419 179.742C200.523 179.39 200.635 179.04 200.747 178.691C201.049 177.749 201.366 176.811 201.694 175.878C202.178 174.502 202.686 173.136 203.218 171.779C203.871 170.117 204.558 168.469 205.29 166.841C206.09 165.06 206.94 163.301 207.856 161.577C208.78 159.838 209.771 158.133 210.858 156.489C211.905 154.908 213.042 153.386 214.315 151.978C215.992 150.121 217.807 148.39 219.71 146.766C221.185 145.509 222.713 144.314 224.292 143.189C225.086 142.621 225.892 142.068 226.721 141.549C226.758 141.526 226.795 141.503 226.832 141.481C227.007 141.373 226.847 141.098 226.671 141.205C226.088 141.561 225.521 141.945 224.959 142.333C223.523 143.322 222.128 144.372 220.773 145.469C218.902 146.986 217.108 148.602 215.427 150.326C213.972 151.819 212.629 153.398 211.423 155.098C210.287 156.701 209.258 158.378 208.3 160.092C207.335 161.821 206.443 163.591 205.606 165.385C204.825 167.058 204.093 168.754 203.4 170.465C202.813 171.912 202.256 173.371 201.725 174.84C201.341 175.906 200.97 176.976 200.618 178.052C200.451 178.562 200.275 179.073 200.131 179.591C200.124 179.613 200.118 179.634 200.112 179.657C200.053 179.855 200.363 179.939 200.42 179.742H200.419Z" fill="#BDD6C8"/>
</g>
<g opacity="0.5">
<path d="M206.694 182.324C206.799 181.977 206.911 181.631 207.023 181.286C207.326 180.355 207.645 179.428 207.975 178.506C208.465 177.14 208.977 175.784 209.515 174.436C210.172 172.793 210.865 171.165 211.601 169.555C212.402 167.804 213.254 166.074 214.171 164.379C215.104 162.653 216.105 160.962 217.202 159.334C218.266 157.756 219.425 156.246 220.717 154.845C222.391 153.031 224.198 151.342 226.092 149.756C227.572 148.517 229.106 147.34 230.688 146.232C231.481 145.677 232.284 145.134 233.108 144.628C233.144 144.605 233.181 144.583 233.217 144.56C233.393 144.455 233.233 144.178 233.056 144.285C232.475 144.633 231.909 145.01 231.348 145.39C229.908 146.365 228.507 147.4 227.148 148.483C225.279 149.971 223.485 151.557 221.801 153.253C220.344 154.72 218.995 156.271 217.783 157.946C216.636 159.532 215.596 161.194 214.629 162.895C213.658 164.601 212.761 166.349 211.918 168.122C211.133 169.775 210.396 171.45 209.699 173.141C209.106 174.577 208.544 176.024 208.007 177.483C207.622 178.532 207.251 179.585 206.898 180.644C206.729 181.151 206.553 181.658 206.406 182.171C206.399 182.193 206.392 182.216 206.385 182.238C206.326 182.435 206.635 182.519 206.694 182.323V182.324Z" fill="#BDD6C8"/>
</g>
<g opacity="0.5">
<path d="M209.757 183.66C209.862 183.313 209.974 182.967 210.086 182.622C210.389 181.69 210.709 180.764 211.039 179.842C211.528 178.476 212.04 177.12 212.579 175.772C213.235 174.129 213.929 172.501 214.664 170.891C215.465 169.14 216.317 167.41 217.234 165.715C218.167 163.989 219.168 162.298 220.266 160.67C221.329 159.092 222.488 157.581 223.78 156.181C225.455 154.367 227.262 152.677 229.155 151.092C230.635 149.853 232.169 148.676 233.751 147.568C234.544 147.013 235.347 146.47 236.171 145.963C236.208 145.941 236.244 145.919 236.28 145.896C236.456 145.791 236.296 145.514 236.119 145.621C235.538 145.969 234.972 146.346 234.411 146.726C232.971 147.701 231.571 148.736 230.211 149.819C228.342 151.307 226.548 152.893 224.864 154.589C223.407 156.056 222.059 157.607 220.847 159.282C219.7 160.868 218.659 162.53 217.692 164.23C216.721 165.937 215.824 167.685 214.981 169.458C214.197 171.111 213.46 172.786 212.762 174.477C212.17 175.913 211.607 177.36 211.071 178.819C210.685 179.868 210.315 180.921 209.961 181.98C209.792 182.487 209.616 182.994 209.469 183.507C209.462 183.529 209.455 183.552 209.449 183.574C209.389 183.771 209.698 183.855 209.757 183.659V183.66Z" fill="#BDD6C8"/>
</g>
<g opacity="0.5">
<path d="M212.937 185.437C213.043 185.086 213.155 184.738 213.269 184.39C213.576 183.449 213.896 182.515 214.229 181.583C214.722 180.204 215.24 178.835 215.781 177.474C216.439 175.824 217.134 174.189 217.872 172.573C218.678 170.805 219.536 169.061 220.459 167.351C221.398 165.612 222.406 163.906 223.511 162.264C224.578 160.681 225.739 159.164 227.034 157.758C228.723 155.924 230.548 154.215 232.46 152.613C233.941 151.371 235.475 150.193 237.057 149.082C237.854 148.523 238.662 147.976 239.49 147.466C239.527 147.444 239.564 147.421 239.6 147.399C239.776 147.293 239.616 147.017 239.439 147.123C238.855 147.473 238.287 147.853 237.723 148.236C236.282 149.212 234.882 150.249 233.523 151.334C231.644 152.832 229.842 154.427 228.15 156.131C226.675 157.618 225.309 159.189 224.084 160.887C222.934 162.48 221.892 164.15 220.922 165.856C219.945 167.578 219.042 169.341 218.194 171.129C217.403 172.796 216.661 174.486 215.96 176.191C215.366 177.634 214.801 179.088 214.264 180.552C213.874 181.614 213.499 182.682 213.142 183.755C212.974 184.263 212.796 184.771 212.65 185.286C212.644 185.308 212.636 185.331 212.63 185.353C212.57 185.55 212.88 185.635 212.938 185.438L212.937 185.437Z" fill="#BDD6C8"/>
</g>
<g opacity="0.5">
<path d="M216.338 186.827C216.446 186.474 216.561 186.124 216.678 185.774C216.993 184.824 217.324 183.879 217.667 182.939C218.172 181.551 218.703 180.174 219.259 178.807C219.934 177.148 220.647 175.504 221.403 173.879C222.234 172.096 223.116 170.336 224.067 168.612C225.031 166.865 226.064 165.153 227.197 163.509C228.304 161.901 229.512 160.368 230.853 158.947C232.575 157.123 234.429 155.426 236.368 153.834C237.872 152.6 239.428 151.429 241.031 150.326C241.84 149.769 242.659 149.225 243.501 148.716C243.539 148.693 243.577 148.67 243.615 148.648C243.792 148.544 243.631 148.267 243.454 148.372C242.863 148.72 242.289 149.096 241.719 149.475C240.253 150.449 238.829 151.483 237.444 152.566C235.538 154.053 233.708 155.639 231.987 157.334C230.472 158.825 229.066 160.403 227.802 162.112C226.619 163.713 225.545 165.396 224.546 167.117C223.545 168.844 222.618 170.615 221.748 172.412C220.938 174.087 220.177 175.785 219.457 177.5C218.845 178.957 218.263 180.426 217.709 181.906C217.31 182.974 216.926 184.048 216.559 185.128C216.385 185.641 216.204 186.154 216.052 186.675C216.046 186.697 216.038 186.719 216.031 186.742C215.97 186.939 216.279 187.023 216.339 186.827H216.338Z" fill="#BDD6C8"/>
</g>
<g opacity="0.5">
<path d="M220.105 188.406C220.212 188.056 220.325 187.708 220.439 187.361C220.751 186.413 221.079 185.471 221.418 184.532C221.915 183.154 222.439 181.785 222.986 180.427C223.654 178.77 224.36 177.129 225.108 175.508C225.927 173.734 226.797 171.984 227.734 170.269C228.688 168.523 229.711 166.813 230.834 165.168C231.921 163.575 233.106 162.051 234.424 160.639C236.127 158.814 237.965 157.115 239.887 155.522C241.385 154.282 242.935 153.104 244.533 151.996C245.336 151.439 246.15 150.894 246.985 150.385C247.023 150.362 247.061 150.339 247.099 150.316C247.276 150.211 247.115 149.935 246.938 150.04C246.353 150.387 245.782 150.764 245.217 151.143C243.758 152.122 242.337 153.161 240.957 154.249C239.068 155.738 237.254 157.325 235.548 159.021C234.05 160.512 232.661 162.088 231.413 163.794C230.247 165.39 229.189 167.063 228.204 168.776C227.216 170.494 226.303 172.255 225.446 174.042C224.643 175.714 223.89 177.41 223.176 179.122C222.573 180.57 222 182.03 221.455 183.5C221.06 184.566 220.679 185.638 220.317 186.716C220.146 187.225 219.966 187.735 219.817 188.252C219.81 188.275 219.803 188.297 219.796 188.319C219.737 188.516 220.045 188.6 220.105 188.404V188.406Z" fill="#BDD6C8"/>
</g>
<mask id="mask1_3302_167343" style="mask-type:luminance" maskUnits="userSpaceOnUse" x="183" y="141" width="2" height="1">
<path d="M184.012 141.633C184.064 141.633 184.064 141.551 184.012 141.551C183.96 141.551 183.96 141.633 184.012 141.633Z" fill="white"/>
</mask>
<g mask="url(#mask1_3302_167343)">
<path d="M183.977 141.551H183.974V141.633H183.977V141.551Z" fill="#FFF4D7"/>
<path d="M183.98 141.551H183.976V141.633H183.98V141.551Z" fill="#FFF3D6"/>
<path d="M183.985 141.551H183.982V141.633H183.985V141.551Z" fill="#FFF2D5"/>
<path d="M183.986 141.551H183.983V141.633H183.986V141.551Z" fill="#FEF1D4"/>
<path d="M183.99 141.551H183.986V141.633H183.99V141.551Z" fill="#FEF0D3"/>
<path d="M183.994 141.551H183.991V141.633H183.994V141.551Z" fill="#FEEFD2"/>
<path d="M183.998 141.551H183.994V141.633H183.998V141.551Z" fill="#FEEED1"/>
<path d="M184 141.551H183.997V141.633H184V141.551Z" fill="#FDEDD0"/>
<path d="M184.003 141.551H184V141.633H184.003V141.551Z" fill="#FDECCF"/>
<path d="M184.007 141.551H184.003V141.633H184.007V141.551Z" fill="#FDEBCE"/>
<path d="M184.012 141.551H184.009V141.633H184.012V141.551Z" fill="#FDEACD"/>
<path d="M184.013 141.551H184.01V141.633H184.013V141.551Z" fill="#FDE9CC"/>
<path d="M184.017 141.551H184.013V141.633H184.017V141.551Z" fill="#FCE8CA"/>
<path d="M184.021 141.551H184.018V141.633H184.021V141.551Z" fill="#FCE7C9"/>
<path d="M184.026 141.551H184.022V141.633H184.026V141.551Z" fill="#FCE6C8"/>
<path d="M184.029 141.551H184.026V141.633H184.029V141.551Z" fill="#FCE5C7"/>
<path d="M184.031 141.551H184.028V141.633H184.031V141.551Z" fill="#FBE4C6"/>
<path d="M184.035 141.551H184.031V141.633H184.035V141.551Z" fill="#FBE3C5"/>
<path d="M184.038 141.551H184.035V141.633H184.038V141.551Z" fill="#FBE2C4"/>
<path d="M184.043 141.551H184.039V141.633H184.043V141.551Z" fill="#FBE1C3"/>
<path d="M184.045 141.551H184.042V141.633H184.045V141.551Z" fill="#FAE0C2"/>
<path d="M184.048 141.551H184.045V141.633H184.048V141.551Z" fill="#FADFC1"/>
<path d="M184.054 141.551H184.051V141.633H184.054V141.551Z" fill="#FADEC0"/>
</g>
<mask id="mask2_3302_167343" style="mask-type:luminance" maskUnits="userSpaceOnUse" x="202" y="147" width="1" height="1">
<path d="M202.827 147.3C202.879 147.3 202.879 147.218 202.827 147.218C202.775 147.218 202.775 147.3 202.827 147.3Z" fill="white"/>
</mask>
<g mask="url(#mask2_3302_167343)">
<path d="M202.79 147.218H202.777V147.3H202.79V147.218Z" fill="#FFF4D7"/>
<path d="M202.793 147.218H202.789V147.3H202.793V147.218Z" fill="#FFF4D7"/>
<path d="M202.797 147.218H202.794V147.3H202.797V147.218Z" fill="#FFF3D6"/>
<path d="M202.799 147.218H202.796V147.3H202.799V147.218Z" fill="#FFF2D5"/>
<path d="M202.804 147.218H202.801V147.3H202.804V147.218Z" fill="#FEF1D4"/>
<path d="M202.807 147.218H202.804V147.3H202.807V147.218Z" fill="#FEF0D3"/>
<path d="M202.812 147.218H202.808V147.3H202.812V147.218Z" fill="#FEEFD2"/>
<path d="M202.813 147.218H202.81V147.3H202.813V147.218Z" fill="#FEEED1"/>
<path d="M202.817 147.218H202.814V147.3H202.817V147.218Z" fill="#FDEDD0"/>
<path d="M202.821 147.218H202.817V147.3H202.821V147.218Z" fill="#FDECCF"/>
<path d="M202.824 147.218H202.821V147.3H202.824V147.218Z" fill="#FDEBCE"/>
<path d="M202.826 147.218H202.823V147.3H202.826V147.218Z" fill="#FDEACD"/>
<path d="M202.831 147.218H202.827V147.3H202.831V147.218Z" fill="#FDE9CC"/>
<path d="M202.834 147.218H202.831V147.3H202.834V147.218Z" fill="#FCE8CA"/>
<path d="M202.838 147.218H202.835V147.3H202.838V147.218Z" fill="#FCE7C9"/>
<path d="M202.842 147.218H202.839V147.3H202.842V147.218Z" fill="#FCE6C8"/>
<path d="M202.843 147.218H202.84V147.3H202.843V147.218Z" fill="#FCE5C7"/>
<path d="M202.847 147.218H202.844V147.3H202.847V147.218Z" fill="#FBE4C6"/>
<path d="M202.852 147.218H202.849V147.3H202.852V147.218Z" fill="#FBE3C5"/>
<path d="M202.855 147.218H202.852V147.3H202.855V147.218Z" fill="#FBE2C4"/>
<path d="M202.858 147.218H202.854V147.3H202.858V147.218Z" fill="#FBE1C3"/>
<path d="M202.861 147.218H202.858V147.3H202.861V147.218Z" fill="#FAE0C2"/>
<path d="M202.866 147.218H202.862V147.3H202.866V147.218Z" fill="#FADFC1"/>
</g>
<g style="mix-blend-mode:multiply" opacity="0.45">
<path fill-rule="evenodd" clip-rule="evenodd" d="M135.495 174.423L129.109 171.359L128.207 170.925L113.669 163.946L114.232 163.518C118.439 165.628 124.318 168.65 128.839 170.984C129.158 171.148 129.471 171.31 129.775 171.467C132.834 173.047 135.1 174.223 135.496 174.423H135.495Z" fill="#C0DCCD"/>
</g>
<g style="mix-blend-mode:multiply" opacity="0.45">
<path d="M149.995 184.624L135.615 178.403L116.318 168.883C117.136 169.277 142.931 181.256 149.996 184.623L149.995 184.624Z" fill="#C0DCCD"/>
</g>
<g style="mix-blend-mode:multiply">
<path d="M232.858 140.765C221.885 142.493 209.222 157.827 206.18 164.948L202.851 163.238C205.72 152.392 218.176 141.314 223.726 138.139L232.858 140.765Z" fill="url(#paint25_linear_3302_167343)"/>
</g>
<path d="M203.716 154.519L209.531 157.837L250.405 86.8463L244.59 83.5284L203.716 154.519Z" fill="url(#paint26_linear_3302_167343)"/>
<path d="M201.625 164.857L202.671 159.683L203.717 154.51C206.166 154.28 208.489 155.606 209.532 157.826L205.578 161.337L201.624 164.847L201.625 164.857Z" fill="#EFECCF"/>
<mask id="mask3_3302_167343" style="mask-type:luminance" maskUnits="userSpaceOnUse" x="201" y="154" width="9" height="11">
<path d="M201.624 164.858L202.67 159.684L203.715 154.511C206.165 154.281 208.488 155.607 209.53 157.827L205.577 161.338L201.623 164.848L201.624 164.858Z" fill="white"/>
</mask>
<g mask="url(#mask3_3302_167343)">
<path d="M203.524 162.738C202.266 161.642 200.348 161.784 199.241 163.055C198.134 164.326 198.257 166.245 199.515 167.341C200.774 168.437 202.691 168.295 203.798 167.024C204.905 165.753 204.783 163.834 203.524 162.738Z" fill="#4C4B40"/>
</g>
</g>
<defs>
<linearGradient id="paint0_linear_3302_167343" x1="113.729" y1="90.2339" x2="113.729" y2="98.3613" gradientUnits="userSpaceOnUse">
<stop stop-color="#706547"/>
<stop offset="1" stop-color="#4E4632"/>
</linearGradient>
<linearGradient id="paint1_linear_3302_167343" x1="112.103" y1="34.2953" x2="112.103" y2="90.234" gradientUnits="userSpaceOnUse">
<stop stop-color="#90B75F"/>
<stop offset="0.72" stop-color="#D5E84B"/>
</linearGradient>
<linearGradient id="paint2_linear_3302_167343" x1="101.212" y1="86.0984" x2="87.3912" y2="86.0984" gradientUnits="userSpaceOnUse">
<stop offset="0.07"/>
<stop offset="0.95" stop-color="#D5E84B"/>
</linearGradient>
<linearGradient id="paint3_linear_3302_167343" x1="126.385" y1="83.7904" x2="116.097" y2="94.0835" gradientUnits="userSpaceOnUse">
<stop offset="0.07" stop-color="#242424"/>
<stop offset="0.95" stop-color="#D5E84B"/>
</linearGradient>
<linearGradient id="paint4_linear_3302_167343" x1="108.008" y1="136.429" x2="84.993" y2="105.968" gradientUnits="userSpaceOnUse">
<stop stop-color="#4B985F"/>
<stop offset="1" stop-color="#88B53A" stop-opacity="0"/>
</linearGradient>
<linearGradient id="paint5_linear_3302_167343" x1="22.9898" y1="111.971" x2="38.5198" y2="125.99" gradientUnits="userSpaceOnUse">
<stop stop-color="#D5EADF" stop-opacity="0"/>
<stop offset="1" stop-color="#317A54" stop-opacity="0.55"/>
</linearGradient>
<linearGradient id="paint6_linear_3302_167343" x1="30.4148" y1="118.909" x2="38.1821" y2="117.43" gradientUnits="userSpaceOnUse">
<stop offset="0.505157" stop-color="white"/>
<stop offset="1" stop-color="#999999"/>
</linearGradient>
<linearGradient id="paint7_linear_3302_167343" x1="39.2342" y1="101.262" x2="56.7859" y2="120.016" gradientUnits="userSpaceOnUse">
<stop offset="0.158025" stop-color="#6EC0A6"/>
<stop offset="1" stop-color="#3FA686"/>
</linearGradient>
<linearGradient id="paint8_linear_3302_167343" x1="37.7655" y1="107.059" x2="43.5798" y2="104.959" gradientUnits="userSpaceOnUse">
<stop stop-color="white"/>
<stop offset="1" stop-color="#C5D3CB"/>
</linearGradient>
<linearGradient id="paint9_linear_3302_167343" x1="37.4521" y1="79.8722" x2="79.216" y2="79.8722" gradientUnits="userSpaceOnUse">
<stop stop-color="#86BC0F"/>
<stop offset="1" stop-color="#79A714"/>
</linearGradient>
<linearGradient id="paint10_linear_3302_167343" x1="38.8217" y1="96.4737" x2="48.7885" y2="92.8125" gradientUnits="userSpaceOnUse">
<stop stop-color="white"/>
<stop offset="1" stop-color="#999999"/>
</linearGradient>
<linearGradient id="paint11_linear_3302_167343" x1="42.8566" y1="91.7394" x2="36.1196" y2="96.6145" gradientUnits="userSpaceOnUse">
<stop offset="0.409405" stop-color="#2F5000"/>
<stop offset="1" stop-color="#6BB600"/>
</linearGradient>
<linearGradient id="paint12_linear_3302_167343" x1="31.7033" y1="89.1784" x2="56.6376" y2="77.1113" gradientUnits="userSpaceOnUse">
<stop stop-color="#AEEE20"/>
<stop offset="1" stop-color="#3D5607"/>
</linearGradient>
<linearGradient id="paint13_linear_3302_167343" x1="38.3179" y1="114.187" x2="32.9591" y2="116.849" gradientUnits="userSpaceOnUse">
<stop stop-color="#409C7F"/>
<stop offset="1" stop-color="#6EC0A6"/>
</linearGradient>
<linearGradient id="paint14_linear_3302_167343" x1="19.27" y1="191.099" x2="20.5689" y2="171.142" gradientUnits="userSpaceOnUse">
<stop stop-color="#4B985F"/>
<stop offset="1" stop-color="#88B53A" stop-opacity="0"/>
</linearGradient>
<linearGradient id="paint15_linear_3302_167343" x1="265.636" y1="117.832" x2="272.116" y2="131.024" gradientUnits="userSpaceOnUse">
<stop stop-color="#33AC6B"/>
<stop offset="1" stop-color="#95C0A9"/>
</linearGradient>
<linearGradient id="paint16_linear_3302_167343" x1="280.214" y1="149.26" x2="251.362" y2="168.751" gradientUnits="userSpaceOnUse">
<stop stop-color="#48A974"/>
<stop offset="1" stop-color="#55AE7E" stop-opacity="0"/>
</linearGradient>
<linearGradient id="paint17_linear_3302_167343" x1="280.214" y1="149.26" x2="251.362" y2="168.751" gradientUnits="userSpaceOnUse">
<stop stop-color="#48A974"/>
<stop offset="1" stop-color="#55AE7E" stop-opacity="0"/>
</linearGradient>
<linearGradient id="paint18_linear_3302_167343" x1="280.214" y1="149.26" x2="251.362" y2="168.751" gradientUnits="userSpaceOnUse">
<stop stop-color="#48A974"/>
<stop offset="1" stop-color="#55AE7E" stop-opacity="0"/>
</linearGradient>
<linearGradient id="paint19_linear_3302_167343" x1="280.214" y1="149.26" x2="251.362" y2="168.751" gradientUnits="userSpaceOnUse">
<stop stop-color="#48A974"/>
<stop offset="1" stop-color="#55AE7E" stop-opacity="0"/>
</linearGradient>
<linearGradient id="paint20_linear_3302_167343" x1="224.115" y1="195.987" x2="200.613" y2="202.239" gradientUnits="userSpaceOnUse">
<stop stop-color="#226445"/>
<stop offset="1" stop-color="#49B481"/>
</linearGradient>
<linearGradient id="paint21_linear_3302_167343" x1="228.419" y1="195.928" x2="228.419" y2="201.167" gradientUnits="userSpaceOnUse">
<stop stop-color="#32815C"/>
<stop offset="1" stop-color="#3F8665"/>
</linearGradient>
<linearGradient id="paint22_linear_3302_167343" x1="131.195" y1="161.327" x2="221.623" y2="190.707" gradientUnits="userSpaceOnUse">
<stop stop-color="white"/>
<stop offset="1" stop-color="#C9F0DA"/>
</linearGradient>
<linearGradient id="paint23_linear_3302_167343" x1="113.964" y1="161.252" x2="150.294" y2="190.661" gradientUnits="userSpaceOnUse">
<stop stop-color="#EAF7F0"/>
<stop offset="1" stop-color="#D4E9DE"/>
</linearGradient>
<linearGradient id="paint24_linear_3302_167343" x1="151.505" y1="180.623" x2="280.554" y2="180.623" gradientUnits="userSpaceOnUse">
<stop stop-color="#BDD6C8"/>
<stop offset="1" stop-color="#8EB6A1"/>
</linearGradient>
<linearGradient id="paint25_linear_3302_167343" x1="227.568" y1="138.566" x2="205.336" y2="167.264" gradientUnits="userSpaceOnUse">
<stop stop-color="#EFEFEF" stop-opacity="0.1"/>
<stop offset="0.691243" stop-color="#B6CEC0"/>
<stop offset="1" stop-color="#EFEFEF" stop-opacity="0.1"/>
</linearGradient>
<linearGradient id="paint26_linear_3302_167343" x1="247.498" y1="85.1874" x2="206.897" y2="156.335" gradientUnits="userSpaceOnUse">
<stop stop-color="#4AA587"/>
<stop offset="1" stop-color="#70CCAD"/>
</linearGradient>
<clipPath id="clip0_3302_167343">
<rect width="304" height="227" rx="30" fill="white"/>
</clipPath>
</defs>
</svg>
