<svg width="48" height="48" viewBox="0 0 48 48" fill="none" xmlns="http://www.w3.org/2000/svg">
<path d="M30.627 33.9433L6.13636 41.5495C5.07439 41.8791 4.07798 40.8827 4.40763 39.8207L12.0138 15.3301L30.627 33.9433Z" fill="url(#paint0_linear_2824_129461)"/>
<path d="M31.3774 33.5088C33.1625 31.7237 30.3717 26.0389 25.1441 20.8113C19.9165 15.5837 14.2317 12.793 12.4467 14.578C10.6616 16.363 13.4524 22.0479 18.68 27.2754C23.9076 32.503 29.5924 35.2938 31.3774 33.5088Z" fill="#53C588"/>
<path d="M30.5204 32.6492C29.8217 33.3471 28.2283 33.1527 26.1462 32.1145C23.9574 31.023 21.47 29.1401 19.1435 26.8136C16.8169 24.4878 14.9349 22.0006 13.8433 19.8109C12.8051 17.7295 12.6099 16.1353 13.3079 15.4374C14.0057 14.7396 15.5999 14.9347 17.6821 15.9729C19.8709 17.0645 22.3583 18.9465 24.6848 21.2731C27.0114 23.5996 28.8934 26.087 29.985 28.2757C31.0231 30.3571 31.2184 31.9514 30.5204 32.6492Z" fill="url(#paint1_linear_2824_129461)"/>
<path fill-rule="evenodd" clip-rule="evenodd" d="M27.1125 35.0341L22.3724 36.5061C21.3206 36.1302 20.2863 35.6786 19.2714 35.1532C17.0625 34.009 14.9371 32.507 12.9545 30.6897C12.6327 30.3946 12.2804 30.059 11.9054 29.684C10.9363 28.7149 9.81882 27.483 8.69963 26.0018L9.67391 22.8647C11.4535 25.54 13.3747 27.5315 14.7197 28.7638C18.5054 32.2346 22.6698 34.3405 27.1125 35.0341ZM19.2063 37.4895L15.4691 38.6503C13.3321 37.5191 11.2756 36.0536 9.35252 34.2911C9.03072 33.9961 8.67839 33.6604 8.30345 33.2855C7.86111 32.8432 7.38879 32.3468 6.89884 31.7969L7.81631 28.8423C9.03248 30.3484 10.2076 31.531 11.1177 32.3653C13.654 34.691 16.3602 36.4035 19.2063 37.4895ZM9.15924 40.6102L12.4394 39.5916C10.7374 38.6229 9.09416 37.4136 7.51643 35.967C7.08058 35.5671 6.58326 35.0874 6.05043 34.5306L5.17456 37.3503C5.37581 37.5442 5.56841 37.7248 5.75123 37.8929C6.84686 38.8971 7.98642 39.8059 9.15924 40.6102Z" fill="url(#paint2_linear_2824_129461)"/>
<path d="M18.5924 18.4339L17.4326 17.2741C19.2744 15.4324 20.3269 13.0658 20.5611 10.24C20.7393 8.09021 20.3515 6.4684 20.3475 6.45229L21.9399 6.05908C21.9583 6.13362 22.3901 7.91204 22.2007 10.3148C21.948 13.5185 20.7003 16.3261 18.5924 18.4339Z" fill="url(#paint3_linear_2824_129461)"/>
<path d="M27.8131 28.8142L26.6533 27.6544C28.9243 25.3834 32.1374 24.2411 35.9453 24.351C38.7721 24.4326 40.9226 25.1665 41.0128 25.1978L40.4763 26.7477L40.7445 25.9727L40.4771 26.748C40.4571 26.7411 38.4375 26.0565 35.8526 25.9892C32.4802 25.9014 29.7754 26.8519 27.8131 28.8142Z" fill="url(#paint4_linear_2824_129461)"/>
<path d="M22.1382 16.7783C22.7326 15.7901 23.5141 15.5321 24.0848 15.3437C24.5677 15.1843 24.8592 15.088 25.1401 14.6212C25.4208 14.1544 25.3692 13.8518 25.2837 13.3505C25.1827 12.7581 25.0444 11.9467 25.6387 10.9586C26.2331 9.97035 27.0147 9.71227 27.5853 9.52384C28.0684 9.36435 28.3599 9.26809 28.6408 8.80122C28.9217 8.33428 28.87 8.03163 28.7846 7.53022C28.6836 6.93776 28.5453 6.12642 29.1397 5.13818L30.5451 5.98359C30.2643 6.45054 30.3159 6.75318 30.4014 7.25459C30.5024 7.84705 30.6407 8.6584 30.0463 9.64663C29.4518 10.6348 28.6703 10.8929 28.0997 11.0813C27.6166 11.2408 27.325 11.337 27.0442 11.804C26.7634 12.2707 26.815 12.5734 26.9005 13.0747C27.0015 13.6671 27.1399 14.4784 26.5455 15.4666C25.9511 16.4548 25.1696 16.7128 24.5989 16.9012C24.1159 17.0606 23.8244 17.1569 23.5436 17.6237L22.1382 16.7783Z" fill="url(#paint5_linear_2824_129461)"/>
<path d="M28.9013 21.1736L28.0977 19.7438C29.1336 19.1616 29.9668 19.3291 30.5751 19.4513C31.1022 19.5573 31.4203 19.6212 31.9258 19.3371C32.4313 19.053 32.5421 18.748 32.7254 18.2427C32.9373 17.6594 33.2273 16.8607 34.2632 16.2784C35.2992 15.6961 36.1325 15.8636 36.7408 15.9858C37.268 16.0917 37.5861 16.1557 38.0917 15.8715C38.5973 15.5873 38.7081 15.2822 38.8917 14.7769C39.1035 14.1936 39.3937 13.3948 40.4296 12.8125L41.2332 14.2424C40.7277 14.5266 40.6169 14.8315 40.4334 15.3369C40.2215 15.9202 39.9314 16.719 38.8954 17.3013C37.8594 17.8836 37.0261 17.7161 36.4177 17.5939C35.8907 17.4879 35.5725 17.4239 35.0669 17.7081C34.5614 17.9922 34.4506 18.2972 34.2673 18.8025C34.0554 19.3858 33.7654 20.1846 32.7295 20.7669C31.6936 21.3491 30.8604 21.1816 30.252 21.0593C29.7249 20.9535 29.4068 20.8895 28.9013 21.1736Z" fill="url(#paint6_linear_2824_129461)"/>
<path d="M39.2932 21.2837C39.7461 21.2837 40.1133 20.9166 40.1133 20.4636C40.1133 20.0107 39.7461 19.6436 39.2932 19.6436C38.8403 19.6436 38.4731 20.0107 38.4731 20.4636C38.4731 20.9166 38.8403 21.2837 39.2932 21.2837Z" fill="#4EA06A"/>
<path d="M35.6404 30.8526C36.0933 30.8526 36.4605 30.4854 36.4605 30.0325C36.4605 29.5796 36.0933 29.2124 35.6404 29.2124C35.1875 29.2124 34.8203 29.5796 34.8203 30.0325C34.8203 30.4854 35.1875 30.8526 35.6404 30.8526Z" fill="#6FBE93"/>
<path d="M43.178 23.8931C43.6309 23.8931 43.9981 23.5259 43.9981 23.073C43.9981 22.6201 43.6309 22.2529 43.178 22.2529C42.7251 22.2529 42.3579 22.6201 42.3579 23.073C42.3579 23.5259 42.7251 23.8931 43.178 23.8931Z" fill="#1E834C"/>
<path d="M36.5125 12.5855C36.9654 12.5855 37.3325 12.2183 37.3325 11.7654C37.3325 11.3125 36.9654 10.9453 36.5125 10.9453C36.0595 10.9453 35.6924 11.3125 35.6924 11.7654C35.6924 12.2183 36.0595 12.5855 36.5125 12.5855Z" fill="url(#paint7_linear_2824_129461)"/>
<path d="M24.4505 6.55472C24.9034 6.55472 25.2705 6.18755 25.2705 5.73463C25.2705 5.28171 24.9034 4.91455 24.4505 4.91455C23.9975 4.91455 23.6304 5.28171 23.6304 5.73463C23.6304 6.18755 23.9975 6.55472 24.4505 6.55472Z" fill="#1E834C"/>
<path d="M30.1331 13.6294C30.586 13.6294 30.9532 13.2623 30.9532 12.8093C30.9532 12.3564 30.586 11.9893 30.1331 11.9893C29.6802 11.9893 29.313 12.3564 29.313 12.8093C29.313 13.2623 29.6802 13.6294 30.1331 13.6294Z" fill="#3CAD70"/>
<path d="M23.929 23.7774C24.3819 23.7774 24.7491 23.4102 24.7491 22.9573C24.7491 22.5044 24.3819 22.1372 23.929 22.1372C23.476 22.1372 23.1089 22.5044 23.1089 22.9573C23.1089 23.4102 23.476 23.7774 23.929 23.7774Z" fill="url(#paint8_linear_2824_129461)"/>
<path d="M15.3445 10.44C15.7974 10.44 16.1646 10.0728 16.1646 9.61989C16.1646 9.16697 15.7974 8.7998 15.3445 8.7998C14.8916 8.7998 14.5244 9.16697 14.5244 9.61989C14.5244 10.0728 14.8916 10.44 15.3445 10.44Z" fill="#4EA06A"/>
<defs>
<linearGradient id="paint0_linear_2824_129461" x1="8.5" y1="28" x2="21.5" y2="51" gradientUnits="userSpaceOnUse">
<stop stop-color="#3CAD70"/>
<stop offset="1" stop-color="#3CAD70" stop-opacity="0"/>
</linearGradient>
<linearGradient id="paint1_linear_2824_129461" x1="19.2225" y1="26.9144" x2="24.6058" y2="21.1722" gradientUnits="userSpaceOnUse">
<stop stop-color="#378359"/>
<stop offset="1" stop-color="#1A5335"/>
</linearGradient>
<linearGradient id="paint2_linear_2824_129461" x1="9.12365" y1="30.12" x2="22.0049" y2="46.8656" gradientUnits="userSpaceOnUse">
<stop stop-color="#2E8C58"/>
<stop offset="1" stop-color="#1E5E3B" stop-opacity="0"/>
</linearGradient>
<linearGradient id="paint3_linear_2824_129461" x1="22" y1="8.49976" x2="14.5" y2="30.4998" gradientUnits="userSpaceOnUse">
<stop stop-color="#6FBE93"/>
<stop offset="1" stop-color="#B6DDC8"/>
</linearGradient>
<linearGradient id="paint4_linear_2824_129461" x1="40" y1="26.4998" x2="19" y2="31.4998" gradientUnits="userSpaceOnUse">
<stop stop-color="#1E834C"/>
<stop offset="1" stop-color="#3DBC77"/>
</linearGradient>
<linearGradient id="paint5_linear_2824_129461" x1="29.5" y1="9.49976" x2="21" y2="21.4998" gradientUnits="userSpaceOnUse">
<stop stop-color="#55CC8C"/>
<stop offset="1" stop-color="#55CC8C" stop-opacity="0"/>
</linearGradient>
<linearGradient id="paint6_linear_2824_129461" x1="40.5" y1="15.4998" x2="22.5" y2="24.9998" gradientUnits="userSpaceOnUse">
<stop stop-color="#3CAD70"/>
<stop offset="1" stop-color="#3CAD70" stop-opacity="0"/>
</linearGradient>
<linearGradient id="paint7_linear_2824_129461" x1="36.5125" y1="10.9453" x2="36.5125" y2="12.5855" gradientUnits="userSpaceOnUse">
<stop stop-color="#55CC8C"/>
<stop offset="1" stop-color="#55CC8C" stop-opacity="0"/>
</linearGradient>
<linearGradient id="paint8_linear_2824_129461" x1="23.929" y1="22.1372" x2="23.929" y2="23.7774" gradientUnits="userSpaceOnUse">
<stop stop-color="#55CC8C"/>
<stop offset="1" stop-color="#55CC8C" stop-opacity="0"/>
</linearGradient>
</defs>
</svg>
