<svg width="100" height="100" viewBox="0 0 100 100" fill="none" xmlns="http://www.w3.org/2000/svg">
<circle cx="50" cy="50" r="50" fill="#E9EBED"/>
<path d="M34.67 60.0191L34.5 58.0291C34.62 58.0191 46.92 56.8491 51.78 48.3691L53.51 49.3691C48.12 58.7691 35.21 59.9791 34.66 60.0291L34.67 60.0191Z" fill="#9FA4A9"/>
<path d="M63.83 58.5107C57.42 58.5107 49.85 53.3707 49.48 53.1207L50.61 51.4707C50.7 51.5407 60.13 57.9307 65.97 56.2307L66.53 58.1507C65.67 58.4007 64.76 58.5107 63.83 58.5107Z" fill="#9FA4A9"/>
<path d="M39.4998 46.86C41.3942 46.86 42.9298 45.3243 42.9298 43.43C42.9298 41.5357 41.3942 40 39.4998 40C37.6055 40 36.0698 41.5357 36.0698 43.43C36.0698 45.3243 37.6055 46.86 39.4998 46.86Z" fill="#9FA4A9"/>
<path d="M60.5501 46.86C62.4445 46.86 63.9801 45.3243 63.9801 43.43C63.9801 41.5357 62.4445 40 60.5501 40C58.6558 40 57.1201 41.5357 57.1201 43.43C57.1201 45.3243 58.6558 46.86 60.5501 46.86Z" fill="#9FA4A9"/>
<mask id="mask0_2659_98868" style="mask-type:alpha" maskUnits="userSpaceOnUse" x="0" y="0" width="100" height="100">
<circle cx="50" cy="50" r="50" fill="#464C52"/>
</mask>
<g mask="url(#mask0_2659_98868)">
<rect x="-6.25" y="78.125" width="112.5" height="45.3125" fill="#73787E"/>
</g>
<path d="M48.1409 83.4945V91.2845H47.0304V88.3923H45.3854V87.4641H47.0304V86.3536H45.3854V85.4461H47.0304V83.4945H48.1409ZM39.4019 88.8646C39.7956 88.8646 40.2224 88.8605 40.674 88.8564V85.2141H39.6878V84.3108H45.2652V85.2141H44.2666V88.732C44.7058 88.6989 45.1409 88.6616 45.5511 88.616L45.6008 89.4365C43.587 89.7555 41.221 89.7928 39.5345 89.8011L39.4019 88.8646ZM41.2997 93.779V90.6588H42.4227V92.8674H48.4144V93.779H41.2997ZM41.7555 88.8398C42.2279 88.8273 42.7127 88.8149 43.1975 88.7901V85.2141H41.7555V88.8398ZM53.6473 85.1727C53.6473 86.4779 54.6667 87.6878 56.2827 88.1602L55.7233 89.0304C54.4968 88.6533 53.5686 87.8536 53.0921 86.826C52.6239 87.9282 51.6832 88.7983 50.4236 89.2127L49.8559 88.3384C51.4968 87.837 52.5161 86.5525 52.5244 85.1727V85.0566H50.1625V84.1575H55.9595V85.0566H53.6473V85.1727ZM51.5962 93.8619V89.6727H52.686V90.8453H57.3642V89.6727H58.4705V93.8619H51.5962ZM52.686 92.9586H57.3642V91.7196H52.686V92.9586ZM57.3559 89.1796V83.4945H58.4705V89.1796H57.3559Z" fill="#E9EBED"/>
</svg>
