<svg width="64" height="64" viewBox="0 0 64 64" fill="none" xmlns="http://www.w3.org/2000/svg">
<circle cx="32" cy="32" r="32" fill="#E9EBED"/>
<path d="M20.758 39.348L20.6334 37.8887C20.7214 37.8814 29.7414 37.0234 33.3054 30.8047L34.574 31.538C30.6214 38.4314 21.154 39.3187 20.7507 39.3554L20.758 39.348Z" fill="#9FA4A9"/>
<path d="M42.142 38.2408C37.4413 38.2408 31.89 34.4715 31.6187 34.2881L32.4473 33.0781C32.5133 33.1295 39.4287 37.8155 43.7113 36.5688L44.122 37.9768C43.4913 38.1601 42.824 38.2408 42.142 38.2408Z" fill="#9FA4A9"/>
<path d="M24.3001 29.6967C25.6892 29.6967 26.8154 28.5705 26.8154 27.1813C26.8154 25.7922 25.6892 24.666 24.3001 24.666C22.9109 24.666 21.7847 25.7922 21.7847 27.1813C21.7847 28.5705 22.9109 29.6967 24.3001 29.6967Z" fill="#9FA4A9"/>
<path d="M39.7367 29.6967C41.1259 29.6967 42.2521 28.5705 42.2521 27.1813C42.2521 25.7922 41.1259 24.666 39.7367 24.666C38.3476 24.666 37.2214 25.7922 37.2214 27.1813C37.2214 28.5705 38.3476 29.6967 39.7367 29.6967Z" fill="#9FA4A9"/>
</svg>
