<svg width="200" height="200" viewBox="0 0 510 512" fill="none" xmlns="http://www.w3.org/2000/svg">
<g clip-path="url(#clip0_840_26523)">
<rect width="512" height="512" fill="#29BA6C"/>
<path fill-rule="evenodd" clip-rule="evenodd" d="M127.55 219.94C123.258 229.32 123.258 239.979 123.258 261.297V298.788C123.258 343.418 123.258 365.733 137.123 379.598C150.987 393.462 173.302 393.462 217.933 393.462H294.065C338.695 393.462 361.01 393.462 374.874 379.598C388.739 365.733 388.739 343.418 388.739 298.788V261.297C388.739 239.979 388.739 229.32 384.447 219.94C380.154 210.559 372.088 203.591 355.957 189.655L317.891 156.769L317.891 156.769C288.373 131.269 273.614 118.519 255.999 118.519C238.383 118.519 223.624 131.269 194.107 156.769L156.04 189.654L156.04 189.655C139.909 203.591 131.843 210.559 127.55 219.94ZM287.818 274.019L258.173 301.798C258.697 290.658 262.373 278.023 270.187 267.28C280.217 253.488 297.459 242.289 325.074 242.044C326.54 256.085 323.694 277.112 313.351 295.441C302.031 315.5 281.797 332.286 247.736 332.904C217.555 330.54 186.564 306.357 186.564 264.972C186.564 260.726 183.198 257.284 179.045 257.284C174.893 257.284 171.526 260.726 171.526 264.972C171.526 315.967 210.274 345.577 246.982 348.265L247.306 348.289L247.63 348.284C287.656 347.682 312.619 327.504 326.375 303.126C339.839 279.268 342.635 251.34 339.031 233.9C338.119 229.485 334.373 226.893 330.679 226.753C295.555 225.425 271.937 239.105 258.12 258.104C244.589 276.709 240.883 299.851 244.225 317.125C245.643 324.454 254.087 326.483 258.873 321.998L297.978 285.355C301.039 282.486 301.247 277.623 298.442 274.492C295.636 271.362 290.88 271.15 287.818 274.019Z" fill="white"/>
</g>
<defs>
<clipPath id="clip0_840_26523">
<rect width="510" height="512" fill="white"/>
</clipPath>
</defs>
</svg>
