<svg width="17" height="18" viewBox="0 0 17 18" fill="none" xmlns="http://www.w3.org/2000/svg">
<g clip-path="url(#clip0_57100_27172)">
<path fill-rule="evenodd" clip-rule="evenodd" d="M10.115 1.91602C10.4123 1.91609 10.7021 2.00972 10.9433 2.18363C11.1844 2.35754 11.3648 2.60292 11.4587 2.88502L11.8433 4.04102H14.1667C14.3545 4.04102 14.5347 4.11564 14.6675 4.24848C14.8004 4.38132 14.875 4.56149 14.875 4.74935C14.875 4.93721 14.8004 5.11738 14.6675 5.25022C14.5347 5.38305 14.3545 5.45768 14.1667 5.45768L14.1645 5.50797L13.5504 14.1093C13.5121 14.6452 13.2722 15.1467 12.8789 15.5129C12.4857 15.879 11.9684 16.0826 11.4311 16.0827H5.56892C5.03162 16.0826 4.51428 15.879 4.12106 15.5129C3.72783 15.1467 3.48791 14.6452 3.44958 14.1093L2.83546 5.50727C2.83418 5.49077 2.83347 5.47423 2.83333 5.45768C2.64547 5.45768 2.4653 5.38305 2.33247 5.25022C2.19963 5.11738 2.125 4.93721 2.125 4.74935C2.125 4.56149 2.19963 4.38132 2.33247 4.24848C2.4653 4.11564 2.64547 4.04102 2.83333 4.04102H5.15667L5.54129 2.88502C5.63529 2.60281 5.81572 2.35734 6.05703 2.18342C6.29833 2.0095 6.58826 1.91594 6.88571 1.91602H10.115ZM6.375 7.58268C6.20151 7.5827 6.03405 7.6464 5.9044 7.76169C5.77475 7.87698 5.69192 8.03584 5.67162 8.20814L5.66667 8.29101V12.541C5.66687 12.7216 5.736 12.8952 5.85993 13.0265C5.98387 13.1578 6.15326 13.2368 6.33349 13.2473C6.51372 13.2579 6.69118 13.1993 6.82963 13.0834C6.96808 12.9675 7.05705 12.8032 7.07837 12.6239L7.08333 12.541V8.29101C7.08333 8.10315 7.00871 7.92299 6.87587 7.79015C6.74303 7.65731 6.56286 7.58268 6.375 7.58268ZM10.625 7.58268C10.4371 7.58268 10.257 7.65731 10.1241 7.79015C9.99129 7.92299 9.91667 8.10315 9.91667 8.29101V12.541C9.91667 12.7289 9.99129 12.909 10.1241 13.0419C10.257 13.1747 10.4371 13.2493 10.625 13.2493C10.8129 13.2493 10.993 13.1747 11.1259 13.0419C11.2587 12.909 11.3333 12.7289 11.3333 12.541V8.29101C11.3333 8.10315 11.2587 7.92299 11.1259 7.79015C10.993 7.65731 10.8129 7.58268 10.625 7.58268ZM10.115 3.33268H6.885L6.64913 4.04102H10.3509L10.115 3.33268Z" fill="#FF7373"/>
</g>
<defs>
<clipPath id="clip0_57100_27172">
<rect width="17" height="17" fill="white" transform="translate(0 0.5)"/>
</clipPath>
</defs>
</svg>
